<svg width="41" height="41" viewBox="0 0 41 41" fill="none" xmlns="http://www.w3.org/2000/svg">
<path d="M21.9789 6.06176L27.3439 12.7684L32.7089 6.06176C32.9256 5.7939 33.2198 5.59961 33.5513 5.50554C33.8827 5.41146 34.2352 5.4222 34.5603 5.53629C34.8854 5.65038 35.1672 5.86222 35.3672 6.14278C35.5672 6.42335 35.6755 6.75889 35.6772 7.10342V32.1034C35.6772 33.9418 34.1822 35.4368 32.3439 35.4368H9.01058C7.17225 35.4368 5.67725 33.9418 5.67725 32.1034L5.67725 7.10342C5.67903 6.75889 5.78733 6.42335 5.98731 6.14278C6.18728 5.86222 6.46914 5.65038 6.79424 5.53629C7.11934 5.4222 7.47177 5.41146 7.80321 5.50554C8.13465 5.59961 8.42889 5.7939 8.64558 6.06176L14.0106 12.7684L19.3756 6.06176C20.0106 5.27176 21.3439 5.27176 21.9789 6.06176ZM32.3439 32.1034V28.7701L9.00891 28.7701V32.1034H32.3439ZM15.3122 16.4784C14.6772 17.2701 13.3422 17.2701 12.7072 16.4784L9.01058 11.8551L9.00891 25.4368L32.3439 25.4368V11.8551L28.6456 16.4784C28.0106 17.2701 26.6756 17.2701 26.0406 16.4784L20.6772 9.77176L15.3122 16.4784Z" fill="white"/>
</svg>
