<svg width="41" height="41" viewBox="0 0 41 41" fill="none" xmlns="http://www.w3.org/2000/svg">
<path d="M34.0106 25.4368C34.4526 25.4368 34.8765 25.6124 35.1891 25.9249C35.5017 26.2375 35.6772 26.6614 35.6772 27.1034V33.7701C35.6772 34.2121 35.5017 34.6361 35.1891 34.9486C34.8765 35.2612 34.4526 35.4368 34.0106 35.4368H27.3439C26.9019 35.4368 26.478 35.2612 26.1654 34.9486C25.8528 34.6361 25.6772 34.2121 25.6772 33.7701V32.1034H15.6772V33.7701C15.6772 34.2121 15.5017 34.6361 15.1891 34.9486C14.8765 35.2612 14.4526 35.4368 14.0106 35.4368H7.34391C6.90189 35.4368 6.47796 35.2612 6.1654 34.9486C5.85284 34.6361 5.67725 34.2121 5.67725 33.7701V27.1034C5.67725 26.6614 5.85284 26.2375 6.1654 25.9249C6.47796 25.6124 6.90189 25.4368 7.34391 25.4368H9.01058V15.4368H7.34391C6.90189 15.4368 6.47796 15.2612 6.1654 14.9486C5.85284 14.6361 5.67725 14.2121 5.67725 13.7701V7.10344C5.67725 6.66141 5.85284 6.23748 6.1654 5.92492C6.47796 5.61236 6.90189 5.43677 7.34391 5.43677H14.0106C14.4526 5.43677 14.8765 5.61236 15.1891 5.92492C15.5017 6.23748 15.6772 6.66141 15.6772 7.10344V8.7701H25.6772V7.10344C25.6772 6.66141 25.8528 6.23748 26.1654 5.92492C26.478 5.61236 26.9019 5.43677 27.3439 5.43677H34.0106C34.4526 5.43677 34.8765 5.61236 35.1891 5.92492C35.5017 6.23748 35.6772 6.66141 35.6772 7.10344V13.7701C35.6772 14.2121 35.5017 14.6361 35.1891 14.9486C34.8765 15.2612 34.4526 15.4368 34.0106 15.4368H32.3439V25.4368H34.0106ZM29.0106 32.1034H32.3439V28.7701H29.0106V32.1034ZM9.01058 32.1034H12.3439V28.7701H9.01058V32.1034ZM12.3439 8.7701H9.01058V12.1034H12.3439V8.7701ZM32.3439 8.7701H29.0106V12.1034H32.3439V8.7701ZM29.0106 15.4368H27.3439C26.9019 15.4368 26.478 15.2612 26.1654 14.9486C25.8528 14.6361 25.6772 14.2121 25.6772 13.7701V12.1034H15.6772V13.7701C15.6772 14.2121 15.5017 14.6361 15.1891 14.9486C14.8765 15.2612 14.4526 15.4368 14.0106 15.4368H12.3439V25.4368H14.0106C14.4526 25.4368 14.8765 25.6124 15.1891 25.9249C15.5017 26.2375 15.6772 26.6614 15.6772 27.1034V28.7701H25.6772V27.1034C25.6772 26.6614 25.8528 26.2375 26.1654 25.9249C26.478 25.6124 26.9019 25.4368 27.3439 25.4368H29.0106V15.4368Z" fill="white"/>
</svg>
