<svg width="41" height="41" viewBox="0 0 41 41" fill="none" xmlns="http://www.w3.org/2000/svg">
<path d="M34.4939 14.2535L27.3439 21.4035L25.1773 19.2535L22.8273 21.6201L27.3273 26.1201L36.8606 16.6201L34.4939 14.2535ZM7.34392 13.7701C7.3234 14.6512 7.48181 15.5273 7.80957 16.3454C8.13734 17.1635 8.62765 17.9067 9.25084 18.5299C9.87404 19.1531 10.6172 19.6434 11.4353 19.9711C12.2534 20.2989 13.1295 20.4573 14.0106 20.4368C14.8917 20.4573 15.7678 20.2989 16.5859 19.9711C17.404 19.6434 18.1471 19.1531 18.7703 18.5299C19.3935 17.9067 19.8838 17.1635 20.2116 16.3454C20.5394 15.5273 20.6978 14.6512 20.6773 13.7701C20.6978 12.889 20.5394 12.0129 20.2116 11.1948C19.8838 10.3767 19.3935 9.63357 18.7703 9.01037C18.1471 8.38718 17.404 7.89687 16.5859 7.5691C15.7678 7.24134 14.8917 7.08293 14.0106 7.10345C13.1295 7.08293 12.2534 7.24134 11.4353 7.5691C10.6172 7.89687 9.87404 8.38718 9.25084 9.01037C8.62765 9.63357 8.13734 10.3767 7.80957 11.1948C7.48181 12.0129 7.3234 12.889 7.34392 13.7701ZM17.3439 13.7701C17.3654 14.2135 17.2938 14.6565 17.1339 15.0707C16.974 15.4848 16.7292 15.8609 16.4153 16.1748C16.1014 16.4887 15.7253 16.7335 15.3111 16.8934C14.897 17.0533 14.454 17.1249 14.0106 17.1035C13.5672 17.1249 13.1242 17.0533 12.71 16.8934C12.2959 16.7335 11.9198 16.4887 11.6059 16.1748C11.292 15.8609 11.0472 15.4848 10.8873 15.0707C10.7274 14.6565 10.6558 14.2135 10.6773 13.7701C10.6558 13.3267 10.7274 12.8837 10.8873 12.4696C11.0472 12.0555 11.292 11.6794 11.6059 11.3654C11.9198 11.0515 12.2959 10.8068 12.71 10.6468C13.1242 10.4869 13.5672 10.4153 14.0106 10.4368C14.454 10.4153 14.897 10.4869 15.3111 10.6468C15.7253 10.8068 16.1014 11.0515 16.4153 11.3654C16.7292 11.6794 16.974 12.0555 17.1339 12.4696C17.2938 12.8837 17.3654 13.3267 17.3439 13.7701ZM7.34392 30.4368C7.34392 29.1107 7.87071 27.8389 8.80839 26.9013C9.74607 25.9636 11.0178 25.4368 12.3439 25.4368H15.6773C17.0033 25.4368 18.2751 25.9636 19.2128 26.9013C20.1505 27.8389 20.6773 29.1107 20.6773 30.4368V32.1035H24.0106V30.4368C24.0106 29.3424 23.795 28.2588 23.3763 27.2478C22.9575 26.2367 22.3436 25.3181 21.5698 24.5442C20.796 23.7704 19.8773 23.1566 18.8663 22.7378C17.8552 22.319 16.7716 22.1035 15.6773 22.1035H12.3439C10.1338 22.1035 8.01417 22.9814 6.45137 24.5442C4.88856 26.107 4.01059 28.2266 4.01059 30.4368V32.1035H7.34392L7.34392 30.4368Z" fill="white"/>
</svg>
