<svg width="25" height="25" viewBox="0 0 25 25" fill="none" xmlns="http://www.w3.org/2000/svg">
<path d="M20.8906 6.64453H17.8906V4.64453C17.8906 3.54153 16.9936 2.64453 15.8906 2.64453H9.89062C8.78762 2.64453 7.89062 3.54153 7.89062 4.64453V6.64453H4.89062C3.78762 6.64453 2.89062 7.54153 2.89062 8.64453V19.6445C2.89062 20.7475 3.78762 21.6445 4.89062 21.6445H20.8906C21.9936 21.6445 22.8906 20.7475 22.8906 19.6445V8.64453C22.8906 7.54153 21.9936 6.64453 20.8906 6.64453ZM15.8906 4.64453V6.64453H9.89062V4.64453H15.8906ZM8.89062 8.64453H16.8906H20.8906V11.6445H4.89062V8.64453H8.89062ZM4.89062 19.6445V13.6445H10.8906V15.6445H14.8906V13.6445H20.8906L20.8916 19.6445H4.89062Z" fill="#FFA633"/>
</svg>
