<svg width="25" height="25" viewBox="0 0 25 25" fill="none" xmlns="http://www.w3.org/2000/svg">
<path d="M8.39062 15.1445C6.81063 15.1445 5.48763 16.2045 5.05363 17.6445H2.89062V19.6445H5.05363C5.48763 21.0845 6.81063 22.1445 8.39062 22.1445C9.97062 22.1445 11.2936 21.0845 11.7276 19.6445H22.8906V17.6445H11.7276C11.2936 16.2045 9.97062 15.1445 8.39062 15.1445ZM8.39062 20.1445C7.56362 20.1445 6.89062 19.4715 6.89062 18.6445C6.89062 17.8175 7.56362 17.1445 8.39062 17.1445C9.21763 17.1445 9.89062 17.8175 9.89062 18.6445C9.89062 19.4715 9.21763 20.1445 8.39062 20.1445ZM17.3906 9.14453C15.8106 9.14453 14.4876 10.2045 14.0536 11.6445H2.89062V13.6445H14.0536C14.4876 15.0845 15.8106 16.1445 17.3906 16.1445C18.9706 16.1445 20.2936 15.0845 20.7276 13.6445H22.8906V11.6445H20.7276C20.2936 10.2045 18.9706 9.14453 17.3906 9.14453ZM17.3906 14.1445C16.5636 14.1445 15.8906 13.4715 15.8906 12.6445C15.8906 11.8175 16.5636 11.1445 17.3906 11.1445C18.2176 11.1445 18.8906 11.8175 18.8906 12.6445C18.8906 13.4715 18.2176 14.1445 17.3906 14.1445Z" fill="#FFA633"/>
<path d="M13.7276 5.64453C13.2936 4.20453 11.9706 3.14453 10.3906 3.14453C8.81063 3.14453 7.48763 4.20453 7.05363 5.64453H2.89062V7.64453H7.05363C7.48763 9.08453 8.81063 10.1445 10.3906 10.1445C11.9706 10.1445 13.2936 9.08453 13.7276 7.64453H23.0156V5.64453H13.7276ZM10.3906 8.14453C9.56362 8.14453 8.89062 7.47153 8.89062 6.64453C8.89062 5.81753 9.56362 5.14453 10.3906 5.14453C11.2176 5.14453 11.8906 5.81753 11.8906 6.64453C11.8906 7.47153 11.2176 8.14453 10.3906 8.14453Z" fill="#FFA633"/>
</svg>
