<svg width="19" height="18" viewBox="0 0 19 18" fill="none" xmlns="http://www.w3.org/2000/svg">
<g clip-path="url(#clip0_80_18691)">
<path d="M9.77539 18.0013C14.746 18.0013 18.7754 13.9718 18.7754 9.00128C18.7754 4.03072 14.746 0.00128174 9.77539 0.00128174C4.80483 0.00128174 0.775391 4.03072 0.775391 9.00128C0.775391 13.9718 4.80483 18.0013 9.77539 18.0013Z" fill="#1977F3"/>
<path d="M13.2792 11.6035L13.6779 9.0013H11.182V7.31293C11.182 6.60163 11.5301 5.90679 12.6489 5.90679H13.7842V3.69192C13.7842 3.69192 12.7539 3.51599 11.7693 3.51599C9.71385 3.51599 8.36974 4.76139 8.36974 7.01803V9.0013H6.08398V11.6035H8.36974V17.8924C8.8279 17.9646 9.29746 18.0013 9.77587 18.0013C10.2543 18.0013 10.7238 17.9633 11.182 17.8924V11.6035H13.2792Z" fill="white"/>
</g>
<defs>
<clipPath id="clip0_80_18691">
<rect width="18" height="18" fill="white" transform="translate(0.775391)"/>
</clipPath>
</defs>
</svg>
