<svg width="19" height="18" viewBox="0 0 19 18" fill="none" xmlns="http://www.w3.org/2000/svg">
<g clip-path="url(#clip0_80_18687)">
<path d="M18.3924 9.20248C18.3924 8.45998 18.3362 7.91998 18.2014 7.35748H9.76367V10.6987H14.7185C14.6173 11.5312 14.078 12.78 12.8759 13.6237L12.8646 13.7362L15.5274 15.8062L15.7072 15.8287C17.4149 14.2537 18.3924 11.9362 18.3924 9.20248Z" fill="#4285F4"/>
<path d="M9.76423 18C12.1911 18 14.2247 17.2012 15.719 15.8175L12.8877 13.6125C12.1236 14.1412 11.1125 14.5125 9.77546 14.5125C7.39357 14.5125 5.38244 12.9375 4.66338 10.7775L4.56226 10.7887L1.77589 12.9375L1.74219 13.0387C3.21402 15.975 6.24756 18 9.76423 18Z" fill="#34A853"/>
<path d="M4.65159 10.7775C4.46058 10.215 4.34823 9.61876 4.34823 9.00001C4.34823 8.38126 4.46058 7.78501 4.64035 7.22251V7.09876L1.83151 4.91626L1.74163 4.96126C1.12369 6.17626 0.775391 7.54876 0.775391 9.00001C0.775391 10.4513 1.12369 11.8238 1.7304 13.0388L4.65159 10.7775Z" fill="#FBBC05"/>
<path d="M9.76374 3.47625C11.449 3.47625 12.595 4.2075 13.2355 4.815L15.7747 2.34C14.2129 0.88875 12.1906 0 9.76374 0C6.24708 0 3.21353 2.025 1.73047 4.96125L4.64042 7.2225C5.37072 5.05125 7.38185 3.47625 9.76374 3.47625Z" fill="#EB4335"/>
</g>
<defs>
<clipPath id="clip0_80_18687">
<rect width="18" height="18" fill="white" transform="translate(0.775391)"/>
</clipPath>
</defs>
</svg>
