<svg width="111" height="29" viewBox="0 0 111 29" fill="none" xmlns="http://www.w3.org/2000/svg">
<path d="M29.321 4.09449L24.857 15.5065L19.385 3.66249H17.405L11.933 15.5065L7.469 4.09449H0.557L10.349 28.2865H12.329L18.413 15.8665L24.461 28.2865H26.441L36.233 4.09449H29.321ZM53.3189 17.4145C53.3189 12.2305 50.1869 9.42249 45.1469 9.42249C41.8709 9.42249 39.4229 10.5745 37.0109 13.0225L39.8909 16.9465C41.6189 15.3985 42.7709 14.7505 44.3909 14.7505C46.2629 14.7505 47.1269 15.6505 47.1269 17.0545V17.3425H43.3469C38.9909 17.3425 36.2909 19.3585 36.2909 22.7065C36.2909 25.7305 38.5589 28.2865 42.4829 28.2865C44.6069 28.2865 46.3349 27.6385 47.6669 26.3785V27.8545H53.3189V17.4145ZM47.1269 21.2665C47.1269 22.8865 45.9749 23.8945 44.3909 23.8945C43.2389 23.8945 42.5549 23.3545 42.5549 22.4905C42.5549 21.6265 43.1669 21.1225 44.2109 21.1225H47.1269V21.2665ZM57.1957 27.8545H63.3877V0.85449H57.1957V27.8545ZM67.4262 27.8545H73.6182V0.85449H67.4262V27.8545ZM94.5766 21.0145C94.8286 20.0425 94.9726 19.0345 94.9726 17.9545C94.9726 13.3105 91.5526 9.42249 86.3686 9.42249C81.0046 9.42249 76.7566 13.5625 76.7566 18.8545C76.7566 24.1825 81.0046 28.2865 86.8726 28.2865C89.5006 28.2865 91.9126 27.4945 94.0366 25.8745L91.8046 21.6625C90.2566 22.5985 88.7086 23.0665 87.0886 23.0665C85.0726 23.0665 83.7406 22.3825 83.0566 21.0145H94.5766ZM82.8406 16.9825C83.3086 15.2545 84.5686 14.2825 86.1166 14.2825C87.7366 14.2825 89.0686 15.3625 89.1046 16.9825H82.8406ZM108.486 22.7425C106.218 22.7425 105.39 22.0945 105.39 20.3665V15.0385H110.214V9.85449H105.39V5.53449H99.1976V9.85449H96.4616V15.0385H99.1976V20.9785C99.1976 25.8385 102.042 28.2865 107.118 28.2865C108.342 28.2865 109.566 28.1425 110.754 27.8545V22.6705L108.486 22.7425Z" fill="#127384"/>
</svg>
