<svg width="24" height="25" viewBox="0 0 24 25" fill="none" xmlns="http://www.w3.org/2000/svg">
<path d="M10 18.1069C11.775 18.1066 13.4988 17.5124 14.897 16.4189L19.293 20.8149L20.707 19.4009L16.311 15.0049C17.405 13.6066 17.9996 11.8824 18 10.1069C18 5.69593 14.411 2.10693 10 2.10693C5.589 2.10693 2 5.69593 2 10.1069C2 14.5179 5.589 18.1069 10 18.1069ZM10 4.10693C13.309 4.10693 16 6.79793 16 10.1069C16 13.4159 13.309 16.1069 10 16.1069C6.691 16.1069 4 13.4159 4 10.1069C4 6.79793 6.691 4.10693 10 4.10693Z" fill="#74788D"/>
<path d="M11.4118 8.69302C11.7908 9.07302 11.9998 9.57502 11.9998 10.107H13.9998C14.0007 9.58145 13.8974 9.06091 13.6959 8.5755C13.4944 8.0901 13.1987 7.64944 12.8258 7.27902C11.3118 5.76702 8.68683 5.76702 7.17383 7.27902L8.58583 8.69502C9.34583 7.93702 10.6558 7.93902 11.4118 8.69302Z" fill="#74788D"/>
</svg>
