<svg width="42" height="48" viewBox="0 0 42 48" fill="none" xmlns="http://www.w3.org/2000/svg">
<path d="M7.86309 1.01021C7.10692 1.26672 6.42278 2.00666 6.20673 2.8058C5.99969 3.5556 5.99069 11.0241 6.19773 11.3496C6.49479 11.8133 7.23295 11.7048 7.40399 11.1622C7.458 10.9945 7.50301 10.2446 7.50301 9.49484V8.12349H20.4208H33.3385V11.1128C33.3385 13.9542 33.3475 14.1219 33.5096 14.2798C33.7706 14.5363 34.3287 14.5166 34.5268 14.2403C34.6798 14.0331 34.6888 13.6681 34.6888 8.67598C34.6888 2.60848 34.6888 2.61834 34.0317 1.83894C33.8336 1.60216 33.5006 1.30619 33.2935 1.1878L32.9334 0.970748L20.5108 0.951015C13.6783 0.94115 7.98911 0.970748 7.86309 1.01021ZM32.6094 2.57888C33.2305 2.92419 33.2935 3.11164 33.3295 4.97628L33.3565 6.64361H20.4298H7.50301V4.92695C7.50301 3.31882 7.51201 3.20043 7.70105 2.94392C8.10614 2.38156 7.458 2.41116 20.3758 2.4013C31.5561 2.4013 32.3213 2.41116 32.6094 2.57888Z" fill="white"/>
<path d="M19.8786 3.98006C19.6356 4.27604 19.6536 4.84826 19.9146 5.07517C20.3557 5.4698 21.0939 5.1245 21.0939 4.52268C21.0939 3.911 20.2477 3.5361 19.8786 3.98006Z" fill="white"/>
<path d="M1.17274 13.1649L0.929688 13.3622V20.1598V26.9573L1.12773 27.1053C1.30777 27.2435 1.99191 27.2632 6.79894 27.2632C12.1551 27.2632 12.2721 27.2632 12.4521 27.0659C12.6322 26.8685 12.6322 26.7403 12.6322 20.1696C12.6322 13.7272 12.6232 13.4609 12.4611 13.2438L12.2901 13.007L6.85295 12.9774C1.4428 12.9577 1.40679 12.9577 1.17274 13.1649ZM4.17038 16.4897C4.17038 18.2359 4.18838 18.4727 4.33241 18.601C4.64748 18.9068 4.85452 18.8969 5.81773 18.5023L6.75393 18.1274L7.71713 18.5023C9.33748 19.1337 9.39149 19.0647 9.39149 16.4403V14.5362H10.3367H11.2819V20.1598V25.7833H6.78094H2.27998V20.1598V14.5362H3.22518H4.17038V16.4897ZM8.0412 15.7596V16.9928L7.41107 16.7363L6.78094 16.4798L6.1508 16.7363L5.52067 16.9928V15.7596V14.5362H6.78094H8.0412V15.7596Z" fill="white"/>
<path d="M4.48694 23.0409C4.22589 23.1987 4.17188 23.3171 4.17188 23.7216C4.17188 24.3925 4.21688 24.4023 6.76443 24.4023C8.91589 24.4023 9.04191 24.3925 9.21295 24.205C9.48301 23.9091 9.456 23.3862 9.15894 23.1296C8.93389 22.9323 8.80786 22.9225 6.79143 22.9225C5.37813 22.9323 4.60397 22.9619 4.48694 23.0409Z" fill="white"/>
<path d="M32.7968 15.9272C31.9686 16.0654 30.9604 16.46 30.2312 16.9237C29.4751 17.4071 28.2868 18.6995 27.8547 19.5085C27.1706 20.7812 26.7835 22.567 26.8825 24.0468C26.9545 25.1419 27.1436 25.872 27.6387 26.9671C28.1878 28.1905 29.142 29.2659 30.2762 29.9269C31.5455 30.6668 31.7706 30.9727 32.4727 32.9557C33.1569 34.8598 33.2919 35.0571 33.931 35.0571C34.4261 35.0571 34.7592 34.8894 34.9122 34.5638C34.9752 34.4257 35.2363 33.7154 35.4974 32.9853C36.2265 30.8937 36.3525 30.7162 37.6578 29.9663C38.1529 29.6901 38.558 29.3448 39.1521 28.6937C39.8543 27.9241 40.0343 27.6676 40.3854 26.8685C40.9525 25.5662 41.1146 24.6881 41.0605 23.1293C41.0245 22.123 40.9705 21.7382 40.7725 21.0969C39.9713 18.5318 38.279 16.7856 35.9295 16.1048C35.1463 15.8779 33.607 15.7891 32.7968 15.9272ZM35.9295 17.7228C37.6128 18.374 38.7471 19.5677 39.4132 21.3929C39.7193 22.2315 39.8273 23.7706 39.6382 24.6881C39.2962 26.3949 38.2339 27.8551 36.6496 28.8022C35.4073 29.5421 34.9482 30.1834 34.3271 32.0283C34.1651 32.5019 34.003 32.857 33.967 32.8176C33.931 32.7781 33.787 32.4032 33.652 31.9987C33.3189 31.0023 32.8778 30.1439 32.4547 29.6704C32.2657 29.4533 31.7526 29.0587 31.3025 28.7923C28.98 27.3716 27.8457 24.8854 28.3408 22.2809C28.7729 20.0314 30.3483 18.2161 32.4007 17.5847C33.3369 17.2986 35.0293 17.3677 35.9295 17.7228Z" fill="white"/>
<path d="M32.913 20.2981C31.0676 20.9493 30.1854 23.3565 31.0766 25.3297C31.5807 26.4643 32.5169 27.1352 33.7231 27.2338C34.4163 27.293 35.1904 27.1154 35.6675 26.7997C36.1086 26.4939 36.6848 25.8329 36.8918 25.379C37.5489 23.988 37.2789 22.0641 36.2887 21.0973C35.6675 20.4757 35.0374 20.2192 34.1012 20.1896C33.6061 20.1699 33.147 20.2192 32.913 20.2981ZM34.8304 21.8865C35.0824 22.0246 35.3615 22.2516 35.4605 22.3996C36.0726 23.3171 35.9466 24.57 35.1814 25.2606C33.8041 26.5037 31.7697 25.162 32.1568 23.2579C32.4359 21.926 33.7051 21.2748 34.8304 21.8865Z" fill="white"/>
<path d="M6.24862 28.9011C5.99657 29.2464 6.01457 29.5818 6.28463 29.8778C6.74373 30.3908 7.40987 30.0751 7.40987 29.3549C7.40987 28.8814 7.19383 28.6446 6.75273 28.6446C6.50968 28.6446 6.38365 28.7136 6.24862 28.9011Z" fill="white"/>
<path d="M6.36953 31.5843C6.00046 31.8506 6.01846 32.5807 6.38754 32.8471C6.6576 33.0444 7.19771 32.9556 7.32374 32.6892C7.46777 32.3933 7.43176 31.8506 7.25172 31.6731C7.08069 31.5053 6.54957 31.4461 6.36953 31.5843Z" fill="white"/>
<path d="M6.4202 34.3964C5.90709 34.6825 6.01512 35.6099 6.58224 35.7875C7.01433 35.9157 7.3564 35.6296 7.39241 35.087C7.41942 34.7516 7.38341 34.6529 7.17636 34.4753C6.89731 34.2385 6.73527 34.2188 6.4202 34.3964Z" fill="white"/>
<path d="M6.28821 37.3757C5.84712 37.8492 6.14418 38.6089 6.77432 38.6089C7.19741 38.6089 7.41345 38.3721 7.41345 37.8887C7.41345 37.1882 6.72931 36.8824 6.28821 37.3757Z" fill="white"/>
<path d="M8.8971 37.2474C8.63604 37.4053 8.58203 37.5236 8.58203 37.9281C8.58203 38.3721 8.80708 38.6089 9.23917 38.6089C9.88731 38.6089 10.1664 37.8689 9.70727 37.3757C9.47322 37.1093 9.18516 37.0698 8.8971 37.2474Z" fill="white"/>
<path d="M11.2212 37.3855C11.0322 37.5927 11.0052 37.7012 11.0502 37.9972C11.1132 38.4412 11.3022 38.6089 11.7343 38.6089C12.2384 38.6089 12.5265 38.1649 12.3555 37.642C12.1844 37.1093 11.5993 36.981 11.2212 37.3855Z" fill="white"/>
<path d="M13.8463 37.2474C13.5853 37.4053 13.5312 37.5236 13.5312 37.9281C13.5312 38.3721 13.7563 38.6089 14.1884 38.6089C14.8365 38.6089 15.1156 37.8689 14.6565 37.3757C14.4224 37.1093 14.1344 37.0698 13.8463 37.2474Z" fill="white"/>
<path d="M16.1989 37.3559C15.9468 37.6322 15.9018 37.9084 16.0639 38.2439C16.2079 38.5398 16.3159 38.6089 16.694 38.6089C17.0991 38.6089 17.3151 38.3622 17.3151 37.9084C17.3151 37.4447 17.1531 37.2375 16.757 37.1685C16.4869 37.1191 16.3879 37.1487 16.1989 37.3559Z" fill="white"/>
<path d="M18.7994 37.2474C18.5384 37.4053 18.4844 37.5236 18.4844 37.9281C18.4844 38.3721 18.7094 38.6089 19.1415 38.6089C19.7897 38.6089 20.0687 37.8689 19.6096 37.3757C19.3756 37.1093 19.0875 37.0698 18.7994 37.2474Z" fill="white"/>
<path d="M21.3025 37.2277C20.9064 37.4053 20.7894 38.0762 21.0955 38.4116C21.3295 38.6682 21.9056 38.678 22.1127 38.4314C22.2657 38.2439 22.3197 37.6618 22.1937 37.4645C22.1127 37.3264 21.7706 37.1291 21.6176 37.1389C21.5546 37.1389 21.4105 37.1784 21.3025 37.2277Z" fill="white"/>
<path d="M23.7487 37.2474C23.4876 37.4053 23.4336 37.5236 23.4336 37.9281C23.4336 38.3721 23.6586 38.6089 24.0727 38.6089C24.4958 38.6089 24.6849 38.4313 24.7479 37.9972C24.8469 37.3757 24.2528 36.9317 23.7487 37.2474Z" fill="white"/>
<path d="M26.0898 37.3757C25.6217 37.8788 25.9098 38.6089 26.5669 38.6089C26.999 38.6089 27.2151 38.3721 27.2151 37.9084C27.2151 37.5138 27.152 37.3954 26.882 37.2375C26.5759 37.0698 26.3239 37.1093 26.0898 37.3757Z" fill="white"/>
<path d="M28.6979 37.2474C28.4368 37.4053 28.3828 37.5236 28.3828 37.9281C28.3828 38.3721 28.6079 38.6089 29.04 38.6089C29.6431 38.6089 29.9491 37.9281 29.5801 37.4349C29.382 37.1783 28.9409 37.0895 28.6979 37.2474Z" fill="white"/>
<path d="M31.0429 37.3757C30.5748 37.8788 30.8629 38.6089 31.52 38.6089C31.9521 38.6089 32.1682 38.3721 32.1682 37.9084C32.1682 37.5138 32.1052 37.3954 31.8351 37.2375C31.529 37.0698 31.277 37.1093 31.0429 37.3757Z" fill="white"/>
<path d="M33.651 37.2474C33.3899 37.4053 33.3359 37.5236 33.3359 37.9281C33.3359 38.3721 33.561 38.6089 33.9931 38.6089C34.6412 38.6089 34.9203 37.8689 34.4612 37.3757C34.2271 37.1093 33.9391 37.0698 33.651 37.2474Z" fill="white"/>
<path d="M6.28755 40.2368L6.0625 40.4736V42.9795C6.0625 45.8899 6.12551 46.255 6.71964 46.9653C6.91768 47.2021 7.25075 47.4981 7.4578 47.6164L7.81787 47.8335H20.3756H32.9332L33.2933 47.6164C33.5004 47.4981 33.8334 47.2021 34.0315 46.9653C34.6256 46.255 34.6886 45.8899 34.6886 42.9795V40.4736L34.4636 40.2368C34.2205 39.9605 33.8244 39.9112 33.5544 40.1283C33.3923 40.2565 33.3833 40.444 33.3383 42.8808C33.2933 45.3374 33.2843 45.515 33.1043 45.7814C33.0052 45.9294 32.7802 46.1366 32.6092 46.2254C32.3211 46.3931 31.5559 46.4029 20.3936 46.4029C7.4578 46.4029 8.10594 46.4325 7.70085 45.8603C7.51181 45.5939 7.50281 45.4953 7.50281 43.1965C7.50281 40.7301 7.4488 40.2664 7.14273 40.0888C6.85467 39.9211 6.5126 39.9803 6.28755 40.2368Z" fill="white"/>
<path d="M16.5953 43.1176C16.3613 43.4431 16.4063 43.897 16.6943 44.1535C16.8654 44.3212 17.1804 44.3311 20.3941 44.3311H23.8959L24.1119 44.0844C24.382 43.7884 24.4 43.453 24.1479 43.1077L23.9679 42.8512H20.3761H16.7843L16.5953 43.1176Z" fill="white"/>
</svg>
