<svg width="45" height="46" viewBox="0 0 45 46" fill="none" xmlns="http://www.w3.org/2000/svg">
<path d="M15.3809 0.578972C15.4603 0.667216 15.628 1.01137 15.7515 1.34669C16.2457 2.66153 16.6075 3.03215 17.8606 3.5175C18.6812 3.82635 18.8489 3.95871 18.9283 4.30287C19.0254 4.74409 18.7871 5.04411 18.1606 5.27355C16.6957 5.81184 16.228 6.24423 15.7868 7.48847C15.4868 8.33561 15.3103 8.53857 14.8691 8.53857C14.4632 8.53857 14.2514 8.33561 14.0308 7.72673C13.5013 6.28835 13.1307 5.89126 11.86 5.39709C11.4099 5.22943 10.9863 5.01764 10.9246 4.94705C10.7569 4.74409 10.7834 4.1705 10.9775 3.95871C11.0658 3.86165 11.3834 3.70281 11.6835 3.59691C12.4247 3.34983 13.0954 2.95273 13.3689 2.59093C13.5013 2.42327 13.7396 1.93793 13.9072 1.51436C14.0749 1.09079 14.269 0.667216 14.3573 0.578972C14.5514 0.367187 15.1868 0.358362 15.3809 0.578972ZM13.8455 4.21462L13.5101 4.45288L13.8984 4.73526C14.1102 4.88528 14.419 5.19413 14.5691 5.40592L14.8514 5.79419L15.1338 5.42356C15.3632 5.12353 15.7162 4.80586 16.131 4.52348C16.1398 4.51465 15.8662 4.2058 15.5133 3.85282L14.8691 3.19099L14.5249 3.57927C14.3308 3.79988 14.0219 4.08226 13.8455 4.21462Z" fill="white"/>
<path d="M3.81825 1.37293C3.89767 1.45235 4.08298 1.82297 4.22417 2.18477C4.55067 2.98779 4.87718 3.30547 5.6802 3.58785C6.53616 3.88788 6.77442 4.26733 6.48322 4.83209C6.38615 5.0174 6.20083 5.14094 5.72432 5.31743C4.85953 5.65276 4.56832 5.93514 4.233 6.75581C3.92414 7.50588 3.71236 7.74414 3.35056 7.74414C2.96228 7.74414 2.6799 7.44411 2.424 6.76463C2.12397 5.97926 1.77981 5.62629 1.04739 5.37038C0.306141 5.10565 0.0855317 4.89386 0.0855317 4.47029C0.0855317 4.02907 0.279668 3.83493 1.02092 3.56138C1.79746 3.27017 2.12397 2.94367 2.424 2.14065C2.54754 1.7965 2.73285 1.45235 2.83874 1.36411C3.077 1.16114 3.63294 1.16997 3.81825 1.37293ZM2.99758 4.77032L3.32408 5.10565L3.65059 4.77914L3.97709 4.45264L3.65941 4.11732L3.33291 3.79081L2.99758 4.11732L2.67108 4.43499L2.99758 4.77032Z" fill="white"/>
<path d="M8.09258 5.64437C8.28672 5.74144 8.41909 5.97087 8.69264 6.7033C8.88678 7.23276 9.33682 7.68281 9.86629 7.87694C10.6164 8.15932 10.8281 8.28286 10.934 8.50347C11.1811 9.04176 10.9252 9.40356 10.0516 9.73006C9.26623 10.0301 8.91325 10.3831 8.64852 11.1067C8.38379 11.8391 8.13671 12.1038 7.72196 12.095C7.28957 12.0862 7.13073 11.9097 6.83952 11.1773C6.51302 10.3301 6.29241 10.1007 5.48939 9.77419C4.60695 9.40356 4.50106 9.30649 4.50106 8.84763C4.50106 8.39758 4.63342 8.25639 5.3835 7.96519C6.23946 7.62986 6.4689 7.40925 6.7954 6.62388C6.94541 6.24443 7.13955 5.86498 7.21897 5.78556C7.41311 5.59142 7.8455 5.51201 8.09258 5.64437ZM7.38663 9.17413L7.71314 9.50946L8.04846 9.18295L8.38379 8.85645L8.05729 8.52112L7.73078 8.1858L7.39546 8.5123L7.06013 8.8388L7.38663 9.17413Z" fill="white"/>
<path d="M26.1643 10.7974C29.3323 10.9651 33.365 11.4504 34.371 11.7857C35.2358 12.0681 36.1977 12.7035 36.7889 13.3741C37.3448 13.9918 37.7155 14.7066 38.6508 16.9392C39.0568 17.901 39.4097 18.6864 39.4362 18.6864C39.4627 18.6864 39.5774 18.5452 39.6833 18.3776C39.9304 17.9981 40.4687 17.7157 40.9364 17.7157C41.4482 17.7157 43.8484 18.1481 44.122 18.2893C44.422 18.4482 44.8015 18.8541 44.9073 19.1541C45.0309 19.4718 45.0309 20.5484 44.9073 20.866C44.8015 21.1661 44.422 21.572 44.122 21.7308C43.9984 21.7926 43.4248 21.9426 42.8424 22.075C42.26 22.2073 41.7306 22.3309 41.6688 22.3485C41.5982 22.375 41.7659 22.7015 42.1365 23.2751C42.8601 24.387 43.1513 24.9782 43.469 25.9224L43.7249 26.6725L43.7513 31.9054C43.769 36.3793 43.7602 37.2176 43.6455 37.6677C43.1954 39.4237 41.9423 40.6327 40.0981 41.1004C39.4274 41.2769 39.0479 41.2769 22.5022 41.2769C5.95648 41.2769 5.57703 41.2769 4.90637 41.1004C3.06208 40.6327 1.80901 39.4237 1.35897 37.6677C1.24425 37.2176 1.23543 36.3793 1.25307 31.9054L1.27955 26.6725L1.53546 25.9224C1.85313 24.9782 2.22376 24.2458 2.90324 23.2045C3.24739 22.675 3.40623 22.375 3.33563 22.3485C3.27386 22.3309 2.75322 22.2162 2.17081 22.0838C1.01482 21.8367 0.776558 21.7308 0.423584 21.3602C0.0970802 21.0161 1.14441e-05 20.716 1.14441e-05 20.0101C1.14441e-05 19.6747 0.0441322 19.2953 0.0970802 19.1541C0.202972 18.8541 0.58242 18.4482 0.891277 18.2893C1.23543 18.104 3.76803 17.6893 4.25337 17.7334C4.71224 17.7775 5.2417 18.1217 5.40054 18.4746C5.45349 18.5893 5.52408 18.6864 5.55938 18.6864C5.59468 18.6864 5.94765 17.901 6.35357 16.9392C7.28896 14.7066 7.65958 13.9918 8.21552 13.3741C8.83323 12.6682 9.82156 12.0328 10.704 11.7593C11.6482 11.4769 13.8014 11.1857 16.9428 10.9121C18.0282 10.8239 24.9466 10.7356 26.1643 10.7974ZM18.443 12.3329C15.7692 12.4917 12.716 12.827 11.5776 13.0917C10.5452 13.3212 9.60978 13.9654 8.98324 14.8655C8.84205 15.0772 8.22435 16.445 7.59781 17.9099L6.46829 20.5837L5.06521 22.7015C2.6738 26.3283 2.73557 26.1166 2.73557 30.7052V34.0409H21.7963H40.8658L41.0776 34.2615C41.3776 34.5527 41.3776 35.0292 41.0776 35.3204L40.8658 35.541H21.7874H2.71793L2.75322 36.4411C2.77969 37.1294 2.83264 37.4559 2.98265 37.7824C3.25621 38.3913 3.69743 38.8943 4.24454 39.2208C5.2417 39.812 4.03276 39.7767 22.5022 39.7767C40.9717 39.7767 39.7627 39.812 40.7599 39.2208C41.307 38.8943 41.7394 38.4001 42.0218 37.7824C42.2247 37.35 42.2247 37.3324 42.2512 32.373C42.2777 25.9312 42.3924 26.4342 40.1598 23.028L38.9862 21.2455H23.4641H7.93314L7.72136 21.0249C7.43898 20.7513 7.43898 20.363 7.71253 20.0365L7.92432 19.7895L23.0229 19.763C31.4501 19.7542 38.1214 19.71 38.1214 19.6659C38.1214 19.4806 36.233 15.1743 36.0035 14.8478C35.6594 14.3448 34.9181 13.6918 34.3975 13.4271C33.8416 13.1447 33.1709 12.9947 31.459 12.7829C30.0824 12.6152 27.2674 12.3593 26.1202 12.3064C24.6554 12.2358 19.749 12.2534 18.443 12.3329ZM40.6363 19.8865C40.3451 20.5131 40.3363 20.566 40.4687 20.769C40.5481 20.8837 40.6805 20.9808 40.7599 20.9808C40.8393 20.9808 41.4747 20.8484 42.1806 20.6896L43.4601 20.3983V20.0101V19.6218L42.4012 19.4277C40.8393 19.1541 40.9893 19.11 40.6363 19.8865ZM2.64733 19.4188L1.54428 19.6218V20.0101V20.3983L2.82382 20.6896C3.52977 20.8484 4.16513 20.9808 4.23572 20.9808C4.31514 20.9808 4.43868 20.8749 4.50928 20.7337C4.64164 20.5042 4.64164 20.4689 4.35926 19.8512C4.14748 19.4012 4.01511 19.2159 3.90922 19.2159C3.82097 19.2247 3.25621 19.3129 2.64733 19.4188Z" fill="white"/>
<path d="M39.7964 25.5347C40.0964 25.6583 40.5112 26.1613 40.6524 26.576C40.8465 27.1584 40.8465 28.2085 40.6435 28.7998C40.4847 29.2939 40.0435 29.8057 39.6023 30.0352C39.364 30.1587 33.0722 31.1294 32.4898 31.1294C32.1898 31.1294 31.8544 30.7499 31.8544 30.4058C31.8544 29.8499 33.9193 26.4083 34.5018 26.0024C34.8724 25.7465 39.3375 25.3494 39.7964 25.5347ZM37.5462 27.0702C36.9638 27.1143 36.2225 27.1849 35.9048 27.2114L35.3312 27.2643L34.793 28.0762C34.5018 28.5174 34.2017 29.0027 34.1223 29.1439L33.9899 29.4175L36.3108 29.091C37.5903 28.9145 38.7198 28.738 38.8169 28.7027C39.1257 28.6056 39.2934 28.2526 39.3022 27.7055C39.311 26.9025 39.3728 26.9202 37.5462 27.0702Z" fill="white"/>
<path d="M7.76556 25.57C10.0952 25.8083 10.3335 25.8524 10.6423 26.1171C11.2512 26.6554 13.1484 29.894 13.1484 30.4058C13.1484 30.7499 12.8131 31.1294 12.5131 31.1294C12.1954 31.1294 6.08892 30.2558 5.72712 30.1587C5.10059 29.991 4.5623 29.4351 4.35934 28.7468C4.03284 27.6702 4.22698 26.3995 4.81821 25.8259L5.12706 25.5259L6.07127 25.5083C6.59191 25.5083 7.35081 25.5347 7.76556 25.57ZM5.76242 27.0878C5.63888 27.2908 5.70065 28.1909 5.85067 28.4291C6.0448 28.7203 6.23894 28.7645 8.84213 29.1174L11.0129 29.4175L10.8806 29.1527C10.81 29.0027 10.5011 28.5174 10.2099 28.0673L9.67163 27.2643L8.95685 27.1937C6.38895 26.9643 5.85949 26.9466 5.76242 27.0878Z" fill="white"/>
<path d="M31.9092 26.2491C32.1651 26.302 32.3769 26.5403 32.4298 26.858C32.4651 27.0609 32.2621 27.5727 31.4768 29.2229C30.8326 30.5907 30.4002 31.3937 30.259 31.4908C30.0737 31.632 29.5178 31.6849 26.2616 31.8702L22.4847 32.0908L18.7167 31.8702C15.4428 31.6849 14.931 31.632 14.7369 31.4908C14.5957 31.3937 14.1721 30.5907 13.5191 29.2229C12.4602 26.9727 12.4161 26.7962 12.7955 26.4079C13.0073 26.205 13.0956 26.205 16.237 26.4432C20.0227 26.7344 22.1935 26.8315 23.6495 26.7697C24.9467 26.7079 30.8944 26.3108 31.4591 26.2402C31.6003 26.2226 31.8121 26.2314 31.9092 26.2491ZM28.2823 27.9875C23.2789 28.3669 21.7699 28.3669 16.6518 27.9875C15.637 27.9169 14.7634 27.8639 14.7016 27.8816C14.5163 27.9257 15.6017 30.1495 15.8311 30.2024C15.937 30.22 17.5078 30.3171 19.3256 30.4142L22.6347 30.5907L25.9615 30.3965C27.7882 30.2906 29.306 30.1759 29.3236 30.1583C29.3501 30.1318 29.606 29.6112 29.8972 28.9846L30.4355 27.8639H30.1972C30.0649 27.8639 29.2001 27.9257 28.2823 27.9875Z" fill="white"/>
<path d="M43.2919 40.2888C43.3978 40.3064 43.5566 40.3947 43.6448 40.5006C43.7949 40.6594 43.8125 40.8536 43.8125 42.5478C43.8125 44.401 43.8125 44.4098 43.5742 44.8069C43.4419 45.0451 43.2036 45.2834 42.9918 45.4069C42.6565 45.5922 42.5594 45.6011 40.2916 45.6011C37.7413 45.6011 37.6884 45.5922 37.2207 45.0981C36.8677 44.7275 36.7971 44.4451 36.7971 43.3509C36.7971 42.3713 36.8059 42.3449 37.0265 42.1684C37.3354 41.9213 37.6972 41.9301 37.9972 42.1949C38.2267 42.389 38.2443 42.4596 38.2796 43.2273C38.3061 43.7038 38.359 44.0833 38.4208 44.1186C38.5708 44.2245 41.9947 44.198 42.1888 44.1009C42.3477 44.0127 42.3565 43.898 42.3565 42.3449C42.3565 40.7388 42.3653 40.6859 42.5506 40.5094C42.7712 40.3153 43.0095 40.2447 43.2919 40.2888Z" fill="white"/>
<path d="M2.17766 40.289C2.29238 40.3066 2.46005 40.4213 2.55711 40.5449C2.71595 40.7567 2.7336 40.8979 2.7336 42.3715C2.7336 43.501 2.7689 44.0129 2.83949 44.0835C2.98951 44.2335 6.43985 44.2335 6.63398 44.0835C6.7487 43.9952 6.784 43.7746 6.81047 43.1481C6.83694 42.4068 6.85459 42.3009 7.04873 42.1509C7.33993 41.9127 7.80763 41.9303 8.07236 42.2039C8.28414 42.4068 8.29297 42.4774 8.29297 43.3687C8.29297 44.4894 8.14295 44.9041 7.62231 45.3012L7.29581 45.5571H4.76321H2.23061L1.91293 45.31C1.2864 44.8335 1.23346 44.6129 1.23346 42.5304C1.23346 40.7302 1.24228 40.6861 1.42759 40.5096C1.65703 40.3066 1.88646 40.2448 2.17766 40.289Z" fill="white"/>
</svg>
