<svg width="30" height="30" viewBox="0 0 30 30" fill="none" xmlns="http://www.w3.org/2000/svg">
<path d="M6.44531 23.9648V21.2109H1.52344V23.9648H6.44531Z" fill="#FF9307" stroke="#FF9307"/>
<path d="M28.4551 23.9648V21.2109H23.5332V23.9648H28.4551Z" fill="#FF9307" stroke="#FF9307"/>
<rect x="9.25781" y="18.2812" width="11.4844" height="1.69413" rx="0.847063" fill="#FF9307"/>
<path d="M5.33203 14.707L2.10938 14.3555V16.9922H5.85938L6.62109 16.2891L5.33203 14.707Z" fill="#FF9307"/>
<path d="M24.668 14.707H27.7148V16.9922H24.2578L23.2031 16.2891L24.668 14.707Z" fill="#FF9307"/>
<path d="M5.33203 14.707L2.10938 14.3555V16.9922H5.85938L6.62109 16.2891L5.33203 14.707Z" stroke="#FF9307"/>
<path d="M24.668 14.707H27.7148V16.9922H24.2578L23.2031 16.2891L24.668 14.707Z" stroke="#FF9307"/>
<path d="M9.19925 5.63086C8.74808 5.71875 8.1973 6.02929 7.8223 6.41015C7.50589 6.73242 7.36527 6.97851 6.33402 8.96484C5.71292 10.1719 5.17972 11.1797 5.16214 11.2031C5.1387 11.2266 4.78714 11.1562 4.37699 11.0449C3.51566 10.8105 3.24027 10.793 2.61331 10.957C1.48831 11.2441 0.609407 12.0352 0.175814 13.1543C-0.0292646 13.6758 -0.0292646 14.6719 0.164095 18.3809C0.328157 21.5449 0.328157 21.5566 0.468782 21.709C0.550814 21.7969 0.668001 21.8555 0.76761 21.8555H0.931673L0.949251 22.998C0.966829 24.0937 0.972689 24.1406 1.10159 24.2695L1.23636 24.4043H3.95511C6.64456 24.4043 6.67972 24.4043 6.80277 24.2812C6.93753 24.1406 7.0137 23.6016 6.94925 23.2383C6.83206 22.6289 6.0762 22.6406 5.9473 23.25L5.90628 23.4375H3.91995H1.93363V22.6465V21.8555H15H28.0664V22.6465V23.4375H26.0801H24.0938L24.0528 23.25C23.9883 22.9629 23.8067 22.793 23.5547 22.793C23.1446 22.793 22.9805 23.1152 23.045 23.8008C23.0684 24.0527 23.1094 24.1934 23.1973 24.2812C23.3203 24.4043 23.3555 24.4043 26.045 24.4043H28.7637L28.8985 24.2695C29.0274 24.1406 29.0332 24.0937 29.0508 22.998L29.0684 21.8555H29.2325C29.3321 21.8555 29.4492 21.7969 29.5313 21.709C29.6719 21.5566 29.6719 21.5449 29.836 18.3809C30.0293 14.6719 30.0293 13.6758 29.8242 13.1543C29.3907 12.0352 28.5117 11.2441 27.3867 10.957C26.7598 10.793 26.4844 10.8105 25.6231 11.0449C25.2129 11.1562 24.8614 11.2266 24.8379 11.2031C24.8203 11.1797 24.2871 10.1719 23.666 8.96484C22.6348 6.97851 22.4942 6.73242 22.1778 6.41015C21.7852 6.01172 21.252 5.71875 20.7481 5.625C20.3555 5.55469 9.58011 5.55469 9.19925 5.63086ZM20.918 6.75C21.0938 6.83789 21.3399 7.00781 21.4571 7.13086C21.5977 7.27734 22.0489 8.08008 22.752 9.43359C23.3496 10.5762 23.8301 11.5195 23.8184 11.5312C23.8125 11.543 23.5313 11.625 23.1973 11.7187C22.5235 11.9062 22.3243 12.0527 22.3243 12.3691C22.3243 12.6035 22.5528 12.832 22.793 12.832C22.8985 12.832 23.795 12.6094 24.791 12.3281C26.5489 11.8418 26.6075 11.8301 26.9356 11.8887C27.8614 12.0586 28.6348 12.7676 28.9219 13.7051C29.0332 14.0684 29.0274 14.4023 28.8575 17.6953C28.7754 19.2598 28.711 20.6074 28.711 20.6953V20.8594H15H1.28909V20.6953C1.28909 20.6074 1.22464 19.2598 1.14261 17.6953C0.972689 14.4023 0.966829 14.0684 1.07816 13.7051C1.36527 12.7676 2.1387 12.0586 3.06449 11.8887C3.39261 11.8301 3.4512 11.8418 5.20902 12.3281C6.20511 12.6094 7.10159 12.832 7.20706 12.832C7.4473 12.832 7.67581 12.6035 7.67581 12.3691C7.67581 12.0527 7.47659 11.9062 6.80277 11.7187C6.46878 11.625 6.18753 11.543 6.18167 11.5312C6.14066 11.4902 8.34378 7.34179 8.48441 7.18945C8.71878 6.9375 8.93558 6.79687 9.27542 6.67383C9.56839 6.56836 9.81449 6.56836 15.0879 6.58008L20.5957 6.59179L20.918 6.75Z" fill="#201F1D"/>
<path d="M8.87653 11.8887C8.54254 12.0293 8.48395 12.5332 8.77692 12.75C8.9234 12.8672 21.0757 12.8672 21.2222 12.75C21.4566 12.5742 21.4742 12.1699 21.2574 11.9707C21.1461 11.8711 20.8355 11.8652 15.064 11.8535C11.7242 11.8477 8.94098 11.8652 8.87653 11.8887Z" fill="#201F1D"/>
<path d="M2.02197 14.1562C1.76416 14.4375 1.88721 14.8887 2.24463 14.9707C2.31494 14.9883 2.85987 15.0059 3.45752 15.0117C4.48877 15.0293 4.55908 15.0352 4.86963 15.1816C5.05127 15.2695 5.29151 15.4336 5.40869 15.5508C5.61377 15.7559 5.85987 16.1543 5.85987 16.2891C5.85987 16.3301 5.27393 16.3477 4.08447 16.3477C2.3794 16.3477 2.30322 16.3535 2.18018 16.4648C1.93994 16.6875 1.9458 17.0039 2.18604 17.2266C2.30322 17.3379 2.40283 17.3438 4.48877 17.3438H6.6626L6.8208 17.1914C7.00244 17.0039 7.02002 16.6992 6.8794 16.1543C6.74463 15.6211 6.52783 15.2461 6.1294 14.8477C5.42627 14.1445 4.95166 14.0039 3.32276 14.0039H2.1626L2.02197 14.1562Z" fill="#201F1D"/>
<path d="M25.1548 14.0918C24.6567 14.2266 24.2583 14.4609 23.8716 14.8477C23.4731 15.2461 23.2563 15.6211 23.1216 16.1543C22.9809 16.6992 22.9985 17.0039 23.1802 17.1914L23.3384 17.3438H25.5122C27.5981 17.3438 27.6977 17.3379 27.8149 17.2266C28.0552 17.0039 28.061 16.6875 27.8208 16.4648C27.6977 16.3535 27.6216 16.3477 25.9165 16.3477C24.727 16.3477 24.1411 16.3301 24.1411 16.2891C24.1411 16.1543 24.3872 15.7559 24.5923 15.5508C24.7095 15.4336 24.9497 15.2695 25.1313 15.1816C25.4419 15.0352 25.5122 15.0293 26.5434 15.0117C27.1411 15.0059 27.686 14.9883 27.7563 14.9707C28.1137 14.8887 28.2368 14.4375 27.979 14.1562L27.8384 14.0039L26.6489 14.0098C25.8227 14.0098 25.3657 14.0391 25.1548 14.0918Z" fill="#201F1D"/>
<path d="M12.1521 14.4375C11.7654 14.6074 11.7947 15.1992 12.1873 15.334C12.4802 15.4336 17.5193 15.4336 17.8123 15.334C18.2166 15.1934 18.2341 14.6016 17.8357 14.4375C17.5545 14.3203 12.4216 14.3203 12.1521 14.4375Z" fill="#201F1D"/>
<path d="M9.52148 17.7656C9.27539 17.8945 9.25781 17.9824 9.25781 18.8496C9.25781 19.6641 9.26367 19.6992 9.4043 19.834C9.58594 20.0215 9.84375 20.0215 10.0605 19.8398C10.2129 19.7051 10.2246 19.6582 10.248 19.1953L10.2656 18.6914H15H19.7344L19.752 19.1953C19.7754 19.6582 19.7871 19.7051 19.9395 19.8398C20.1562 20.0215 20.4141 20.0215 20.5957 19.834C20.7363 19.6992 20.7422 19.6641 20.7422 18.873C20.7422 18.4219 20.7246 18.0117 20.707 17.959C20.6016 17.6894 20.6719 17.6953 14.9883 17.6953C11.2266 17.7012 9.60352 17.7187 9.52148 17.7656Z" fill="#201F1D"/>
<path d="M1.65192 8.9941C1.32966 9.13472 1.2652 9.58004 1.53473 9.82027C1.63434 9.91402 1.77497 9.9316 2.53669 9.94918C3.60895 9.97847 3.83747 9.92574 3.96052 9.63277C4.0777 9.35738 3.96052 9.06441 3.69098 8.97066C3.40387 8.87691 1.89216 8.88863 1.65192 8.9941Z" fill="#201F1D"/>
<path d="M26.2738 8.98822C26.0278 9.09955 25.9281 9.36908 26.0395 9.63861C26.1625 9.92572 26.3969 9.97845 27.4633 9.94916C28.225 9.93158 28.3656 9.914 28.4653 9.82025C28.7406 9.57416 28.6703 9.1347 28.3305 8.99408C28.0551 8.87689 26.5375 8.87689 26.2738 8.98822Z" fill="#201F1D"/>
</svg>
