<svg width="31" height="31" viewBox="0 0 31 31" fill="none" xmlns="http://www.w3.org/2000/svg">
<circle cx="14.619" cy="15.0001" r="2.11896" fill="#FF9307"/>
<circle cx="25.3709" cy="15.577" r="2.11896" fill="#FF9307"/>
<path d="M10.8879 19.4539L5.73145 17.696V28.9465H18.9742L30.2504 22.2498L29.4043 20.0399L25.4197 21.5634L20.9664 23.4385L11.4739 24.1416L17.9194 23.4385L17.3335 20.743L10.8879 19.4539Z" fill="#FF9307"/>
<path d="M3.57425 0.123194C3.26369 0.281404 2.9004 0.685717 2.8125 0.984557C2.76563 1.12519 2.74219 1.65255 2.74219 2.35571C2.74219 3.61552 2.7832 3.85577 3.11134 4.48275C3.30471 4.84604 3.88481 5.47302 4.0899 5.53748C4.20709 5.57263 4.20709 5.64295 4.20709 8.93019C4.20709 11.3092 4.22467 12.3463 4.27155 12.4811C4.31256 12.5866 4.61726 13.0436 4.95126 13.489C5.59582 14.3562 5.81262 14.5261 6.24038 14.532C6.68571 14.532 6.87321 14.3855 7.51191 13.5417C7.84591 13.1022 8.14475 12.6862 8.17991 12.6159C8.22679 12.5339 8.25022 12.1706 8.25022 11.6315V10.7701L7.89279 10.3951L7.53535 10.0259L7.80489 9.72124C8.30296 9.17044 8.2971 8.79542 7.78145 8.29149L7.48847 8.00437L7.86935 7.61178L8.25022 7.21919V6.42814V5.63709L8.44945 5.50818C8.99439 5.17418 9.56864 4.3304 9.70927 3.64482C9.7913 3.25223 9.7913 1.33027 9.71513 1.04315C9.61551 0.697436 9.31081 0.34 8.95924 0.158352L8.63696 0.000142097H6.23452C3.90239 0.000142097 3.82036 0.00600147 3.57425 0.123194ZM8.57836 1.20136L8.73071 1.35371L8.70727 2.42016C8.68969 3.45145 8.68384 3.49833 8.52563 3.82061C8.28538 4.31282 7.81661 4.71127 7.30683 4.86948C6.95525 4.97495 6.78532 4.99253 6.09389 4.96909C5.37901 4.95152 5.25596 4.92808 4.96298 4.79331C4.55867 4.6058 4.20709 4.2718 3.99029 3.85577C3.83208 3.55107 3.82622 3.51591 3.80864 2.43774C3.7852 1.35957 3.79106 1.33027 3.91997 1.1955L4.04888 1.05487H6.24038H8.43187L8.57836 1.20136ZM7.19549 6.38712C7.19549 6.768 7.18963 6.77385 6.92595 7.03168C6.7736 7.17817 6.58023 7.41255 6.48648 7.55318C6.21108 7.98094 6.26381 8.2622 6.70329 8.73097L6.97869 9.02395L6.67985 9.34037C6.1642 9.88531 6.18764 10.1724 6.79118 10.8053L7.19549 11.233V11.7018V12.1706L6.72086 12.7975L6.24624 13.4245L5.75403 12.7682L5.26182 12.112V9.0591V6.00625H6.22866H7.19549V6.38712Z" fill="#201F1D"/>
<path d="M5.35608 2.17418C5.18029 2.37927 5.16857 2.51404 5.29163 2.74842C5.42054 3.00039 5.63734 3.05898 6.3405 3.03555C6.8913 3.01797 6.96748 3.00625 7.10225 2.87734C7.31905 2.67225 7.31905 2.28552 7.10225 2.11559C6.96162 2.00425 6.86786 1.99253 6.22916 1.99253H5.50843L5.35608 2.17418Z" fill="#201F1D"/>
<path d="M16.3665 5.05717C16.0208 5.19195 15.7571 5.39703 15.5872 5.67243C15.4876 5.82478 15.0715 6.62755 14.6614 7.45376L13.9055 8.96554H12.4933C10.8819 8.96554 10.6241 9.01241 10.2374 9.35813C9.76274 9.78588 9.74516 9.8562 9.72758 11.5613L9.71 13.0673L9.48148 13.1845C9.04786 13.4071 8.71973 13.9696 8.71973 14.5029C8.71973 15.0888 9.08302 15.6514 9.61039 15.8799C9.87993 16.0029 10.0381 16.0205 10.8702 16.0439L11.8195 16.0674L11.9953 16.4483C12.3703 17.251 13.1965 17.8604 14.0871 17.9893C15.2708 18.171 16.5013 17.5264 16.9994 16.46L17.1869 16.0557H19.9995H22.8121L23.0113 16.4658C23.527 17.5381 24.734 18.171 25.9235 17.9893C26.8084 17.8546 27.6287 17.2452 28.0037 16.4483L28.1795 16.0732L28.8944 16.0439C29.3807 16.0205 29.6854 15.9795 29.8436 15.915C30.1483 15.7861 30.4999 15.4463 30.6405 15.1474C30.7753 14.8603 30.787 14.204 30.6698 13.9169C30.5585 13.6532 30.1483 13.2138 29.9315 13.1259L29.7557 13.0555V11.5789V10.1023L29.6034 9.79174C29.4217 9.43431 29.0409 9.12374 28.66 9.02999C28.5252 8.99483 28.2264 8.96554 28.0037 8.96554H27.5877L26.7673 7.3307C26.322 6.42832 25.865 5.59626 25.7653 5.47907C25.6599 5.36187 25.4665 5.20952 25.3376 5.13921L25.0973 5.0103L20.8198 4.99858C17.6381 4.99272 16.4954 5.00444 16.3665 5.05717ZM20.2046 7.50063V8.96554H17.6556H15.1067L15.7806 7.62368C16.1497 6.88537 16.5072 6.22324 16.5833 6.15878C16.7064 6.04159 16.7708 6.03573 18.4584 6.03573H20.2046V7.50063ZM24.8805 6.12948C24.986 6.1998 26.3572 8.80733 26.3572 8.93624C26.3572 8.95382 25.2087 8.96554 23.8082 8.96554H21.2593V7.50063V6.03573H23.0055C24.4997 6.03573 24.7692 6.04745 24.8805 6.12948ZM12.2355 10.2898C12.2355 10.8406 12.0831 10.9519 11.3448 10.9578H10.7706V10.659C10.7706 10.407 10.7999 10.3367 10.9405 10.1902C11.1046 10.0261 11.1339 10.0203 11.673 10.0203H12.2355V10.2898ZM28.4608 10.1082C28.5545 10.155 28.6424 10.2371 28.6658 10.2839C28.6834 10.3367 28.701 10.9578 28.701 11.6668V12.9501H27.8865C27.1365 12.9501 27.0545 12.9384 26.8201 12.8094C26.0466 12.3758 25.0329 12.3758 24.1774 12.8094C23.9078 12.9442 23.8551 12.9501 22.5777 12.9501H21.2593V12.1121C21.2534 11.5496 21.23 11.2508 21.1831 11.1863C20.9546 10.8933 20.5093 10.9051 20.3218 11.2098C20.2221 11.368 20.2046 11.5086 20.2046 12.1707V12.9501H18.1537H16.097L15.7923 12.7919C14.9661 12.3758 13.9406 12.3817 13.1789 12.8094C12.9328 12.9442 12.8801 12.9501 11.8488 12.9501H10.7706V12.4813V12.0125H11.4034C12.1593 12.0125 12.4699 11.9246 12.7863 11.6199C13.1144 11.2977 13.2375 11.0105 13.2726 10.4773L13.3078 10.0203H20.8022C27.2654 10.0203 28.3201 10.032 28.4608 10.1082ZM15.2239 13.7118C16.179 14.1923 16.4954 15.3232 15.9153 16.2022C15.5579 16.7354 14.8079 17.0635 14.2219 16.9405C13.2492 16.7295 12.6281 15.833 12.8215 14.913C12.9386 14.3388 13.4543 13.7704 14.0168 13.5946C14.3157 13.5009 14.9251 13.5595 15.2239 13.7118ZM26.2224 13.706C26.6033 13.8993 26.8669 14.1572 27.0427 14.5146C27.5818 15.6221 26.7439 16.9522 25.5017 16.958C25.0036 16.958 24.4528 16.6885 24.1598 16.3076C23.4098 15.3232 23.8551 13.9872 25.068 13.5888C25.3259 13.5009 25.9587 13.5653 26.2224 13.706ZM11.8839 14.3388C11.8253 14.5263 11.7609 14.749 11.7374 14.8369L11.7081 15.0009H10.9991C10.2374 15.0009 9.95025 14.9306 9.83305 14.708C9.72758 14.5146 9.81547 14.245 10.0264 14.1161C10.1905 14.0224 10.3311 14.0048 11.1046 14.0048H11.9894L11.8839 14.3388ZM22.8648 14.3974C22.7887 14.6201 22.7242 14.8427 22.7242 14.8955C22.7242 14.9951 22.5543 15.0009 20.0053 15.0009H17.2865L17.2455 14.749C17.222 14.6142 17.1576 14.3915 17.099 14.2509L16.9876 14.0048H19.9936H22.9996L22.8648 14.3974ZM29.5448 14.1747C29.7499 14.3681 29.7499 14.6376 29.5507 14.8251C29.4217 14.9482 29.328 14.9716 28.8534 14.9892L28.3026 15.0127L28.2381 14.7138C28.2029 14.5497 28.1326 14.3212 28.0857 14.204L27.9979 13.9931L28.6951 14.0165C29.3397 14.0341 29.4042 14.0458 29.5448 14.1747Z" fill="#201F1D"/>
<path d="M17.0111 11.028C16.7064 11.1921 16.642 11.6199 16.894 11.866C17.0287 12.0066 17.0697 12.0125 17.7612 12.0125C18.435 12.0125 18.4936 12.0007 18.6108 11.8777C18.6753 11.8074 18.7456 11.6785 18.769 11.5964C18.8218 11.3913 18.6636 11.0866 18.4702 11.0163C18.271 10.9401 17.1576 10.946 17.0111 11.028Z" fill="#201F1D"/>
<path d="M22.4838 11.0456C22.1791 11.2097 22.1439 11.6843 22.4193 11.8953C22.5424 11.9949 22.6537 12.0125 23.2514 12.0125C23.8491 12.0125 23.9604 11.9949 24.0835 11.8953C24.3647 11.6785 24.3237 11.2038 24.0073 11.0456C23.7846 10.9284 22.7006 10.9284 22.4838 11.0456Z" fill="#201F1D"/>
<path d="M1.74649 16.5534C1.38319 16.6706 1.08435 16.9343 0.902704 17.2976L0.750354 17.6023V23.2568C0.750354 29.6203 0.721056 29.1457 1.19568 29.6028C1.6 29.9895 1.67031 30.0012 3.48679 30.0012C4.99857 30.0012 5.13334 29.9895 5.37945 29.8782C5.52594 29.8137 5.69587 29.7082 5.76032 29.6496C5.87751 29.5383 6.0826 29.5325 12.5282 29.5207L19.1788 29.5032L19.6476 29.3391C20.1984 29.1399 19.9171 29.3039 25.5072 25.9054C29.1519 23.6904 30.0133 23.1396 30.2594 22.8818C30.6578 22.4658 30.775 22.1318 30.7399 21.4813C30.7106 20.9305 30.5816 20.6317 30.2242 20.2743C29.8609 19.911 29.5679 19.7879 28.9878 19.7586L28.4839 19.7352L23.6263 21.3524C20.6555 22.3427 18.6808 22.9697 18.5401 22.9697H18.3175L18.3585 22.7177C18.5577 21.5634 18.0186 20.4794 16.9229 19.8524C16.3545 19.5242 16.1729 19.5008 14.0224 19.4539C12.1707 19.4188 12.0008 19.407 11.6492 19.284C11.1746 19.1199 10.7469 18.8855 10.1902 18.4754C9.65696 18.0886 9.19991 17.866 8.51434 17.6667C8.07487 17.5378 7.82877 17.5027 7.06702 17.4792C6.21737 17.4499 6.1412 17.4382 6.10604 17.3269C6.04744 17.1452 5.67243 16.7585 5.41461 16.6237C5.18608 16.5007 5.09233 16.4948 3.59227 16.4831C2.35589 16.4714 1.95157 16.489 1.74649 16.5534ZM4.96342 17.6081C5.05717 17.655 5.14506 17.7371 5.1685 17.7839C5.18608 17.8367 5.20366 20.3094 5.20366 23.2802V28.6769L5.07475 28.8117C4.9517 28.9465 4.93998 28.9465 3.51023 28.9465C2.1215 28.9465 2.07463 28.9406 1.93986 28.8176L1.80508 28.6945V23.2802C1.80508 19.5594 1.82266 17.8249 1.86954 17.7488C1.9047 17.6843 1.98673 17.6081 2.05705 17.5788C2.12736 17.5495 2.77192 17.5261 3.49265 17.5261C4.5298 17.5202 4.8345 17.5378 4.96342 17.6081ZM7.74087 18.5808C8.32097 18.6687 8.96553 18.9324 9.45188 19.2781C10.196 19.8055 10.7351 20.0985 11.2977 20.286L11.8543 20.4735L13.8759 20.5086L15.8975 20.5379L16.2256 20.6962C17.128 21.1122 17.5967 22.0497 17.2569 22.747L17.1455 22.958L15.206 22.9814C13.2899 23.0048 13.2548 23.0107 12.745 23.1631C11.9598 23.4033 10.8992 23.9893 10.8054 24.2295C10.7351 24.4287 10.7762 24.669 10.9109 24.8272C11.1101 25.0557 11.4148 25.0498 11.7664 24.8096C12.1473 24.5459 12.6864 24.2822 13.0907 24.165C13.3895 24.0772 13.8231 24.0596 16.3076 24.0244L19.1788 23.9893L23.9251 22.3954C26.9018 21.3934 28.7534 20.8016 28.8999 20.8016C29.2105 20.8016 29.4859 20.9891 29.6441 21.3056C29.7554 21.5458 29.7613 21.5985 29.6968 21.8153C29.6617 21.9443 29.5504 22.12 29.4625 22.2021C29.1929 22.454 19.7238 28.173 19.3488 28.3195L19.003 28.4484L12.6336 28.466L6.25839 28.4836V23.4971V18.5164H6.79161C7.07874 18.5164 7.51235 18.5457 7.74087 18.5808Z" fill="#201F1D"/>
</svg>
