<svg width="31" height="24" viewBox="0 0 31 24" fill="none" xmlns="http://www.w3.org/2000/svg">
<path d="M15.3378 0.667967C15.2733 0.685545 15.0096 0.738279 14.7518 0.785154C12.2499 1.26562 10.035 3.21094 9.21472 5.64844C8.98621 6.31054 8.87488 6.86133 8.81043 7.62891L8.75769 8.24414L7.55652 10.2539C6.89441 11.3613 6.26746 12.3457 6.15613 12.4512C5.85144 12.75 5.57605 12.8086 3.9823 12.9375C2.1073 13.0898 2.04871 13.0957 1.62097 13.2891C1.0116 13.5645 0.566286 14.0508 0.361208 14.6777C0.261598 14.9766 0.24988 15.2227 0.24988 17.3906C0.24988 19.7754 0.24988 19.7754 0.384645 20.0332C0.478395 20.2031 0.61902 20.3496 0.80652 20.4668C1.08777 20.6426 1.08777 20.6426 2.20691 20.6719L3.32019 20.7012L3.38465 20.9707C3.48425 21.3574 3.71277 21.832 3.95886 22.1543L4.17566 22.4297H2.36511C0.62488 22.4297 0.554567 22.4355 0.402223 22.5527C0.208864 22.7051 0.185427 23.0684 0.367067 23.25C0.484255 23.3672 0.560427 23.3672 15.2499 23.3672C29.9393 23.3672 30.0155 23.3672 30.1327 23.25C30.2968 23.0859 30.2909 22.7227 30.1268 22.5703C30.0096 22.4648 29.8573 22.459 27.3964 22.4297L24.7889 22.4004L24.9823 22.166C25.205 21.8906 25.5331 21.1992 25.5858 20.8945L25.6268 20.6777L27.5194 20.6602L29.412 20.6426L29.6932 20.4668C29.8807 20.3496 30.0214 20.2031 30.1151 20.0332C30.2499 19.7754 30.2499 19.7578 30.2499 17.7715C30.2499 16.1133 30.2323 15.7148 30.1561 15.4512C29.828 14.332 28.955 13.4297 27.8768 13.0898C27.7186 13.0371 27.2557 12.9609 26.8632 12.9141C26.0253 12.8145 25.7206 12.6738 25.4628 12.2871C25.3632 12.1348 25.1522 11.4961 24.8475 10.4297C24.3553 8.68945 24.1796 8.25 23.7987 7.82226C23.5936 7.58789 23.5292 7.54687 23.3417 7.54687C22.9608 7.54687 22.8905 7.6875 22.8143 8.57812C22.7323 9.48047 22.5565 10.1602 22.1991 10.916C21.6073 12.1523 20.6464 13.1719 19.4452 13.8457C17.0487 15.1816 13.9432 14.8242 11.9393 12.9727L11.5878 12.6504L12.0682 12.6445C12.3319 12.6445 12.6132 12.6152 12.6952 12.5801C12.9823 12.4453 13.0292 12.0117 12.7772 11.7832C12.6776 11.6895 12.5311 11.6777 11.6932 11.6602C10.5917 11.6367 10.3749 11.6602 10.2108 11.8359C10.0995 11.9531 10.0936 12.0469 10.0936 13.1133C10.0936 14.2383 10.0936 14.2676 10.2284 14.3906C10.4159 14.5664 10.7382 14.5605 10.9022 14.3848C11.0077 14.2734 11.0311 14.1797 11.0311 13.8809V13.5059L11.2245 13.6641C12.4901 14.707 13.4686 15.1934 14.9042 15.498C15.6014 15.6445 17.0253 15.6387 17.7401 15.4922C20.494 14.918 22.6151 13.0078 23.4647 10.3359L23.6464 9.76172L24.0331 11.0977C24.4491 12.5391 24.5839 12.8379 25.0057 13.2246C25.369 13.5586 25.785 13.7402 26.3534 13.8164C27.7186 13.9922 28.1053 14.1387 28.5917 14.6543C28.9257 15.0059 29.1132 15.3398 29.2303 15.7793C29.3417 16.1777 29.3475 19.5 29.2421 19.6055C29.1893 19.6582 28.703 19.6758 27.4081 19.6758H25.6444L25.5214 19.248C24.8651 17.0273 22.035 16.2422 20.3241 17.8066C19.8143 18.2695 19.5214 18.7559 19.3514 19.4238L19.287 19.6758H15.2264C11.037 19.6758 10.8612 19.6875 10.7382 19.9102C10.6386 20.0977 10.6678 20.4082 10.8026 20.5312C10.9198 20.6367 11.0897 20.6426 15.1093 20.6602L19.2928 20.6719L19.328 20.8359C19.4335 21.334 19.6971 21.873 20.0077 22.2246L20.1835 22.4297H14.494H8.80457L9.0155 22.1543C9.46082 21.5684 9.68347 20.918 9.68347 20.1973C9.68347 19.2773 9.37879 18.5566 8.73425 17.9062C7.93152 17.1094 6.81238 16.8047 5.70496 17.0742C4.82019 17.291 4.0116 17.9414 3.63074 18.7383C3.51355 18.9785 3.40222 19.2891 3.37879 19.4238L3.33777 19.6758H2.32996C1.53308 19.6758 1.30457 19.6582 1.25183 19.5937C1.1991 19.5352 1.18738 18.9141 1.1991 17.2617C1.21668 14.7832 1.20496 14.8594 1.60925 14.4551C1.97254 14.0977 2.15418 14.0508 4.02918 13.8984C5.93933 13.7461 6.17957 13.6875 6.68933 13.2891C6.84754 13.1602 7.05847 12.9434 7.15222 12.8086C7.43347 12.3926 9.51941 8.88281 9.61316 8.66016C9.66004 8.54883 9.73621 8.09766 9.77722 7.65234C9.953 5.95312 10.5507 4.65234 11.6815 3.51562C13.8729 1.31836 17.2479 0.955076 19.8319 2.63672C20.1014 2.8125 20.5057 3.1289 20.7284 3.33398L21.1268 3.70898L20.5292 3.74414C20.0311 3.76758 19.9139 3.79687 19.8143 3.89648C19.6503 4.06054 19.6503 4.41211 19.8143 4.58203C19.9315 4.69922 20.0077 4.70508 21.0096 4.72265C21.5956 4.73437 22.1581 4.72851 22.2636 4.70508C22.5975 4.64648 22.6327 4.48828 22.6327 3.18164C22.6327 2.03906 22.6327 2.0332 22.4862 1.89258C22.3983 1.79883 22.2753 1.74609 22.1639 1.74609C22.0526 1.74609 21.9296 1.79883 21.8417 1.89258C21.7128 2.01562 21.6952 2.08594 21.6952 2.46094V2.88281L21.4491 2.64844C20.5175 1.75781 19.2225 1.07812 17.8866 0.779295C17.4589 0.679686 15.6132 0.603514 15.3378 0.667967ZM6.87683 17.9766C7.31629 18.0586 7.67371 18.2461 8.01941 18.5742C9.36121 19.8398 8.67566 22.0371 6.82996 22.3828C5.40027 22.6465 4.03504 21.2754 4.28699 19.8281C4.47449 18.7793 5.37097 17.9824 6.43738 17.9238C6.50769 17.918 6.70105 17.9473 6.87683 17.9766ZM22.8378 17.9824C23.5468 18.1113 24.1971 18.6094 24.496 19.2539C24.6366 19.5469 24.6542 19.6582 24.6542 20.1738C24.6542 20.7187 24.6425 20.7891 24.4608 21.1523C24.1444 21.7969 23.5468 22.2422 22.8378 22.377C21.5136 22.623 20.2303 21.5332 20.2303 20.1738C20.2303 19.1191 21.0096 18.1875 22.0643 17.9824C22.4159 17.9121 22.4511 17.9121 22.8378 17.9824Z" fill="#201F1D"/>
<path d="M5.9861 18.8145C5.00758 19.1836 4.73219 20.4551 5.47048 21.1934C5.75173 21.4746 6.07399 21.6094 6.49001 21.6094C7.09938 21.6094 7.63258 21.2461 7.84352 20.6953C7.96071 20.3906 7.93141 19.7988 7.79079 19.5234C7.6736 19.3008 7.36305 18.9902 7.13454 18.873C6.8943 18.7441 6.24977 18.7148 5.9861 18.8145ZM6.68923 19.7637C7.1404 19.9922 6.99391 20.6367 6.49001 20.6367C5.99196 20.6367 5.83962 20.0039 6.27907 19.7637C6.47243 19.6582 6.49001 19.6582 6.68923 19.7637Z" fill="#FF9307"/>
<path d="M21.9005 18.8497C21.338 19.1075 21.0333 19.5645 21.0391 20.168C21.0391 20.7715 21.3145 21.2286 21.8419 21.4688C22.3634 21.7149 22.9669 21.6446 23.3829 21.2813C24.1915 20.5899 24.0274 19.3243 23.0723 18.879C22.7091 18.709 22.2345 18.6973 21.9005 18.8497ZM22.6329 19.7344C22.7501 19.7344 22.9259 19.9981 22.9259 20.168C22.92 20.3731 22.838 20.502 22.6505 20.6016C22.463 20.7071 22.3692 20.6895 22.17 20.5196C22.0352 20.4083 21.9884 20.3204 21.9884 20.1797C21.9884 19.9219 22.2931 19.6407 22.504 19.711C22.5509 19.7227 22.6095 19.7344 22.6329 19.7344Z" fill="#FF9307"/>
<path d="M16.0938 3.46887C15.8711 3.56848 15.836 3.65051 15.836 4.10168V4.44739L15.6192 4.2716C15.1739 3.90832 14.7403 4.12512 14.7754 4.69934C14.7754 4.75793 15.0215 5.0509 15.3086 5.34387L15.836 5.88293V6.56848C15.836 7.17785 15.8477 7.26575 15.9532 7.37121C16.1348 7.55285 16.4981 7.52942 16.6504 7.33606C16.7559 7.20129 16.7735 7.09582 16.7735 6.53918V5.89465L17.3008 5.32629C17.8926 4.68176 17.9571 4.50598 17.6817 4.23645C17.4825 4.03137 17.2364 4.04309 16.9786 4.2716L16.7735 4.45325V4.10168C16.7735 3.81457 16.75 3.71496 16.6446 3.59778C16.4688 3.41028 16.3165 3.37512 16.0938 3.46887Z" fill="#FF9307"/>
<path d="M13.5449 4.9746C13.4395 5.08007 13.4219 5.15038 13.4453 5.4082L13.4688 5.71288L13.1992 5.54296C12.8477 5.32617 12.5371 5.33203 12.3613 5.5664C12.168 5.82421 12.2617 6.08788 12.6191 6.32226C12.9121 6.50976 12.9238 6.60351 12.6543 6.60937C12.4902 6.60937 12.2617 6.87304 12.2617 7.0664C12.2617 7.16015 12.3145 7.30663 12.3848 7.39453C12.5371 7.58203 12.6719 7.58788 13.5098 7.42382L14.1367 7.29492L14.5352 7.55859C14.752 7.70507 15.0156 7.86913 15.127 7.92187C15.4668 8.10351 15.8359 7.91601 15.8359 7.57031C15.8359 7.26562 15.7891 7.21288 15.2148 6.83788C14.6113 6.44531 14.6465 6.5039 14.4531 5.61328C14.3242 5.00976 14.207 4.85156 13.8965 4.85156C13.7441 4.85156 13.627 4.89257 13.5449 4.9746Z" fill="#FF9307"/>
<path d="M18.5664 5.10352C18.4434 5.22656 18.3086 5.5957 18.1152 6.31641C18.0508 6.56836 18.0215 6.59766 17.5293 6.86719C16.873 7.23047 16.7734 7.32422 16.7734 7.58203C16.7734 7.83398 16.9902 8.07422 17.2188 8.07422C17.3008 8.07422 17.6289 7.92773 17.9453 7.75195L18.5137 7.42383L19.1699 7.60547C19.8438 7.78711 19.9785 7.80469 20.1426 7.74609C20.2891 7.6875 20.418 7.38281 20.377 7.19531C20.3301 6.99609 20.2422 6.91406 19.9609 6.81445L19.75 6.74414L20.0488 6.55664C20.377 6.35742 20.5 6.16992 20.4414 5.94141C20.3477 5.56055 20.0488 5.47852 19.5859 5.71289L19.2461 5.88867L19.3047 5.68945C19.334 5.57813 19.3398 5.4082 19.3223 5.31445C19.2461 4.97461 18.8184 4.85156 18.5664 5.10352Z" fill="#FF9307"/>
<path d="M14.652 8.48438C14.3708 8.64844 14.0954 8.77734 14.0485 8.77734C13.9958 8.77734 13.7204 8.71289 13.4333 8.63086C12.7419 8.4375 12.4841 8.4375 12.3259 8.63672C12.0974 8.92969 12.2087 9.25195 12.5954 9.39844L12.8532 9.49805L12.5602 9.66211C12.1266 9.91406 12.027 10.1953 12.2673 10.5C12.4255 10.6992 12.7126 10.7051 13.0524 10.5L13.3102 10.3535L13.2751 10.6523C13.2458 10.9102 13.2575 10.9688 13.3747 11.0918C13.4743 11.1973 13.5739 11.2383 13.7263 11.2383C14.0016 11.2383 14.154 11.0742 14.277 10.6348C14.3298 10.4531 14.4118 10.1543 14.4645 9.97852L14.5524 9.65625L15.1384 9.33398C15.4548 9.15234 15.7419 8.95312 15.777 8.89453C15.947 8.57812 15.7126 8.19141 15.3552 8.19141C15.2321 8.19141 14.9802 8.29688 14.652 8.48438Z" fill="#FF9307"/>
<path d="M16.8967 8.34972C16.8322 8.40831 16.756 8.53722 16.7385 8.63683C16.6916 8.87706 16.8732 9.08214 17.4709 9.45128L17.9396 9.74425L18.1037 10.4474C18.215 10.9454 18.3029 11.1857 18.3967 11.2794C18.5725 11.461 18.8478 11.4552 19.0412 11.2618C19.1701 11.1329 19.1877 11.0743 19.1642 10.8282L19.135 10.5411L19.4631 10.7228C19.8146 10.9161 20.0139 10.922 20.1955 10.7345C20.4533 10.4767 20.3478 10.1368 19.9318 9.87315L19.6271 9.68565L19.8674 9.63878C20.1428 9.58604 20.3478 9.36925 20.3478 9.14659C20.3478 8.97667 20.0549 8.66026 19.8967 8.66026C19.8381 8.66612 19.4982 8.72472 19.135 8.80089L18.4787 8.93565L17.9338 8.59581C17.3537 8.22667 17.1193 8.16808 16.8967 8.34972Z" fill="#FF9307"/>
<path d="M15.9879 8.8419C15.8414 8.95909 15.8355 8.97667 15.8355 9.63877V10.3185L15.314 10.881C14.8218 11.4142 14.7574 11.5255 14.775 11.7774C14.7867 11.9591 14.9976 12.1173 15.232 12.1173C15.3961 12.1173 15.4957 12.0704 15.6421 11.9298L15.8355 11.7423V12.1524C15.8355 12.5099 15.8531 12.586 15.9703 12.6915C16.1578 12.8673 16.4449 12.8614 16.6265 12.6739C16.7496 12.5567 16.773 12.4747 16.773 12.1759V11.8185L16.9664 11.9649C17.3589 12.2638 17.8277 12.088 17.8277 11.6544C17.8277 11.4845 17.7515 11.379 17.3004 10.922L16.773 10.3829V9.75596C16.773 9.07627 16.7203 8.88292 16.4976 8.78331C16.2925 8.68956 16.1636 8.70127 15.9879 8.8419Z" fill="#FF9307"/>
<path d="M2.42923 15.1641C2.24759 15.3341 2.25345 15.6856 2.43509 15.8555C2.60502 16.0137 2.88627 16.0196 3.06791 15.8731C3.26127 15.7149 3.26127 15.3165 3.06791 15.1583C2.88627 15.0118 2.58744 15.0177 2.42923 15.1641Z" fill="#201F1D"/>
<path d="M27.2207 15.1347C27.0508 15.2578 26.9981 15.5215 27.1094 15.7382C27.3379 16.1836 27.9649 16.0078 27.9649 15.498C27.9649 15.1172 27.543 14.9121 27.2207 15.1347Z" fill="#201F1D"/>
</svg>
