<svg width="28" height="30" viewBox="0 0 28 30" fill="none" xmlns="http://www.w3.org/2000/svg">
<rect x="0.84375" y="2.573" width="26.1377" height="5.91908" rx="2.95954" fill="#FF9307"/>
<path d="M5.41523 0.0588455C4.87607 0.275682 4.59476 0.767963 4.59476 1.50052V1.98108L3.38165 1.99866C2.18611 2.01624 2.15681 2.0221 1.81104 2.18034C1.16053 2.48508 0.703409 3.05941 0.556898 3.74508C0.504153 3.98536 0.492432 7.06797 0.504153 16.2044L0.521735 28.3415L0.756154 28.8045C1.0316 29.3378 1.40081 29.6835 1.92825 29.8769L2.25643 30L14.1063 29.9883L25.9562 29.9707L26.2902 29.8125C26.7298 29.6073 27.1224 29.203 27.351 28.7224L27.5385 28.3298L27.5561 16.1986C27.5737 3.46964 27.5795 3.70406 27.3217 3.1942C27.1283 2.81327 26.6653 2.36787 26.2609 2.1862C25.9034 2.01624 25.88 2.01624 24.6845 1.99866L23.4655 1.98108V1.49466C23.4655 0.885172 23.2838 0.474939 22.8912 0.199497C22.6567 0.0412636 22.5864 0.0236835 22.0941 0.00610161C21.4495 -0.0173397 21.2033 0.0705662 20.8693 0.463219C20.629 0.74452 20.5352 1.06685 20.5352 1.60015V1.98694H14.0301H7.525V1.60015C7.525 1.06685 7.43123 0.74452 7.19095 0.463219C6.87449 0.0940094 6.62249 -0.00561905 6.04816 0.000240326C5.77858 0.000240326 5.49728 0.0295429 5.41523 0.0588455ZM6.45839 1.08443C6.56388 1.2075 6.58732 1.30127 6.58732 1.61187V1.98694H6.05988H5.53244V1.61187C5.53244 1.13717 5.5676 1.05513 5.7903 0.955498C6.02472 0.85001 6.28844 0.902754 6.45839 1.08443ZM22.2289 0.937916C22.4751 1.02582 22.5278 1.14303 22.5278 1.60015V1.98694H22.0004H21.4729V1.61187C21.4729 1.20164 21.6019 0.961359 21.8421 0.914474C21.9125 0.902754 21.9886 0.885172 22.0062 0.879313C22.0238 0.879313 22.1234 0.902754 22.2289 0.937916ZM4.60648 3.79197C4.62407 4.63001 4.62993 4.67104 4.78816 4.90546C5.08118 5.35671 5.71411 5.63215 6.11263 5.49736C6.3236 5.42118 6.41151 5.29225 6.41151 5.04611C6.41151 4.83513 6.21811 4.65346 5.93095 4.60071C5.58518 4.53625 5.53244 4.41318 5.53244 3.61615V2.92462H13.0338H20.5352V3.61615C20.5352 4.47764 20.6232 4.81169 20.9279 5.10471C21.2268 5.38601 21.4964 5.51495 21.8246 5.52667C22.1879 5.53253 22.352 5.39774 22.352 5.08127C22.352 4.81755 22.1879 4.62415 21.9652 4.62415C21.8773 4.62415 21.7425 4.55383 21.6429 4.4542C21.4729 4.28425 21.4729 4.27253 21.4729 3.60443V2.92462H23.5417C25.8448 2.92462 25.8683 2.93048 26.2609 3.34071C26.6126 3.71578 26.6301 3.82713 26.6301 6.15374V8.25765H17.2006H7.777L7.61877 8.38072C7.41365 8.54481 7.40779 8.84955 7.61291 9.04881L7.75356 9.19532H17.1948H26.6301V14.9503C26.6301 20.6467 26.6301 20.7053 26.5071 20.9514C26.4367 21.1038 26.2961 21.262 26.173 21.3382C25.962 21.4672 25.9034 21.473 24.1101 21.5023L22.2582 21.5316L21.8714 21.725C21.4143 21.9477 21.1154 22.2759 20.9396 22.733C20.84 22.9967 20.8283 23.1901 20.8283 24.6728C20.8283 25.675 20.8048 26.4134 20.7638 26.5716C20.67 26.935 20.3653 27.2221 19.9844 27.3042C19.7792 27.3452 16.9955 27.3628 11.0706 27.3511L2.45569 27.3335L2.17439 27.1928C1.86964 27.0463 1.63522 26.7767 1.51215 26.4427C1.44769 26.261 1.43597 24.667 1.43011 17.7047V9.19532H3.88565C6.20639 9.19532 6.34704 9.18946 6.47597 9.08397C6.66937 8.92574 6.66937 8.52723 6.47597 8.369C6.34704 8.26351 6.20639 8.25765 3.88565 8.25765H1.43011V6.15374C1.43011 3.82713 1.44769 3.71578 1.79932 3.34071C2.15095 2.9715 2.32676 2.92462 3.5223 2.92462H4.58304L4.60648 3.79197ZM23.8464 24.5498C22.6919 25.7043 21.7425 26.6478 21.7366 26.6419C21.7366 26.6361 21.7484 25.8273 21.7659 24.8428C21.7952 23.1081 21.8011 23.0495 21.9242 22.8737C22.0004 22.7682 22.1703 22.6334 22.3051 22.5631C22.5454 22.4459 22.645 22.44 24.2566 22.44H25.9562L23.8464 24.5498ZM26.5715 28.1188C26.4836 28.4587 26.2023 28.7986 25.8859 28.951L25.6046 29.0916L14.2411 29.1092C6.70453 29.1151 2.7663 29.1033 2.54946 29.0623C2.37364 29.0272 2.1275 28.9393 2.00443 28.8572C1.78174 28.7107 1.52974 28.3356 1.46527 28.0543L1.43011 27.8961L1.76415 28.0543L2.10406 28.2126H11.6566H21.2092L21.5608 28.0192C21.8421 27.8668 22.3989 27.3452 24.2566 25.4874L26.6008 23.1432L26.6184 25.5226C26.6243 26.9877 26.6067 27.984 26.5715 28.1188Z" fill="#201F1D"/>
<path d="M3.59872 11.0003C3.46979 11.0706 3.34086 11.2054 3.26467 11.3636C3.13574 11.6098 3.12988 11.6918 3.12988 12.8229C3.12988 14.2118 3.17677 14.4052 3.59286 14.6338C3.80384 14.7568 3.89174 14.7627 5.07556 14.7627C6.44691 14.7627 6.59342 14.7334 6.85128 14.3876C6.96263 14.2353 6.96849 14.1415 6.96849 12.8287C6.96849 11.5043 6.96263 11.4222 6.84542 11.264C6.59928 10.9241 6.45277 10.8948 5.06384 10.8948C3.95621 10.8948 3.77453 10.9065 3.59872 11.0003ZM6.06012 12.8287V13.825H5.06384H4.06756V12.8287V11.8325H5.06384H6.06012V12.8287Z" fill="#201F1D"/>
<path d="M9.58759 10.9944C9.4821 11.0472 9.33558 11.1702 9.26526 11.2699C9.14219 11.4398 9.13633 11.516 9.11875 12.7526C9.10117 13.9715 9.10703 14.0653 9.22424 14.288C9.44107 14.7217 9.60517 14.7627 11.0468 14.7627C12.4182 14.7627 12.5706 14.7334 12.8167 14.3876C12.9398 14.2118 12.9456 14.1591 12.9456 12.817C12.9456 11.5101 12.9398 11.4222 12.8226 11.264C12.5764 10.9241 12.4299 10.8948 11.041 10.8948C9.99782 10.8948 9.74582 10.9124 9.58759 10.9944ZM12.0373 12.8287V13.825H11.041H10.0447V12.8287V11.8325H11.041H12.0373V12.8287Z" fill="#201F1D"/>
<path d="M15.5597 11.0003C15.4483 11.053 15.3018 11.1761 15.2373 11.264C15.1201 11.4222 15.1143 11.5101 15.1143 12.817C15.1143 14.1591 15.1201 14.2118 15.2432 14.3876C15.4893 14.7334 15.6417 14.7627 17.0131 14.7627C18.4547 14.7627 18.6188 14.7217 18.8357 14.288C18.9529 14.0653 18.9587 13.9715 18.9411 12.7526C18.9236 11.516 18.9177 11.4398 18.7946 11.2699C18.5485 10.9241 18.402 10.8948 17.0072 10.8948C15.9347 10.8948 15.7296 10.9065 15.5597 11.0003ZM18.0152 12.8287V13.825H17.0189H16.0226V12.8287V11.8325H17.0189H18.0152V12.8287Z" fill="#201F1D"/>
<path d="M21.5372 11.0003C21.4258 11.053 21.2793 11.1761 21.2149 11.264C21.0977 11.4222 21.0918 11.5043 21.0918 12.8287C21.0918 14.1415 21.0977 14.2353 21.209 14.3876C21.4669 14.7334 21.6134 14.7627 22.9847 14.7627C24.1685 14.7627 24.2565 14.7568 24.4674 14.6338C24.8835 14.4052 24.9304 14.2118 24.9304 12.8229C24.9304 11.6918 24.9245 11.6098 24.8015 11.3636C24.5729 10.9241 24.4616 10.8948 22.9965 10.8948C21.9123 10.8948 21.7071 10.9065 21.5372 11.0003ZM23.9927 12.8287V13.825H22.9965H22.0002V12.8287V11.8325H22.9965H23.9927V12.8287Z" fill="#201F1D"/>
<path d="M3.54028 16.4741C3.14763 16.7437 3.12419 16.8609 3.14177 18.3202C3.15935 19.5274 3.16521 19.6329 3.28242 19.7794C3.57544 20.1779 3.59888 20.1838 4.99368 20.2014C6.23024 20.219 6.27126 20.219 6.52326 20.0842C6.96866 19.8439 6.99796 19.7384 6.99796 18.2498C6.99796 16.8082 6.97452 16.7027 6.576 16.4624C6.40019 16.3569 6.27712 16.3452 5.05814 16.3452C3.78056 16.3452 3.72782 16.3511 3.54028 16.4741ZM6.06028 18.2791V19.2754H5.064H4.06772V18.2791V17.2829H5.064H6.06028V18.2791Z" fill="#201F1D"/>
<path d="M9.51179 16.4798C9.14258 16.7259 9.10742 16.8724 9.10742 18.2438C9.10742 19.3631 9.11914 19.4921 9.23049 19.7206C9.3184 19.9023 9.41803 20.0019 9.5997 20.0898C9.8224 20.2012 9.95719 20.2129 11.0414 20.2129C12.4244 20.2129 12.6178 20.166 12.8464 19.7499C12.9695 19.5389 12.9753 19.451 12.9753 18.2731C12.9753 16.8666 12.946 16.7259 12.571 16.4798C12.3776 16.3508 12.3248 16.345 11.0414 16.345C9.75793 16.345 9.70519 16.3508 9.51179 16.4798ZM12.0377 18.2789V19.2752H11.0414H10.0451V18.2789V17.2827H11.0414H12.0377V18.2789Z" fill="#201F1D"/>
<path d="M15.4893 16.4798C15.1143 16.7259 15.085 16.8666 15.085 18.2731C15.085 19.451 15.0908 19.5389 15.2139 19.7499C15.4424 20.166 15.6358 20.2129 17.0189 20.2129C18.1031 20.2129 18.2379 20.2012 18.4606 20.0898C18.6423 20.0019 18.7419 19.9023 18.8298 19.7206C18.9412 19.4921 18.9529 19.3631 18.9529 18.2438C18.9529 16.8724 18.9177 16.7259 18.5485 16.4798C18.3551 16.3508 18.3024 16.345 17.0189 16.345C15.7355 16.345 15.6827 16.3508 15.4893 16.4798ZM18.0152 18.2789V19.2752H17.0189H16.0226V18.2789V17.2827H17.0189H18.0152V18.2789Z" fill="#201F1D"/>
<path d="M21.5372 16.5679C21.4258 16.6206 21.2793 16.7437 21.2149 16.8316C21.0977 16.9899 21.0918 17.0719 21.0918 18.3964C21.0918 19.7091 21.0977 19.8029 21.209 19.9553C21.4669 20.301 21.6134 20.3303 22.9847 20.3303C24.1685 20.3303 24.2565 20.3245 24.4674 20.2014C24.8835 19.9728 24.9304 19.7794 24.9304 18.3905C24.9304 17.2594 24.9245 17.1774 24.8015 16.9312C24.5729 16.4917 24.4616 16.4624 22.9965 16.4624C21.9123 16.4624 21.7071 16.4741 21.5372 16.5679ZM23.9927 18.3964V19.3926H22.9965H22.0002V18.3964V17.4001H22.9965H23.9927V18.3964Z" fill="#201F1D"/>
<path d="M3.53426 21.9302C3.16505 22.1764 3.12988 22.3229 3.12988 23.7001C3.12988 25.0773 3.16505 25.2238 3.53426 25.4699C3.72765 25.5989 3.77453 25.6047 5.099 25.6047H6.45863L6.64617 25.4524C6.98021 25.1652 6.99779 25.089 6.99779 23.7001C6.99779 22.3112 6.98021 22.235 6.64617 21.9478L6.45863 21.7954H5.099C3.77453 21.7954 3.72765 21.8013 3.53426 21.9302ZM6.06012 23.7001V24.7257H5.06384H4.06756V23.7001V22.6745H5.06384H6.06012V23.7001Z" fill="#201F1D"/>
<path d="M9.51765 21.9243C9.14258 22.1763 9.10742 22.317 9.10742 23.7C9.10742 25.0831 9.14258 25.2238 9.51765 25.4758C9.71691 25.6106 9.74035 25.6106 11.1058 25.593L12.4948 25.5754L12.6589 25.4289C12.946 25.1593 12.9753 25.0069 12.9753 23.7C12.9753 22.3932 12.946 22.2408 12.6589 21.9712L12.4948 21.8247L11.1058 21.8071C9.74035 21.7895 9.71691 21.7895 9.51765 21.9243ZM12.0377 23.7V24.7256H11.0414H10.0451V23.7V22.6745H11.0414H12.0377V23.7Z" fill="#201F1D"/>
<path d="M15.5831 21.854C15.4249 21.9185 15.2256 22.1412 15.1494 22.3404C15.1143 22.4342 15.085 22.7155 15.085 22.9734C15.085 23.3953 15.1025 23.4539 15.2315 23.5828C15.3194 23.6766 15.4424 23.7294 15.5538 23.7294C15.6651 23.7294 15.7882 23.6766 15.8761 23.5828C16.0051 23.4598 16.0226 23.3894 16.0226 23.0554V22.6745H17.0189H18.0152V23.7V24.7256H17.0248H16.0344L15.9992 24.5791C15.9758 24.4854 15.882 24.3916 15.7589 24.333C15.5655 24.2392 15.5421 24.2392 15.3487 24.333C15.0029 24.4971 14.9971 24.9776 15.3487 25.3586L15.5421 25.5754L16.9427 25.593C18.3199 25.6106 18.3434 25.6106 18.5426 25.4758C18.9177 25.2238 18.9529 25.0831 18.9529 23.7C18.9529 22.3228 18.9177 22.1763 18.5485 21.9302C18.3551 21.8013 18.3082 21.7954 17.0248 21.8013C16.2981 21.8013 15.6476 21.8247 15.5831 21.854Z" fill="#201F1D"/>
<path d="M3.9502 11.7153H6.29438V13.9423H3.9502V11.7153Z" fill="#FF9307"/>
<path d="M15.847 17.2242H18.1911V19.4512H15.847V17.2242Z" fill="#FF9307"/>
<path d="M3.9502 22.5572H6.29438V24.7842H3.9502V22.5572Z" fill="#FF9307"/>
<path d="M21.9418 11.7153H24.286V13.9423H21.9418V11.7153Z" fill="#FF9307"/>
</svg>
