<svg width="31" height="30" viewBox="0 0 31 30" fill="none" xmlns="http://www.w3.org/2000/svg">
<g clip-path="url(#clip0_96_13613)">
<path d="M2.02387 8.49984L0.96875 10.7856L3.60655 13.0713H7.18223L8.58906 11.0786L10.7579 8.9101L13.3957 6.44854V3.4595L12.2234 0.470459H11.2269L9.58556 1.70124H7.76841L4.95476 3.04924L2.37558 6.44854L2.02387 8.49984Z" fill="#FF9307" stroke="#201F1D"/>
<path d="M10.8753 0.230062C10.2247 0.464497 9.59161 0.728235 9.05233 1.0037C8.7358 1.16194 8.71821 1.16194 8.46615 1.07403C7.90928 0.880617 7.45207 1.04472 6.21523 1.85938C4.59152 2.93778 3.44261 4.07479 2.39335 5.65136C1.55512 6.91144 1.37927 7.40962 1.57271 7.9664C1.66063 8.21841 1.66063 8.236 1.51995 8.51146C0.945495 9.6426 0.5 10.8968 0.5 11.3833C0.5 11.8404 0.705162 12.239 1.06273 12.4793C1.28548 12.6199 2.22336 12.9247 2.82713 13.0478C2.99712 13.0829 3.00298 13.0947 2.95608 13.2705C2.68644 14.2903 2.60438 16.8104 2.80954 18.1115C3.62433 23.3805 7.18829 27.6472 12.1649 29.3058C13.0911 29.6164 14.1228 29.845 15.09 29.9563C15.8813 30.0443 18.0384 29.9915 18.8122 29.8684C20.5824 29.5812 22.3468 28.9307 23.8885 27.993C25.5474 26.979 27.1476 25.4318 28.2555 23.7673C28.7245 23.0581 29.4396 21.6339 29.721 20.8427C30.2544 19.354 30.4595 18.1936 30.4947 16.4412C30.5357 14.4954 30.3423 13.1826 29.7678 11.5239C27.769 5.75685 22.1944 1.94729 16.0923 2.18759C15.2541 2.22276 14.199 2.34583 13.7769 2.45719L13.5952 2.50408L13.4018 1.7363C13.1204 0.652044 12.9621 0.376583 12.4697 0.124567C12.0887 -0.0688419 11.6198 -0.0395374 10.8753 0.230062ZM11.9715 1.3026C11.9949 1.34363 12.206 2.07623 12.4346 2.93192C12.7218 3.99859 12.8273 4.49677 12.7863 4.52607C12.7511 4.54952 12.5635 4.62571 12.3701 4.69018C11.8191 4.87186 10.5471 5.51656 9.93746 5.92096C8.51305 6.86456 7.41103 7.96054 6.46143 9.37886C6.02765 10.0353 5.38286 11.2895 5.18942 11.8697C5.12494 12.0631 5.04874 12.2507 5.02529 12.2859C4.96667 12.3738 1.84821 11.5415 1.76614 11.4184C1.68408 11.2836 2.05923 10.2814 2.58679 9.19718C2.82713 8.71073 3.02056 8.24186 3.02056 8.14808C3.02056 8.06017 2.95022 7.88435 2.86816 7.76127L2.71575 7.53269L2.87402 7.23965C3.62433 5.89751 4.80254 4.48505 5.93973 3.58247C6.34419 3.25427 7.27621 2.63301 7.73929 2.37514L8.03238 2.21689L8.26099 2.36928C8.38409 2.45133 8.55994 2.52166 8.64787 2.52166C8.74166 2.52166 9.21646 2.32239 9.70885 2.08209C10.5823 1.66011 11.6198 1.24399 11.825 1.23227C11.8777 1.23227 11.9422 1.26744 11.9715 1.3026ZM17.7981 3.4594C22.2355 3.90482 26.0808 6.58323 28.021 10.5803C28.8886 12.362 29.2813 14.0676 29.2813 16.0895C29.2813 19.0141 28.3493 21.6984 26.5439 23.9959C26.1218 24.5292 25.0315 25.6193 24.4981 26.0413C22.8803 27.3131 20.7993 28.2626 18.8767 28.5966C17.6985 28.8076 16.0513 28.8486 14.9786 28.6963C10.7229 28.0985 7.17656 25.5724 5.2539 21.7687C4.04051 19.3599 3.64191 16.6815 4.08741 13.9386C4.12258 13.7276 4.16947 13.5225 4.18706 13.4873C4.21637 13.4463 4.32774 13.4522 4.54463 13.5108C4.99012 13.628 5.3301 13.6221 5.60561 13.4815C5.80491 13.376 5.90456 13.3643 6.26213 13.3994C7.12381 13.4756 7.93273 13.1943 8.52477 12.6141C8.70649 12.4324 9.09336 11.9225 9.38059 11.4888C10.0899 10.4104 10.8988 9.60158 11.9891 8.88069C12.4229 8.59351 12.9328 8.20669 13.1145 8.01915C13.6949 7.43892 13.9762 6.62426 13.8942 5.76858C13.859 5.41106 13.8766 5.31143 13.9762 5.1063C14.1228 4.83084 14.1286 4.49677 14.0114 4.04548C13.9528 3.81691 13.9469 3.71727 13.9938 3.68797C14.0641 3.64108 14.7148 3.53559 15.3596 3.46526C15.9692 3.39493 17.1123 3.39493 17.7981 3.4594ZM12.6749 6.20814C12.6046 6.81767 12.3408 7.14588 11.4732 7.71438C10.0078 8.67556 9.16957 9.51366 8.2141 10.973C7.6455 11.8463 7.31725 12.1042 6.70176 12.1745C6.40867 12.2097 6.40867 12.2097 6.4497 12.069C6.55521 11.7115 7.12967 10.6331 7.53999 10.0236C8.51891 8.56421 9.85539 7.35101 11.4146 6.48946C11.8132 6.26675 12.5635 5.92682 12.6573 5.92096C12.6866 5.92096 12.6925 6.0499 12.6749 6.20814Z" fill="#201F1D"/>
<path d="M9.39244 3.90484C9.0759 4.21547 9.16383 4.73709 9.55657 4.90119C10.1779 5.15907 10.7113 4.39716 10.2365 3.92243C10.0021 3.68799 9.61518 3.68213 9.39244 3.90484Z" fill="#201F1D"/>
<path d="M4.60366 8.74006C4.37505 8.82797 4.25195 9.02724 4.25195 9.30856C4.25195 10.0294 5.30121 10.1408 5.45362 9.4375C5.51224 9.17962 5.34811 8.86314 5.10777 8.7635C4.8733 8.66387 4.80882 8.65801 4.60366 8.74006Z" fill="#201F1D"/>
<path d="M16.7777 4.77219C16.7249 4.81322 16.4084 5.30553 16.086 5.86817C15.3885 7.06965 15.3357 7.25719 15.6112 7.56782C15.7636 7.73779 15.8281 7.76709 16.0508 7.76709C16.2267 7.76709 16.3557 7.73192 16.4377 7.65573C16.6136 7.49749 17.7214 5.56927 17.7332 5.39344C17.7742 4.91871 17.5866 4.69014 17.1529 4.69014C17.0063 4.69014 16.8363 4.73116 16.7777 4.77219Z" fill="#201F1D"/>
<path d="M21.1922 7.02864C20.1839 7.61472 20.1019 7.67919 20.0315 7.88432C19.885 8.32975 20.1312 8.67554 20.5884 8.67554C20.7994 8.67554 21.0046 8.58176 21.8663 8.08359C22.4524 7.74366 22.9448 7.42131 22.9976 7.33926C23.0503 7.25721 23.0972 7.08724 23.0972 6.95831C23.0972 6.77662 23.0562 6.69457 22.9038 6.55977C22.5755 6.26672 22.4231 6.30775 21.1922 7.02864Z" fill="#201F1D"/>
<path d="M15.7463 9.08593C14.6384 9.22659 13.2316 9.78923 12.3875 10.4339C11.9186 10.7914 11.2679 11.4479 10.8986 11.9284C10.5176 12.4325 9.96661 13.5871 9.79076 14.2376C8.93494 17.4787 10.3945 20.8369 13.3195 22.3491C13.6126 22.5014 13.9233 22.6245 14.0112 22.6245C14.3629 22.6245 14.6267 22.3608 14.6267 22.0091C14.6267 21.7161 14.4978 21.5696 14.0171 21.3175C12.4579 20.5087 11.4027 19.19 10.9572 17.4963C10.7462 16.705 10.7345 15.5856 10.9221 14.812C11.3617 13.042 12.5751 11.5533 14.2047 10.8032C16.3911 9.78923 18.9996 10.2757 20.723 12.0105C21.4674 12.7607 21.9657 13.6281 22.2588 14.7006C22.3643 15.0699 22.3877 15.316 22.3877 16.0897C22.3877 17.1681 22.2881 17.6662 21.8953 18.5043C21.3326 19.7117 20.383 20.7139 19.2575 21.2765C18.6948 21.5578 18.5834 21.6809 18.5834 22.0208C18.5834 22.2436 18.6127 22.308 18.7769 22.4545C19.0406 22.689 19.2575 22.6773 19.8378 22.3842C21.7781 21.4172 23.2142 19.4421 23.5659 17.2618C24.1756 13.5167 21.7546 9.97091 18.0559 9.19728C17.4228 9.06834 16.3384 9.01559 15.7463 9.08593Z" fill="#201F1D"/>
<path d="M23.7951 10.6096C23.502 10.7269 23.373 11.2543 23.5665 11.5239C23.7306 11.7642 23.9182 11.7877 25.2547 11.7701L26.5267 11.7525L26.6791 11.6001C26.7729 11.5064 26.8432 11.3598 26.8608 11.2074C26.8901 10.9906 26.8725 10.9437 26.685 10.7562L26.4798 10.551L25.2019 10.5569C24.4926 10.5569 23.8596 10.5803 23.7951 10.6096Z" fill="#201F1D"/>
<path d="M16.3146 11.4654C16.1446 11.5534 15.9746 11.823 15.9746 11.9871C15.9746 12.1688 16.1563 12.4677 16.3029 12.538C16.8773 12.7959 17.399 12.2742 17.1411 11.6999C17.0708 11.5475 16.7659 11.3717 16.5784 11.3717C16.5198 11.3775 16.4025 11.4127 16.3146 11.4654Z" fill="#201F1D"/>
<path d="M14.1399 12.0982C13.8175 12.3971 13.9054 12.9363 14.304 13.1063C14.9195 13.3642 15.4529 12.5964 14.984 12.1276C14.7554 11.899 14.3685 11.8873 14.1399 12.0982Z" fill="#201F1D"/>
<path d="M18.2316 12.0984C17.9209 12.4149 18.0147 12.9424 18.4191 13.1065C18.6888 13.2237 18.9232 13.1651 19.1108 12.9424C19.3218 12.6904 19.316 12.3563 19.0874 12.1277C18.8588 11.8991 18.4484 11.8874 18.2316 12.0984Z" fill="#201F1D"/>
<path d="M12.8097 13.4874C12.5811 13.5753 12.458 13.7746 12.458 14.0559C12.458 14.5834 13.0383 14.8471 13.4428 14.5072C13.7652 14.2376 13.7124 13.7043 13.3431 13.5167C13.1438 13.4112 13.0207 13.4054 12.8097 13.4874Z" fill="#201F1D"/>
<path d="M19.9255 13.4755C19.5328 13.6455 19.4273 14.1847 19.7204 14.4836C20.1483 14.9056 20.8693 14.5246 20.7579 13.9327C20.6876 13.5693 20.2597 13.3348 19.9255 13.4755Z" fill="#201F1D"/>
<path d="M16.0633 13.792C14.85 14.1085 14.0586 15.2866 14.2638 16.4646C14.4103 17.2792 14.8324 17.8595 15.5534 18.2111C15.9813 18.428 16.0223 18.4338 16.6202 18.4338C17.2005 18.4338 17.265 18.4221 17.6226 18.2463C18.0974 18.0119 18.5605 17.5371 18.7773 17.0741C19.0939 16.3708 19.0001 15.3862 18.5487 14.7298C18.0329 13.9796 16.9309 13.5693 16.0633 13.792ZM17.1361 15.1049C17.6402 15.3686 17.8805 16.0719 17.6284 16.5642C17.3178 17.162 16.6906 17.3906 16.1102 17.1093C15.4186 16.7752 15.2603 15.9078 15.7878 15.3452C16.163 14.9466 16.6554 14.8587 17.1361 15.1049Z" fill="#201F1D"/>
<path d="M5.35932 15.1167C5.13658 15.3394 5.11899 15.7438 5.32415 15.9606C5.3945 16.0368 5.90447 16.3592 6.44962 16.6757C7.5106 17.2852 7.72748 17.3497 8.02643 17.1504C8.24332 17.0097 8.33125 16.6698 8.21987 16.4061C8.14367 16.2244 7.99712 16.1189 7.04752 15.5738C5.81654 14.8647 5.65828 14.8178 5.35932 15.1167Z" fill="#201F1D"/>
<path d="M25.2247 15.0405C25.0196 15.1519 24.9434 15.2925 24.9434 15.5797C24.9434 15.738 24.9844 15.8552 25.0782 15.949C25.2364 16.1189 27.1532 17.2208 27.3174 17.2325C27.5987 17.2618 27.716 17.2208 27.886 17.0567C28.0442 16.8926 28.0618 16.8457 28.0325 16.6054C28.0149 16.4588 27.9563 16.2947 27.8977 16.2361C27.8332 16.1775 27.3232 15.861 26.7605 15.5387C25.6878 14.9233 25.5295 14.8706 25.2247 15.0405Z" fill="#201F1D"/>
<path d="M12.2121 15.5678C12.0421 15.6557 11.8721 15.9253 11.8721 16.0894C11.8721 16.2711 12.0538 16.57 12.2003 16.6404C12.2824 16.6755 12.4407 16.7048 12.552 16.7048C13.1441 16.7048 13.3199 15.8198 12.7806 15.562C12.5403 15.4506 12.4172 15.4506 12.2121 15.5678Z" fill="#201F1D"/>
<path d="M20.4181 15.568C20.2481 15.6559 20.0781 15.9255 20.0781 16.0896C20.0781 16.2713 20.2598 16.5702 20.4064 16.6405C20.9808 16.8984 21.5025 16.3768 21.2446 15.8024C21.1743 15.65 20.8695 15.4742 20.6819 15.4742C20.6233 15.4801 20.506 15.5152 20.4181 15.568Z" fill="#201F1D"/>
<path d="M12.8097 17.5899C12.5811 17.6779 12.458 17.8771 12.458 18.1584C12.458 18.6859 13.0383 18.9497 13.4428 18.6097C13.6655 18.4222 13.7242 18.1878 13.6069 17.9182C13.4721 17.5958 13.1438 17.461 12.8097 17.5899Z" fill="#201F1D"/>
<path d="M19.9259 17.5782C19.8556 17.6075 19.7442 17.7071 19.668 17.8009C19.4921 18.0295 19.5332 18.428 19.7559 18.6214C19.9376 18.7797 20.3069 18.8031 20.5121 18.6683C20.8169 18.4691 20.8521 17.9592 20.5824 17.7071C20.43 17.5606 20.1135 17.502 19.9259 17.5782Z" fill="#201F1D"/>
<path d="M14.1466 19.2192C13.9824 19.3657 13.9531 19.4301 13.9531 19.6529C13.9531 19.9752 14.1348 20.1979 14.4338 20.2565C15.0258 20.3679 15.4068 19.647 14.9848 19.2192C14.7445 18.9789 14.4103 18.9789 14.1466 19.2192Z" fill="#201F1D"/>
<path d="M18.2491 19.2192C18.085 19.3657 18.0557 19.4301 18.0557 19.6529C18.0557 19.9752 18.2374 20.1979 18.5363 20.2565C19.1284 20.3679 19.5094 19.647 19.0873 19.2192C18.847 18.9789 18.5129 18.9789 18.2491 19.2192Z" fill="#201F1D"/>
<path d="M24.4335 19.5239C24.3338 19.5532 24.1931 19.647 24.1286 19.729C23.9 20.0221 23.9528 20.2037 24.6386 21.3759C25.1779 22.3137 25.2951 22.4778 25.471 22.5481C25.7289 22.6594 26.0747 22.5657 26.2154 22.3488C26.4147 22.0499 26.3503 21.8448 25.7055 20.7312C25.0138 19.5239 24.8789 19.4008 24.4335 19.5239Z" fill="#201F1D"/>
<path d="M16.3146 19.6705C16.1446 19.7584 15.9746 20.028 15.9746 20.1921C15.9746 20.3738 16.1563 20.6727 16.3029 20.7431C16.8773 21.0009 17.399 20.4793 17.1411 19.905C17.0708 19.7526 16.7659 19.5768 16.5784 19.5768C16.5198 19.5826 16.4025 19.6178 16.3146 19.6705Z" fill="#201F1D"/>
<path d="M6.51464 20.6376C6.20397 21.0068 6.37982 21.5577 6.83704 21.6515C7.14185 21.7101 9.07038 21.6925 9.31071 21.6222C9.55104 21.5577 9.76207 21.294 9.76207 21.0537C9.76207 20.872 9.60966 20.5907 9.47484 20.5145C9.4045 20.4793 8.82418 20.4559 8.01526 20.4559H6.66705L6.51464 20.6376Z" fill="#201F1D"/>
<path d="M16.3146 22.015C16.1446 22.1029 15.9746 22.3725 15.9746 22.5366C15.9746 22.7183 16.1563 23.0172 16.3029 23.0875C16.8773 23.3454 17.399 22.8238 17.1411 22.2494C17.0708 22.0971 16.7659 21.9212 16.5784 21.9212C16.5198 21.9271 16.4025 21.9623 16.3146 22.015Z" fill="#201F1D"/>
<path d="M21.128 23.1462L20.958 23.3161V24.6465C20.958 25.4436 20.9815 26.018 21.0166 26.0883C21.0928 26.2231 21.3742 26.3755 21.5559 26.3755C21.6321 26.3755 21.7728 26.3227 21.8783 26.2583C22.1597 26.0883 22.2007 25.848 22.1773 24.4883L22.1597 23.3161L21.9662 23.1462C21.7025 22.9059 21.3683 22.9059 21.128 23.1462Z" fill="#201F1D"/>
<path d="M11.4031 24.0897C10.8404 24.412 10.3187 24.7461 10.2484 24.8281C9.93183 25.1856 10.1956 25.7952 10.6763 25.8069C10.8697 25.8128 11.0866 25.7131 11.9776 25.2032C13.0796 24.5761 13.2203 24.453 13.2203 24.1248C13.2203 23.7732 12.9506 23.5036 12.5931 23.5036C12.4876 23.5036 12.0362 23.7263 11.4031 24.0897Z" fill="#201F1D"/>
<path d="M16.7427 24.5996C16.5024 24.8458 15.4473 26.7329 15.4473 26.9205C15.4473 27.2897 15.7169 27.5476 16.0979 27.5476C16.3676 27.5476 16.5845 27.2897 17.1999 26.2113C17.8389 25.0919 17.8858 24.8926 17.5634 24.6055C17.3113 24.3769 16.9655 24.3769 16.7427 24.5996Z" fill="#201F1D"/>
</g>
<defs>
<clipPath id="clip0_96_13613">
<rect width="30" height="30" fill="white" transform="translate(0.5)"/>
</clipPath>
</defs>
</svg>
