<svg width="31" height="30" viewBox="0 0 31 30" fill="none" xmlns="http://www.w3.org/2000/svg">
<g clip-path="url(#clip0_96_13467)">
<rect x="9.28906" y="17.6953" width="12.9921" height="2.16797" fill="#FF9307"/>
<rect x="7.58984" y="13.1836" width="2.10938" height="12.0703" fill="#FF9307"/>
<rect x="20.7734" y="12.9492" width="2.10938" height="12.0117" fill="#FF9307"/>
<rect x="14.6211" y="20.625" width="1.46484" height="4.62891" fill="#FF9307"/>
<path d="M13.5166 6.73828H17.1996L16.3792 19.8633H14.3285L13.5166 6.73828Z" fill="#FF9307"/>
<path d="M14.1993 0.111298C13.1915 0.439423 12.4767 1.31833 12.3302 2.40817C12.2892 2.69528 12.2716 3.40427 12.2892 4.18356C12.3185 5.63083 12.3712 5.87692 12.7755 6.4863C12.9689 6.77927 12.9806 6.82614 13.0157 7.46482L13.0567 8.13864L9.3712 8.15622L5.68565 8.1738L5.26378 8.32614C4.35557 8.66013 3.60557 9.32224 3.18956 10.166C2.76768 11.0215 2.78526 10.5937 2.78526 19.0722C2.78526 27.5742 2.76768 27.1172 3.20128 28.0078C3.64659 28.9218 4.56651 29.6601 5.56846 29.9121C5.87315 29.9883 7.1505 30 15.4884 30C26.0411 30 25.3614 30.0234 26.129 29.6367C26.8673 29.2675 27.4239 28.705 27.7989 27.9668C28.1446 27.2812 28.1564 27.1465 28.1564 24.0761V21.2871L28.0099 21.1347C27.8282 20.959 27.6231 20.9121 27.3595 20.9883C26.9493 21.0996 26.961 21.0351 26.9259 24.1699L26.8966 26.9824L26.7091 27.3691C26.4806 27.8379 25.9474 28.3593 25.5021 28.5644C25.3263 28.6465 24.9806 28.7402 24.7228 28.7695C24.4122 28.8105 21.254 28.8281 15.1485 28.8164L6.03721 28.7988L5.67393 28.6582C4.98839 28.3886 4.44932 27.8554 4.17393 27.1875L4.04503 26.8652L4.02745 19.2246C4.00987 10.7812 3.99229 11.2031 4.38487 10.5527C4.6251 10.1543 4.98839 9.832 5.47471 9.59177L5.86143 9.40427L9.49424 9.38669L13.1329 9.36911L13.3204 12.873C13.4259 14.8008 13.5314 16.5527 13.5489 16.7695L13.5841 17.1679H12.0782H10.5782V15.5976C10.5782 14.0097 10.5255 13.4238 10.3673 13.1133C10.2149 12.8203 9.86924 12.4804 9.5587 12.3164C9.30674 12.1875 9.1837 12.164 8.76182 12.164C8.33409 12.1582 8.22276 12.1816 7.97081 12.3164C7.58995 12.5156 7.22667 12.9082 7.08604 13.2773C6.98057 13.5527 6.97471 13.7988 6.97471 19.1015V24.6386L7.12706 24.9668C7.4376 25.623 7.93565 25.9629 8.64464 26.0039C9.43565 26.0449 10.0567 25.6758 10.3966 24.9609L10.5489 24.6386L10.5665 22.6875L10.5899 20.7422H12.1368H13.6837V22.6406C13.6837 24.9023 13.6954 24.9785 14.211 25.4941C14.6212 25.9101 14.9786 26.0449 15.5821 26.0039C16.2618 25.957 16.7716 25.623 17.0646 25.0312L17.2286 24.6972L17.2462 22.7168L17.2638 20.7422H18.8107H20.3575L20.3751 22.7168L20.3927 24.6972L20.5567 25.0312C20.8497 25.623 21.3595 25.957 22.0392 26.0039C22.6427 26.0449 22.9942 25.9101 23.4161 25.4941C23.9728 24.9316 23.9376 25.3945 23.9376 19.0488V13.5058L23.7735 13.1543C23.586 12.7617 23.2872 12.4687 22.8888 12.2812C22.4962 12.1054 21.7814 12.1113 21.4122 12.2929C21.0548 12.4687 20.7501 12.7675 20.5509 13.1425L20.3927 13.4472L20.3751 15.3105L20.3575 17.1679H18.8575H17.3575L17.3927 16.6816C17.4103 16.4179 17.5099 14.7246 17.6095 12.9199C17.7091 11.1152 17.8028 9.58005 17.8204 9.50388L17.8497 9.36911L21.4649 9.38669L25.0802 9.40427L25.4669 9.58591C26.1349 9.90232 26.5802 10.3945 26.8028 11.0625C26.92 11.4023 26.9259 11.5488 26.9259 13.875C26.9259 15.2285 26.9435 16.4121 26.961 16.5175C27.0548 16.9922 27.6407 17.1621 27.9864 16.8222L28.1564 16.6523V13.9629C28.1564 10.9746 28.1505 10.9336 27.7638 10.1367C27.6056 9.80271 27.4415 9.58591 27.0782 9.22849C26.5333 8.68942 26.088 8.43161 25.4259 8.26169C24.9982 8.15036 24.7696 8.1445 21.4298 8.1445H17.8907L17.9317 7.4531C17.9728 6.8613 17.9962 6.74411 18.1075 6.60935C18.3009 6.38083 18.5235 5.88864 18.5997 5.5195C18.6993 5.03317 18.6817 2.5195 18.5763 2.05661C18.3946 1.28317 17.8497 0.621063 17.088 0.246063L16.6485 0.0292664L15.5939 0.0175476C14.6915 0.00582886 14.4806 0.0175476 14.1993 0.111298ZM16.4552 1.30661C16.7364 1.4238 17.1232 1.78708 17.2755 2.07419C17.3985 2.3027 17.4044 2.38474 17.4044 3.83786C17.4044 5.56638 17.3927 5.61911 16.9064 6.05857C16.5138 6.41013 16.3321 6.46286 15.5001 6.46872C14.8614 6.46872 14.7267 6.45114 14.4747 6.33396C14.1056 6.16989 13.8888 5.96481 13.6954 5.59567L13.5372 5.3027V3.83786C13.5372 2.41403 13.5431 2.36716 13.6778 2.10934C13.9357 1.61716 14.2931 1.34177 14.8146 1.23044C15.1603 1.15427 16.2091 1.207 16.4552 1.30661ZM15.0607 7.70505C15.2892 7.72849 15.7345 7.71677 16.0567 7.68747C16.379 7.65232 16.6544 7.6406 16.6661 7.65232C16.713 7.69333 16.0216 19.1425 15.9571 19.2949C15.7931 19.7168 15.1896 19.7461 14.9728 19.3418C14.9317 19.2597 14.2696 8.29099 14.2696 7.68161C14.2696 7.62888 14.3282 7.6113 14.463 7.63474C14.5626 7.65817 14.838 7.68747 15.0607 7.70505ZM9.07237 13.4765C9.16026 13.5468 9.25401 13.6992 9.28917 13.8164C9.32432 13.9453 9.34776 14.8359 9.34776 16.0136C9.34776 17.2617 9.3712 18.0351 9.40635 18.1113C9.55284 18.3808 9.6876 18.3984 11.7208 18.3984C13.4962 18.3984 13.6251 18.4043 13.631 18.498C13.631 18.5566 13.6544 18.8086 13.672 19.0547L13.7189 19.5117H11.7091H9.70518L9.54112 19.6523L9.37706 19.7929L9.34776 22.1191L9.31846 24.4453L9.1251 24.6152C8.77354 24.9258 8.30479 24.7675 8.21104 24.3105C8.14659 23.9883 8.17003 14.0508 8.23448 13.8164C8.31065 13.5586 8.53917 13.3593 8.76182 13.3593C8.84971 13.3593 8.99034 13.4121 9.07237 13.4765ZM22.5782 13.5644L22.7071 13.7168V19.0781V24.4453L22.5372 24.6152C22.256 24.8906 21.8575 24.8379 21.6817 24.4922C21.6056 24.3515 21.5939 23.9648 21.5939 22.0898V19.8515L21.4239 19.6816L21.254 19.5117H19.2384H17.2228L17.2462 19.084C17.2521 18.8554 17.2755 18.6035 17.2931 18.5273L17.3165 18.3984H19.1974C20.7911 18.3984 21.1075 18.3867 21.2716 18.3047C21.3771 18.2578 21.4884 18.1699 21.5177 18.1172C21.5411 18.0644 21.5763 17.0449 21.5939 15.8613L21.6232 13.6992L21.8224 13.5234C21.9864 13.3769 22.0509 13.3535 22.2325 13.3828C22.3556 13.4004 22.4962 13.4765 22.5782 13.5644ZM16.0274 22.5761C16.0274 24.0175 16.0099 24.3515 15.9396 24.4922C15.7638 24.8379 15.3653 24.8906 15.0841 24.6152L14.9142 24.4453V22.6347V20.83H15.4708H16.0274V22.5761Z" fill="#201F1D"/>
<path d="M8.32236 10.4473C8.20517 10.541 8.1583 10.6523 8.13486 10.8457C8.10556 11.0859 8.12314 11.1387 8.27548 11.3086C8.69736 11.7773 9.47666 11.3613 9.32431 10.752C9.21884 10.3301 8.65634 10.1602 8.32236 10.4473Z" fill="#201F1D"/>
<path d="M21.8981 10.4589C21.5583 10.746 21.6286 11.2909 22.0387 11.4609C22.4665 11.6425 22.8825 11.373 22.8825 10.9159C22.8825 10.3827 22.3083 10.1132 21.8981 10.4589Z" fill="#201F1D"/>
<path d="M27.1483 18.6328C26.9843 18.7969 26.9725 18.8438 27.0018 19.0898C27.0429 19.4473 27.2421 19.6289 27.5878 19.6289C27.8807 19.6289 28.0565 19.5234 28.1561 19.2832C28.3319 18.8555 28.0565 18.457 27.5878 18.457C27.3768 18.457 27.2948 18.4922 27.1483 18.6328Z" fill="#201F1D"/>
<path d="M8.39273 26.7246C8.34 26.7539 8.25211 26.8594 8.20523 26.9531C7.97672 27.3926 8.23453 27.832 8.72672 27.832C9.12515 27.832 9.31851 27.6445 9.31851 27.2461C9.31851 26.9883 9.29508 26.9238 9.15445 26.8008C8.97867 26.6484 8.59195 26.6074 8.39273 26.7246Z" fill="#201F1D"/>
<path d="M15.0609 26.8008C14.6566 27.2051 14.9144 27.832 15.4828 27.832C15.846 27.832 16.0863 27.5977 16.0863 27.2461C16.0863 26.8887 15.846 26.6602 15.471 26.6602C15.266 26.6602 15.1722 26.6953 15.0609 26.8008Z" fill="#201F1D"/>
<path d="M21.8751 26.8184C21.6759 27.0352 21.629 27.2578 21.7345 27.5039C21.8399 27.75 21.9805 27.832 22.3145 27.832C22.5372 27.832 22.6016 27.8027 22.7305 27.6504C22.836 27.5273 22.8829 27.4043 22.8829 27.2461C22.8829 27.0879 22.836 26.9648 22.7305 26.8418C22.6016 26.6836 22.5372 26.6602 22.3028 26.6602C22.0743 26.6602 21.9981 26.6895 21.8751 26.8184Z" fill="#201F1D"/>
</g>
<defs>
<clipPath id="clip0_96_13467">
<rect width="30" height="30" fill="white" transform="translate(0.5)"/>
</clipPath>
</defs>
</svg>
