<svg width="31" height="26" viewBox="0 0 31 26" fill="none" xmlns="http://www.w3.org/2000/svg">
<path d="M8.42578 12.8242L7.83984 9.07422L4.03125 11.6523L5.14453 12.8242H8.42578Z" fill="#FF9307" stroke="#201F1D"/>
<path d="M27.7031 14.6992H1.62891L3.38672 22.4336L5.67188 25.3047H22.1953L25.9453 24.9531L26.9414 22.7852L27.7031 14.6992Z" fill="#FF9307"/>
<path d="M19.8398 0.34375C19.3594 0.425781 18.9551 0.566406 17.7305 1.07031C13.0781 2.99219 8.68945 5.39453 5.4668 7.79688C4.07227 8.83398 3.22852 9.56641 1.95703 10.8438L0.732422 12.0742L0.767578 12.7012C0.884766 14.6641 1.63477 18.332 2.36133 20.4824C3.01758 22.4336 4.01953 24.3203 4.77539 25.0352C5.0625 25.3047 5.61328 25.5801 6.01758 25.6562C6.2168 25.6914 8.91211 25.7148 13.3477 25.7148C20.3555 25.7148 20.3613 25.7148 20.5195 25.5918C20.6953 25.4512 20.7305 25.1172 20.5898 24.918C20.5078 24.8066 20.3496 24.8066 13.3066 24.7773L6.11133 24.748L5.84766 24.6074C5.46094 24.4082 5.17383 24.1094 4.82227 23.541C3.70312 21.7363 2.86523 19.3926 2.27344 16.3984C2.17383 15.9004 2.08008 15.4316 2.06836 15.3555L2.03906 15.2266H14.8711C21.9258 15.2266 27.7031 15.2441 27.7031 15.2734C27.7031 15.3965 26.2266 23.6641 26.1797 23.8164C26.0918 24.0742 25.7402 24.4668 25.4531 24.6191C25.2246 24.7422 25.1309 24.748 23.6543 24.7656C22.1953 24.7832 22.084 24.7891 21.9668 24.9004C21.7793 25.0762 21.7969 25.4336 22.002 25.5977C22.1602 25.7207 22.2012 25.7266 23.7773 25.7031L25.3887 25.6855L25.7812 25.498C26.4492 25.1816 26.9414 24.6191 27.1113 23.9863C27.2871 23.3242 30.75 3.4375 30.75 3.0918C30.75 2.875 30.709 2.59375 30.6621 2.45898C30.4629 1.88477 29.959 1.41602 29.373 1.25195C29.0273 1.1582 20.9004 0.279297 20.4316 0.291016C20.2559 0.296875 19.9922 0.320312 19.8398 0.34375ZM24.832 1.66797C28.2773 2.03125 29.0684 2.13086 29.2734 2.23047C29.5898 2.38281 29.8125 2.74023 29.8125 3.10352C29.8125 3.30273 28.0488 13.5273 27.9082 14.1543L27.8789 14.2891H14.8828H1.88672L1.78125 13.416C1.67578 12.543 1.67578 12.5371 1.79297 12.373C2.01562 12.0625 3.82617 10.3281 4.55859 9.71875C6.39258 8.20117 8.70703 6.64258 11.3262 5.18359C12.3984 4.58594 15.1113 3.23828 16.3945 2.67578C18.8496 1.5918 19.8281 1.24023 20.4082 1.22852C20.5371 1.22266 22.5293 1.42188 24.832 1.66797Z" fill="#201F1D"/>
<path d="M19.9985 2.10156C19.2778 2.24805 15.2114 4.03516 13.1138 5.13086C10.4243 6.53711 8.87743 7.50391 5.52587 9.88281C3.82079 11.0898 3.72704 11.1953 3.69188 11.834C3.65087 12.502 3.89696 12.9473 4.46532 13.252C4.69969 13.3809 4.75243 13.3809 7.83446 13.3984C10.0317 13.4102 11.0161 13.3984 11.1274 13.3516C11.4145 13.2285 11.4907 12.8828 11.2915 12.625L11.1743 12.4727H10.02H8.86571L8.88329 11.2305C8.90673 9.84766 8.87743 9.68359 8.5786 9.29102L8.38524 9.03906L9.24071 8.47656C11.9067 6.73633 15.5102 4.89063 18.9907 3.48438C19.5766 3.24414 20.145 3.0332 20.2563 3.00977C20.4966 2.95703 27.938 3.74219 27.938 3.81836C27.938 3.87695 26.4907 12.1328 26.4438 12.3379L26.4145 12.4727H19.5942H12.7681L12.6509 12.625C12.4458 12.8887 12.4985 13.1816 12.7681 13.3223C12.9087 13.3984 13.8989 13.4102 19.9048 13.4102C24.8911 13.4102 26.9184 13.3926 27.0181 13.3457C27.1001 13.3105 27.188 13.2227 27.2231 13.1523C27.2524 13.082 27.6684 10.8262 28.1431 8.14258L29.0044 3.25586L28.8931 3.10352C28.8286 3.02149 28.688 2.92774 28.5766 2.9043C28.2954 2.83984 20.7016 2.04297 20.4438 2.04883C20.3266 2.05469 20.1274 2.07813 19.9985 2.10156ZM7.71727 9.80664C7.81102 9.85352 7.89891 9.93555 7.92235 9.98242C7.93993 10.0352 7.95751 10.5508 7.95751 11.1309C7.95751 12.0977 7.94579 12.1914 7.84032 12.2969C7.77587 12.3613 7.66454 12.4258 7.58837 12.4434C7.51805 12.4668 6.88524 12.4727 6.18798 12.4609C4.93993 12.4434 4.91649 12.4434 4.77001 12.3027C4.58837 12.1328 4.56493 11.8398 4.72313 11.6641C4.87548 11.4883 7.39501 9.71875 7.50048 9.71875C7.52977 9.71875 7.62938 9.75977 7.71727 9.80664Z" fill="#201F1D"/>
<path d="M15.9316 16.375C15.7851 16.5625 15.7792 16.7441 15.9023 17.2773C16.0663 18.0156 16.5937 18.6543 17.3261 19L17.7128 19.1816L20.08 19.1992C22.3652 19.2168 22.4531 19.2109 22.8222 19.0879C23.2148 18.959 23.6367 18.6836 23.9121 18.3672C24.4101 17.8047 24.7206 16.6387 24.4511 16.3398C24.3456 16.2227 24.2402 16.2227 20.1972 16.2227H16.0488L15.9316 16.375ZM23.4843 17.2188C23.4843 17.4824 22.9453 18.0273 22.5117 18.1914C22.248 18.291 22.0488 18.3027 20.1445 18.3027C18.1523 18.3027 18.0527 18.2969 17.7949 18.1797C17.4492 18.0156 17.121 17.7227 16.9746 17.4473C16.916 17.3242 16.8632 17.207 16.8632 17.1895C16.8632 17.1719 18.3515 17.1602 20.1738 17.1602C22.4472 17.1602 23.4843 17.1777 23.4843 17.2188Z" fill="#201F1D"/>
</svg>
