<svg width="31" height="30" viewBox="0 0 31 30" fill="none" xmlns="http://www.w3.org/2000/svg">
<g clip-path="url(#clip0_96_13650)">
<path d="M0.835938 8.67188L5.81641 3.63281L7.22266 2.57812L8.80469 2.92969L11.4414 4.74609L9.68359 7.26562L4.23438 12.6562L2.82812 13.0078L1.36328 11.0742L0.835938 8.67188Z" fill="#FF9307" stroke="#201F1D"/>
<path d="M23.5565 2.31962L28.7443 7.14494L29.8412 8.51855L29.5378 10.1105L27.4377 13.3593L25.2305 11.1205L19.6771 5.83737L19.283 4.44243L21.1713 2.9196L23.5565 2.31962Z" fill="#FF9307" stroke="#201F1D"/>
<circle cx="10.5596" cy="21.2603" r="3.07617" fill="#FF9307"/>
<circle cx="20.6371" cy="19.9711" r="2.34703" fill="#FF9307"/>
<circle cx="15.2728" cy="15.0753" r="2.34703" fill="#FF9307"/>
<path d="M7.28711 2.17376C6.77735 2.26165 6.35547 2.53118 5.73438 3.15813C5.23047 3.67376 5.17188 3.75579 5.17188 3.94915C5.17188 4.2304 5.33594 4.39446 5.61719 4.39446C5.81055 4.39446 5.89258 4.33587 6.39649 3.84368C6.98829 3.26946 7.11719 3.17571 7.45704 3.09954C7.81446 3.01751 8.14258 3.14056 8.76368 3.58587L9.34375 4.00188L5.72266 7.62298C3.73047 9.61517 2.08399 11.2265 2.06055 11.2031C1.90821 11.0331 1.35743 10.248 1.28125 10.0956C1.15235 9.84368 1.16407 9.34563 1.29883 9.05267C1.36915 8.90032 2.01368 8.21478 3.11524 7.11907C4.70899 5.53118 4.82032 5.40813 4.82032 5.21478C4.82032 4.89251 4.68555 4.74603 4.39258 4.74603C4.14649 4.74603 4.13477 4.75188 2.37696 6.51556C0.261723 8.64251 0.279302 8.61907 0.279302 9.58001C0.279302 10.1835 0.29102 10.248 0.455083 10.5585C0.554692 10.7402 1.11719 11.5488 1.71485 12.3574C2.85743 13.9042 2.95704 14.0038 3.28516 13.8808C3.37305 13.8456 3.59571 13.6699 3.78321 13.4882L4.11719 13.1542L4.33399 13.371L4.55079 13.5878L4.2461 13.9042C3.10352 15.1171 2.63477 16.8984 3.03907 18.5156C3.17969 19.0839 3.64844 20.0097 4.0293 20.4667C4.64454 21.1991 5.62305 21.832 6.47852 22.0546C6.67188 22.1015 6.83008 22.1484 6.83594 22.1601C6.8418 22.1718 6.90625 22.3593 6.97657 22.5878C7.04688 22.8105 7.20508 23.1679 7.32227 23.373C7.62696 23.8827 8.32422 24.5273 8.85157 24.7851L9.27344 24.9902V25.8984C9.27344 26.7363 9.28516 26.83 9.41407 27.1113C9.73047 27.7851 10.5684 28.0488 11.2422 27.6972C11.4238 27.6034 11.8516 27.1523 11.8516 27.0585C11.8516 27.0351 11.9746 27.0116 12.1328 27.0116C12.3965 27.0116 12.4199 27.0234 12.6133 27.287C12.9004 27.6738 13.2285 27.8437 13.6914 27.8437C14.207 27.8495 14.6582 27.5917 14.875 27.1699C14.9512 27.0292 14.9922 27.0116 15.25 27.0116C15.5078 27.0116 15.5488 27.0292 15.625 27.1699C15.8418 27.5917 16.293 27.8437 16.8086 27.8437C17.2715 27.8495 17.5996 27.6738 17.8867 27.287C18.0801 27.0292 18.1035 27.0116 18.3672 27.0116C18.5957 27.0116 18.6543 27.0351 18.7129 27.1464C19.2051 28.1015 20.6348 28.0781 21.0859 27.1113C21.2266 26.8066 21.2266 26.789 21.2266 24.9609V23.1093L21.6309 23.0097C22.0352 22.9042 22.5918 22.6113 22.8672 22.3593C22.9668 22.2656 23.1191 22.2128 23.3359 22.1835C23.8691 22.1249 24.332 21.9843 24.8945 21.7031C25.5215 21.3984 25.6445 21.2812 25.6445 20.9999C25.6445 20.5839 25.2695 20.4199 24.8594 20.6542C24.5137 20.8534 24.1211 21.0351 23.9277 21.0937L23.7695 21.1347L23.8926 20.6777C24.0098 20.2206 24.0098 20.2206 24.3613 19.9921C25.6094 19.1835 26.1484 17.6777 25.6797 16.2831C25.5391 15.8671 25.1172 15.1991 24.8594 14.9824L24.6953 14.8417L24.9883 14.5546L25.2813 14.2675L25.6328 14.6484C26.0781 15.1288 26.4531 15.8906 26.5938 16.582C26.7637 17.4433 26.6113 18.3925 26.1719 19.207C25.9375 19.6406 25.9141 19.9218 26.1016 20.0976C26.4121 20.3847 26.752 20.1913 27.0742 19.5409C28.0059 17.6484 27.6836 15.4218 26.2539 13.9042L25.9492 13.5878L26.166 13.371L26.3828 13.1542L26.7168 13.4882C26.9043 13.6699 27.127 13.8456 27.2148 13.8808C27.543 14.0038 27.6426 13.9042 28.7852 12.3574C29.3828 11.5488 29.9512 10.7343 30.0449 10.5527C30.209 10.248 30.2207 10.1835 30.2207 9.58001C30.2207 8.98821 30.209 8.91204 30.0566 8.61321C29.8106 8.14446 24.3438 2.66009 23.8633 2.40813C23.2715 2.09173 22.5156 2.06243 21.918 2.33196C21.5488 2.49603 18.6367 4.66399 18.543 4.83978C18.4199 5.06829 18.502 5.24993 18.9004 5.66595L19.2578 6.04095L17.7695 7.52923L16.2754 9.02337H15.25H14.2246L12.7305 7.52923L11.2422 6.04095L11.5996 5.66595C11.9981 5.24993 12.0801 5.06829 11.957 4.83978C11.8457 4.62884 8.84571 2.43157 8.48243 2.29095C8.10157 2.15032 7.67969 2.10931 7.28711 2.17376ZM23.3945 3.22845C23.7051 3.38665 29.1133 8.83001 29.2246 9.09368C29.3418 9.38079 29.3359 9.86126 29.2188 10.0956C29.1426 10.248 28.5918 11.0331 28.4395 11.2031C28.416 11.2265 26.7695 9.61517 24.7773 7.62298L21.1563 4.00188L21.7363 3.58001C22.5039 3.03509 22.8672 2.95892 23.3945 3.22845ZM10.709 5.01556C10.8203 5.09759 10.6328 5.29095 7.01172 8.91204L3.19727 12.7265L2.92774 12.3866L2.65821 12.0409L6.38477 8.30853L10.1172 4.5761L10.3516 4.75188C10.4863 4.84563 10.6445 4.96282 10.709 5.01556ZM27.5723 12.3808L27.3027 12.7265L23.5059 8.92962C21.4141 6.83782 19.7031 5.11517 19.7031 5.09759C19.709 5.08001 19.8555 4.95696 20.043 4.8222L20.377 4.5761L24.1094 8.30267L27.8418 12.0292L27.5723 12.3808ZM11.957 8.10345L13.3164 9.46282L10.4277 12.3515L7.54493 15.2343L6.16797 13.8574L4.79102 12.4804L5.09571 12.1757L5.40625 11.871L6.06836 12.5214C6.80665 13.2538 7.07618 13.412 7.5625 13.4179C8.3125 13.4179 8.86329 12.8788 8.86329 12.1288C8.86329 11.6308 8.70508 11.3671 7.97266 10.623L7.31641 9.96087L7.69141 9.58001L8.07227 9.19915L8.7754 9.90228C9.53125 10.6523 9.73633 10.7812 10.2109 10.7812C10.7207 10.7812 11.1895 10.4941 11.3887 10.0488C11.5234 9.76165 11.5352 9.21673 11.4121 8.92376C11.3594 8.80657 11.0195 8.40228 10.6387 8.01556L9.95313 7.32415L10.2402 7.03118C10.3984 6.86712 10.5449 6.73821 10.5625 6.73821C10.5801 6.73821 11.207 7.35345 11.957 8.10345ZM20.2598 7.03118L20.5469 7.32415L19.8613 8.01556C19.4805 8.40228 19.1406 8.80657 19.0879 8.92376C18.9648 9.21673 18.9766 9.76165 19.1113 10.0488C19.3106 10.4941 19.7793 10.7812 20.2891 10.7812C20.7637 10.7812 20.9688 10.6523 21.7246 9.90228L22.4277 9.19915L22.8086 9.58001L23.1836 9.96087L22.5332 10.6171C21.7832 11.3847 21.6367 11.6249 21.6367 12.1113C21.6426 12.8788 22.1758 13.4179 22.9375 13.4179C23.418 13.412 23.6816 13.2538 24.4258 12.5273L25.0996 11.871L25.4043 12.1757L25.709 12.4804L24.332 13.8574L22.9551 15.2343L20.0723 12.3515L17.1836 9.46282L18.543 8.10345C19.293 7.35345 19.9199 6.73821 19.9375 6.73821C19.9551 6.73821 20.1016 6.86712 20.2598 7.03118ZM9.93555 8.66595C10.4629 9.19329 10.5625 9.32806 10.5625 9.4804C10.5625 9.67962 10.3926 9.84368 10.1816 9.84368C10.1113 9.84368 9.80665 9.58587 9.40821 9.18743L8.7461 8.53118L8.99219 8.27923C9.12696 8.1386 9.25586 8.02728 9.27344 8.02728C9.29102 8.02728 9.58985 8.31438 9.93555 8.66595ZM21.5078 8.27923L21.7539 8.53118L21.0918 9.18743C20.6934 9.58587 20.3887 9.84368 20.3184 9.84368C20.1074 9.84368 19.9375 9.67962 19.9375 9.4804C19.9375 9.32806 20.0371 9.19329 20.5645 8.66595C20.9102 8.31438 21.209 8.02728 21.2266 8.02728C21.2441 8.02728 21.3731 8.1386 21.5078 8.27923ZM19.3633 12.9902L22.3984 16.0253L22.252 16.4648C22.1758 16.705 22.082 16.8984 22.0527 16.8866C22.0176 16.8808 20.7813 16.0019 19.3047 14.9355C17.834 13.8632 16.457 12.9081 16.2461 12.8085C15.8945 12.6386 15.8184 12.6269 15.2441 12.6269C14.6465 12.6269 14.6113 12.6327 14.1777 12.8495C13.7559 13.0605 13.5566 13.2363 11.2598 15.4863C9.9004 16.8163 8.7754 17.9062 8.75196 17.9179C8.72852 17.9238 8.57032 17.5019 8.40625 16.9804L8.10157 16.0253L11.1367 12.9902L14.166 9.96087H15.25H16.334L19.3633 12.9902ZM7.29883 11.3027C7.97266 11.9824 8.04297 12.1288 7.8086 12.3632C7.5918 12.58 7.46875 12.5156 6.77149 11.8242L6.10938 11.1679L6.35547 10.9159C6.49024 10.7753 6.61915 10.664 6.63672 10.664C6.6543 10.664 6.95313 10.9511 7.29883 11.3027ZM24.1445 10.9159L24.3906 11.1679L23.7285 11.8242C23.3301 12.2226 23.0254 12.4804 22.9551 12.4804C22.7441 12.4804 22.5742 12.3163 22.5742 12.1171C22.5742 11.9648 22.6738 11.83 23.2012 11.3027C23.5469 10.9511 23.8457 10.664 23.8633 10.664C23.8809 10.664 24.0098 10.7753 24.1445 10.9159ZM15.9297 13.6991C16.4277 13.9511 16.832 14.5898 16.832 15.1171C16.832 15.7324 16.3106 16.4296 15.7188 16.6054C15.3262 16.7226 15.1738 16.7226 14.7813 16.6054C14.1719 16.4238 13.668 15.7324 13.668 15.082C13.668 14.4726 14.2012 13.7929 14.834 13.5878C15.0801 13.5058 15.6719 13.5702 15.9297 13.6991ZM5.53516 14.5722L5.81055 14.8417L5.66407 14.9531C5.41211 15.1581 4.98438 15.8144 4.8379 16.2363C4.42188 17.4433 4.72657 18.7265 5.63477 19.5878C6.00391 19.9335 6.66602 20.332 6.8711 20.332C6.91797 20.332 6.92969 20.3788 6.90625 20.4609C6.88282 20.537 6.85352 20.7245 6.83008 20.8769C6.79493 21.1464 6.78907 21.1581 6.64258 21.123C6.35547 21.0527 5.76954 20.7421 5.41211 20.4726C4.22852 19.5878 3.61915 18.0116 3.90625 16.582C4.04102 15.9081 4.42188 15.1347 4.84961 14.6601C5.03125 14.4609 5.20118 14.2968 5.21875 14.2968C5.23633 14.2968 5.38282 14.4199 5.53516 14.5722ZM19.0176 15.9081L20.1543 16.7284L19.9141 16.7929C19.1348 17.0038 18.8535 17.2265 16.4219 19.623L14.3418 21.6679L14.3066 21.1347C14.2363 20.1738 13.9082 19.4531 13.2344 18.7734C12.584 18.1288 11.9219 17.8066 10.9551 17.6777L10.4395 17.6074L11.5879 16.5058C12.25 15.8613 12.7422 15.4335 12.7539 15.4804C12.7656 15.5214 12.8066 15.6738 12.8477 15.8202C13.0176 16.4648 13.5566 17.1034 14.166 17.3788C15.7188 18.0937 17.4648 17.1562 17.7285 15.4687C17.7637 15.246 17.8106 15.0644 17.834 15.0702C17.8574 15.082 18.3906 15.457 19.0176 15.9081ZM7.54493 17.3847C7.75586 18.0409 7.92579 18.6093 7.92579 18.6503C7.92579 18.6972 7.86719 18.7792 7.80274 18.8437C7.73243 18.9023 7.59766 19.0663 7.50391 19.2011C7.41016 19.3417 7.29297 19.4531 7.24024 19.4531C7.04688 19.4531 6.44336 19.0663 6.16797 18.7675C5.76954 18.3339 5.61719 17.9179 5.61719 17.2851C5.61133 16.8456 5.63477 16.7402 5.79883 16.3945C5.89844 16.1835 6.0918 15.8964 6.22657 15.7616L6.47266 15.5156L6.81836 15.8554L7.15821 16.2011L7.54493 17.3847ZM24.3965 15.8906C25.1113 16.7988 25.0703 17.9706 24.291 18.8144C24.1094 19.0077 23.9453 19.1425 23.9219 19.1191C23.8984 19.0956 23.834 18.9374 23.7754 18.7792C23.6465 18.4159 23.4941 18.164 23.1777 17.7773L22.9375 17.4726L23.1367 16.8398C23.3242 16.2538 23.3652 16.1777 23.6699 15.8671C23.9746 15.5566 24.0039 15.539 24.1211 15.6152C24.1914 15.662 24.3145 15.7851 24.3965 15.8906ZM21.707 17.8534C22.2051 18.0878 22.5918 18.4745 22.8262 18.9726C22.9961 19.3241 23.0137 19.4179 23.0137 19.8925C23.0078 20.6191 22.8555 20.9999 22.375 21.4745C21.6367 22.2128 20.7285 22.3886 19.8438 21.9784C18.4551 21.3281 18.0508 19.6464 19.0059 18.4628C19.2344 18.1699 19.5332 17.9648 19.9785 17.7773C20.2656 17.6542 20.3945 17.6366 20.8164 17.6484C21.2324 17.6659 21.3789 17.6952 21.707 17.8534ZM11.4648 18.7499C12.625 19.1484 13.375 20.2089 13.375 21.4452C13.375 22.7167 12.4961 23.8417 11.2363 24.1699C10.0938 24.4628 8.82227 23.9472 8.16602 22.9159C7.84961 22.4238 7.73829 21.9609 7.76172 21.2988C7.7793 20.7656 7.80274 20.6718 8.00196 20.2558C8.38868 19.4413 9.16797 18.8085 10.0059 18.6386C10.4102 18.5566 11.0488 18.6034 11.4648 18.7499ZM17.7109 20.9531C17.8398 21.3398 18.0977 21.7851 18.3438 22.0429L18.4961 22.207L16.8262 22.2011H15.1621L16.334 21.0644L17.5059 19.9277L17.5469 20.2616C17.5703 20.4433 17.6465 20.7538 17.7109 20.9531ZM15.4844 24.6093V26.0741H15.25H15.0156V24.6093V23.1445H15.25H15.4844V24.6093ZM17.1836 24.8964C17.1836 26.496 17.1719 26.6601 17.0781 26.7773C16.9492 26.9355 16.6973 26.9472 16.5391 26.8066C16.4277 26.707 16.4219 26.6132 16.4219 24.9199V23.1445H16.8027H17.1836V24.8964ZM18.5313 24.6093V26.0741H18.3262H18.1211V24.6093V23.1445H18.3262H18.5313V24.6093ZM20.2891 24.8964C20.2891 26.4784 20.2773 26.6601 20.1895 26.7656C20.0078 26.9765 19.8379 26.9824 19.6445 26.7831L19.4688 26.6132V24.8788V23.1445H19.8789H20.2891V24.8964ZM13.9668 26.7949C13.8262 26.9355 13.5801 26.9413 13.4336 26.8066C13.3223 26.707 13.3164 26.6191 13.3164 25.3652V24.0351L13.6856 23.6835L14.0488 23.3261L14.0664 25.0077C14.0781 26.5956 14.0723 26.6894 13.9668 26.7949ZM12.3789 25.4003V26.0741H12.1738H11.9688V25.4999V24.9257L12.1621 24.8261C12.2617 24.7792 12.3555 24.7324 12.3672 24.7324C12.3731 24.7265 12.3789 25.0312 12.3789 25.4003ZM11.0313 25.9042V26.6132L10.8555 26.7831C10.6621 26.9824 10.4922 26.9765 10.3164 26.7656C10.2285 26.6659 10.2109 26.5312 10.2109 25.9218V25.1952H10.6211H11.0313V25.9042Z" fill="#201F1D"/>
<path d="M20.1074 18.7382C19.1816 19.2187 19.1875 20.6191 20.1133 21.0937C20.6758 21.3808 21.2676 21.2929 21.7012 20.8593C22.5625 19.998 21.9707 18.5742 20.7578 18.5742C20.5 18.5742 20.3418 18.6152 20.1074 18.7382ZM21.0508 19.6289C21.1152 19.6933 21.168 19.8105 21.168 19.8925C21.168 20.0742 20.9277 20.332 20.7578 20.332C20.5938 20.332 20.3477 20.08 20.3477 19.916C20.3477 19.582 20.8106 19.3886 21.0508 19.6289Z" fill="#201F1D"/>
<path d="M10.0351 20.1621C9.22068 20.502 8.95115 21.6035 9.51951 22.2949C9.78318 22.6113 10.1113 22.7578 10.5625 22.7578C11.0195 22.7578 11.3418 22.6113 11.6054 22.2891C12.0976 21.6914 11.957 20.7129 11.3125 20.2852C11.1074 20.1504 10.9961 20.127 10.6269 20.1152C10.3808 20.1035 10.1172 20.127 10.0351 20.1621ZM10.8554 21.1523C11.0781 21.375 10.9433 21.75 10.6094 21.832C10.4863 21.8555 10.416 21.832 10.3047 21.7148C10.0293 21.4453 10.1816 21.0352 10.5625 21.0352C10.6621 21.0352 10.791 21.0879 10.8554 21.1523Z" fill="#201F1D"/>
</g>
<defs>
<clipPath id="clip0_96_13650">
<rect width="30" height="30" fill="white" transform="translate(0.25)"/>
</clipPath>
</defs>
</svg>
