<svg width="30" height="30" viewBox="0 0 30 30" fill="none" xmlns="http://www.w3.org/2000/svg">
<path d="M4.25 16H0.25V20.25H8L4.25 16Z" fill="#FFA633"/>
<path d="M25.25 16H29.25V20.25H21.5L25.25 16Z" fill="#FFA633"/>
<path d="M12.3922 3.14062C9.63246 3.33398 8.16762 3.60937 7.04262 4.14258C6.52113 4.38867 6.26332 4.63476 5.88832 5.25C5.28481 6.24023 3.93715 9 2.86488 11.4492C2.62465 11.9941 2.59535 12.041 2.28481 12.2344C1.30629 12.8613 0.626602 13.8223 0.269181 15.0937C0.0289462 15.9492 -0.0179288 16.5469 0.0172274 18.0879C0.058243 19.5762 0.122696 20.2148 0.415665 21.7266C0.620743 22.7754 0.726212 23.0215 1.03676 23.1094L1.22426 23.168L1.24184 24.3398C1.25941 25.4531 1.26527 25.5352 1.40004 25.8105C1.58754 26.1797 1.94496 26.5371 2.3141 26.7246L2.60707 26.8652H4.98012H7.35316L7.67543 26.7129C8.08559 26.5195 8.41371 26.1914 8.60121 25.7871C8.7184 25.5352 8.75355 25.3535 8.77699 24.8379L8.80629 24.2051L8.97035 24.2871C9.21644 24.416 20.7829 24.416 21.0289 24.2871L21.193 24.2051L21.2223 24.8379C21.2457 25.3535 21.2809 25.5352 21.3981 25.7871C21.5856 26.1914 21.9137 26.5195 22.3239 26.7129L22.6461 26.8652H25.0192H27.3922L27.6852 26.7246C28.0543 26.5371 28.4118 26.1797 28.5993 25.8105C28.734 25.5352 28.7399 25.4531 28.7575 24.3398L28.775 23.168L28.9625 23.1094C29.2731 23.0215 29.3786 22.7754 29.5836 21.7266C29.8766 20.2148 29.9411 19.5762 29.9821 18.0879C30.0172 16.5469 29.9704 15.9492 29.7301 15.0937C29.3727 13.8223 28.693 12.8613 27.7145 12.2344C27.4039 12.041 27.3746 11.9941 27.1344 11.4492C26.5309 10.0723 25.3825 7.6289 24.9079 6.70898C24.2633 5.46679 23.8883 4.8457 23.6071 4.56445C23.1325 4.08984 21.9196 3.67383 20.2555 3.39844C19.0368 3.20508 18.1403 3.15234 15.4391 3.13476C13.9274 3.1289 12.5563 3.1289 12.3922 3.14062ZM17.3727 4.45312C19.7047 4.57031 21.4098 4.85742 22.359 5.30859C22.6051 5.42578 22.7223 5.53125 22.9157 5.81836C23.3258 6.43359 25.6754 11.2559 25.5993 11.332C25.5875 11.3496 25.3239 11.3086 25.0192 11.2441C24.2809 11.0918 23.4371 10.9746 22.3239 10.8691C20.1911 10.6699 19.1598 10.6406 14.9996 10.6406C10.8395 10.6406 9.80824 10.6699 7.67543 10.8691C6.56215 10.9746 5.7184 11.0918 4.98012 11.2441C4.67543 11.3086 4.41176 11.3496 4.40004 11.332C4.32387 11.2559 6.67348 6.43359 7.08363 5.81836C7.27699 5.53125 7.39418 5.42578 7.64027 5.30859C8.29066 4.99804 9.49769 4.72851 10.9274 4.57031C12.3571 4.41211 15.3688 4.35351 17.3727 4.45312ZM19.9215 12.0117C22.6286 12.1699 24.234 12.3691 25.4293 12.6855C26.15 12.8789 26.484 13.0195 26.9469 13.3242C27.6559 13.7988 28.1188 14.3965 28.4118 15.2344L28.5289 15.5566L27.2868 15.5918C25.945 15.627 25.6403 15.6855 25.0192 16.043C24.6325 16.2656 21.3454 19.541 21.2633 19.7871C21.1813 20.0391 21.2399 20.2852 21.4215 20.4551L21.5739 20.5957L25.0133 20.625L28.4528 20.6543L28.3414 21.252L28.2301 21.8555H25.5758H22.9215L21.6793 22.4707L20.443 23.0859H14.9996H9.55629L8.31996 22.4707L7.07777 21.8555H4.42934H1.77504L1.67543 21.3691C1.6227 21.1055 1.58168 20.8301 1.58168 20.7539V20.625H4.97426H8.36684L8.54262 20.4785C8.75355 20.3027 8.82387 20.0566 8.73598 19.7871C8.65394 19.541 5.36684 16.2656 4.98012 16.043C4.35902 15.6855 4.05434 15.627 2.71254 15.5918L1.47035 15.5566L1.58754 15.2344C1.88051 14.3965 2.3434 13.7988 3.05238 13.3242C3.51527 13.0195 3.84926 12.8789 4.56996 12.6855C6.04066 12.293 8.63051 12.0352 12.0993 11.9297C13.3297 11.8945 18.902 11.9473 19.9215 12.0117ZM4.01332 17.0508C4.32387 17.168 4.48793 17.3086 5.44887 18.2578L6.53285 19.3359H3.97231C2.47231 19.3359 1.40004 19.3125 1.3766 19.2832C1.35902 19.2539 1.32973 18.6973 1.30629 18.0469L1.27113 16.8633L2.46645 16.8867C3.53871 16.9102 3.69691 16.9277 4.01332 17.0508ZM28.693 18.0527C28.6696 18.6973 28.6403 19.2539 28.6227 19.2832C28.5993 19.3125 27.527 19.3359 26.027 19.3359H23.4664L24.527 18.2812C25.9215 16.8926 25.9215 16.8926 27.7086 16.8809L28.7282 16.875L28.693 18.0527ZM7.09535 23.3555L7.51137 23.5605L7.48793 24.3633C7.45277 25.6582 7.55824 25.6055 5.01527 25.6055C3.4684 25.6055 3.0641 25.5879 2.89418 25.5176C2.57191 25.3828 2.51918 25.1836 2.51918 24.082V23.1445H4.59926H6.67934L7.09535 23.3555ZM27.4801 24.082C27.4801 25.1836 27.4274 25.3828 27.1051 25.5176C26.9352 25.5879 26.5309 25.6055 24.984 25.6055C22.4411 25.6055 22.5465 25.6582 22.5114 24.3633L22.4879 23.5605L22.8864 23.3555L23.2907 23.1504L25.3883 23.1445H27.4801V24.082Z" fill="#201F1D"/>
<path d="M7.91017 15.627C7.8633 15.6445 7.75197 15.7266 7.66408 15.8086C7.44728 16.0078 7.43556 16.4238 7.62892 16.6758C7.98634 17.1328 10.6934 20.3789 10.8223 20.4902L10.9629 20.625H15H19.0371L19.1777 20.4902C19.3067 20.3789 22.0137 17.1328 22.3711 16.6758C22.459 16.5586 22.5 16.4297 22.5 16.2363C22.5 16.002 22.4707 15.9316 22.3184 15.7852L22.1426 15.6152L15.0703 15.6035C11.1797 15.5977 7.95705 15.6094 7.91017 15.627ZM20.4082 16.9512C20.3848 16.998 19.9277 17.5488 19.4004 18.1816L18.4395 19.3359H15H11.5606L10.5996 18.1816C10.0723 17.5488 9.61525 16.998 9.59181 16.9512C9.5508 16.8867 10.4531 16.875 15 16.875C19.5469 16.875 20.4492 16.8867 20.4082 16.9512Z" fill="#201F1D"/>
</svg>
