<svg width="31" height="30" viewBox="0 0 31 30" fill="none" xmlns="http://www.w3.org/2000/svg">
<g clip-path="url(#clip0_96_13523)">
<path d="M11.0039 24.7852L10.0078 27.9492H13.1719L13.4648 27.3047L14.7539 25.7812H16.1016L17.5664 26.7773L18.5039 27.9492H21.1406L21.4922 27.3047L19.8516 24.4336L17.5664 22.793H14.1094L11.0039 24.7852Z" fill="#FF9307" stroke="#201F1D"/>
<path d="M13.9336 17.4023V15.293L15.8086 15.5859L17.332 15.293V17.4023L15.8086 18.1641L13.9336 17.4023Z" fill="#FF9307" stroke="#FF9307"/>
<path d="M18.1523 22.0312L18.4453 23.8477L19.8516 24.3164L20.9062 23.8477L22.1367 24.7266L24.1875 26.7773L26.707 28.8281H29.3438L30.3398 27.1289L29.3438 25.7227L27.2344 24.3164L23.7188 22.3828L20.4961 20.4492L18.8555 20.918L18.1523 22.0312Z" fill="#FF9307" stroke="#201F1D"/>
<path d="M1.21875 26.4844L8.13281 22.0898L10.4766 20.7422H12.1172L13.3477 22.0898L13.0547 23.8477L11.4141 24.4336L10.4766 23.8477L9.59766 24.4336L8.48438 25.6641L5.90625 28.1836L2.91797 29.0039L1.21875 28.1836V26.4844Z" fill="#FF9307" stroke="#201F1D"/>
<path d="M14.8711 0.152344C14.4375 0.234375 13.916 0.427734 12.3047 1.0957C11.332 1.5 10.4297 1.9043 10.3008 1.99805C10.1777 2.08594 10.002 2.29102 9.9082 2.44336C9.76172 2.68945 9.74414 2.7832 9.74414 3.22266C9.74414 3.65625 9.76172 3.75586 9.90234 3.98438C9.98438 4.13086 10.207 4.39453 10.3828 4.57031L10.7109 4.88672V6.25195V7.61719H10.3828C9.87305 7.61719 9.60352 7.72266 9.27539 8.05664C8.94727 8.38477 8.83594 8.6543 8.83594 9.14062C8.83594 10.0605 9.45703 10.6641 10.3945 10.6641H10.8164L10.8574 10.8809C11.127 12.3281 12.1465 14.0098 13.3125 14.918C13.6875 15.2168 13.752 15.2871 13.752 15.4512C13.7578 15.6211 13.7344 15.6445 13.4824 15.7266C13.3242 15.7734 11.8828 16.2129 10.2715 16.6992C8.32617 17.291 7.20703 17.6602 6.94336 17.8008C6.43945 18.0586 5.74805 18.6973 5.44922 19.1777C5.32617 19.377 4.50586 20.8418 3.62109 22.4297C2.17969 25.0312 1.99219 25.3359 1.77539 25.4883C1.46484 25.6992 1.25977 25.9453 1.05469 26.332C0.908203 26.6016 0.896484 26.6895 0.896484 27.2754C0.896484 27.8438 0.914062 27.9551 1.04297 28.2129C1.22461 28.5879 1.69336 29.0566 2.06836 29.2383C2.33789 29.373 2.43164 29.3848 3.15234 29.3848C3.74414 29.3848 4.03125 29.3555 4.29492 29.2793C4.85742 29.1094 5.54883 28.7461 5.99414 28.3887L6.4043 28.0605L6.43359 28.875C6.45117 29.4434 6.48633 29.7188 6.54492 29.7832C6.61523 29.877 7.3418 29.8828 15.7441 29.8828C22.7637 29.8828 24.8848 29.8652 24.9375 29.8125C24.9844 29.7656 25.0078 29.4727 25.0078 28.8691V28.002L25.1719 28.125C25.2598 28.1895 25.4648 28.3535 25.623 28.4824C25.9629 28.752 26.7012 29.127 27.2051 29.2793C27.4688 29.3555 27.7559 29.3848 28.3477 29.3848C29.0684 29.3848 29.1621 29.373 29.4316 29.2383C29.8066 29.0566 30.2812 28.582 30.4453 28.2305C30.8906 27.2695 30.5801 26.0801 29.7246 25.4883C29.5078 25.3359 29.3203 25.0312 27.8789 22.4297C26.9941 20.8418 26.1738 19.377 26.0508 19.1777C25.752 18.6973 25.0605 18.0586 24.5566 17.7949C24.2812 17.6543 23.1738 17.291 21.1348 16.6699C19.4824 16.166 18.0352 15.7324 17.9355 15.6973C17.7715 15.6445 17.7422 15.6094 17.748 15.4512C17.748 15.2871 17.8125 15.2168 18.1875 14.918C19.3535 14.0098 20.373 12.3281 20.6426 10.8809L20.6836 10.6641H21.0645C21.627 10.6641 21.8848 10.5645 22.2246 10.2246C22.5645 9.89062 22.6641 9.62695 22.6641 9.10547C22.6582 8.24414 22.0254 7.61719 21.1582 7.61719H20.7891V6.25195V4.88672L21.1172 4.57031C21.5684 4.125 21.7324 3.82617 21.7676 3.38086C21.8086 2.92383 21.7148 2.5957 21.4746 2.27344C21.2227 1.94531 21.0996 1.88086 19.1777 1.08398C16.9453 0.158203 16.957 0.164062 15.8965 0.140625C15.416 0.134766 14.9531 0.140625 14.8711 0.152344ZM16.7168 0.966797C17.1328 1.06055 20.5898 2.48438 20.7539 2.625C21 2.85352 21.0938 3.26367 20.959 3.5332C20.9238 3.60352 20.748 3.81445 20.5664 3.99609L20.2383 4.33594H15.75H11.2617L10.9336 3.99609C10.752 3.81445 10.5762 3.60352 10.541 3.5332C10.4062 3.26367 10.5 2.85352 10.7461 2.63086C10.8691 2.51953 14.2617 1.0957 14.6426 0.996094C15.2988 0.820312 16.0078 0.808594 16.7168 0.966797ZM20.0859 5.39062V5.74219H15.75H11.4141V5.39062V5.03906H15.75H20.0859V5.39062ZM19.5586 6.47461C19.5586 6.55664 18.9609 6.87305 18.5918 6.99023C18.1934 7.11328 18.0938 7.11914 15.75 7.11914C13.4062 7.11914 13.3066 7.11328 12.9082 6.99023C12.5391 6.87305 11.9414 6.55664 11.9414 6.47461C11.9414 6.45703 13.6582 6.44531 15.75 6.44531C17.8477 6.44531 19.5586 6.45703 19.5586 6.47461ZM11.8066 7.33594C11.9414 7.42969 12.2285 7.57617 12.4512 7.66406L12.8496 7.82227H15.75H18.6504L19.0605 7.6582C19.2891 7.57031 19.6113 7.40625 19.7812 7.29492L20.0859 7.08984V8.09766C20.0801 10.5117 19.8223 11.5898 18.9316 12.9434C18.1172 14.1738 16.5879 15.3164 15.75 15.3164C14.918 15.3164 13.3887 14.1738 12.5684 12.9434C11.6836 11.6074 11.4199 10.4766 11.4141 8.03906C11.4141 7.28906 11.4316 7.08984 11.4902 7.125C11.5254 7.1543 11.6719 7.24805 11.8066 7.33594ZM10.7109 9.14062C10.7109 9.95508 10.7109 9.96094 10.582 9.96094C10.2539 9.95508 9.97266 9.84375 9.79102 9.64453C9.62695 9.46875 9.59766 9.39258 9.59766 9.14062C9.59766 8.66016 9.96094 8.34961 10.5527 8.32617L10.7109 8.32031V9.14062ZM21.2871 8.37891C21.4336 8.41406 21.5918 8.50781 21.7148 8.63672C21.873 8.8125 21.9023 8.88867 21.9023 9.14062C21.9023 9.39258 21.873 9.46875 21.7148 9.64453C21.5273 9.84375 21.2461 9.95508 20.9238 9.96094C20.7891 9.96094 20.7891 9.95508 20.7891 9.14062C20.7891 8.21484 20.7598 8.25586 21.2871 8.37891ZM14.959 15.9551C15.1699 16.0371 15.3867 16.0723 15.75 16.0723C16.2246 16.0723 16.3301 16.0488 16.9453 15.791C17.0508 15.7441 17.0566 15.7676 17.0215 16.3418C16.9863 17.0684 16.8457 17.3965 16.459 17.666C16.2305 17.8242 16.166 17.8418 15.75 17.8418C15.334 17.8418 15.2695 17.8242 15.041 17.666C14.6543 17.3965 14.5137 17.0684 14.4785 16.3418C14.4434 15.7676 14.4492 15.7441 14.5547 15.791C14.6133 15.8145 14.8008 15.8906 14.959 15.9551ZM13.7695 16.8574C13.8164 17.5371 14.209 18.1113 14.8418 18.4453C15.1055 18.5859 15.1992 18.6035 15.75 18.6035C16.3008 18.6035 16.3945 18.5859 16.6582 18.4453C17.291 18.1113 17.6836 17.5371 17.7305 16.8574C17.7422 16.6406 17.7715 16.4648 17.7832 16.4648C17.7949 16.4648 19.1191 16.8633 20.7188 17.3438C24.123 18.375 24.3867 18.4863 24.9844 19.1191C25.3477 19.5 25.541 19.8164 26.7773 22.0488C27.5391 23.4258 28.1484 24.5508 28.1367 24.5508C28.125 24.5508 26.5898 23.6719 24.7266 22.5938C22.8691 21.5215 21.1992 20.5664 21.0234 20.4727C20.7246 20.3145 20.6543 20.3027 20.0566 20.3027C19.4707 20.3027 19.3828 20.3145 19.0781 20.4668C18.8906 20.5605 18.627 20.7422 18.4863 20.877L18.2344 21.1289L17.8828 21.0234C16.623 20.6426 14.877 20.6426 13.6172 21.0234L13.2656 21.1289L13.0137 20.877C12.6094 20.4844 12.1934 20.3145 11.584 20.2852C11.209 20.2676 10.9863 20.2852 10.7754 20.3555C10.6113 20.4082 8.88281 21.375 6.93164 22.5C4.98047 23.6309 3.375 24.5508 3.35742 24.5508C3.3457 24.5508 3.96094 23.4258 4.72266 22.043C6.04102 19.6641 6.13477 19.5176 6.55664 19.0898C6.89648 18.7383 7.10742 18.5859 7.43555 18.4336C7.78125 18.2695 13.4297 16.4941 13.6758 16.4707C13.7168 16.4648 13.752 16.6172 13.7695 16.8574ZM12.1055 21.1875C12.4922 21.3809 12.7266 21.668 12.8848 22.1367C13.0371 22.6055 13.0195 23.0449 12.8262 23.3086C12.6797 23.5195 12.0059 23.9414 11.6836 24.0293C11.3965 24.1113 11.0742 24.0117 10.7695 23.7598C10.459 23.502 10.3008 23.502 10.0137 23.7598C9.89062 23.8711 9.76758 23.9648 9.73828 23.9648C9.69141 23.9648 8.77734 22.4414 8.77734 22.3652C8.77734 22.3301 10.7637 21.1758 10.957 21.0938C11.2383 20.9824 11.7832 21.0293 12.1055 21.1875ZM21.627 21.6973C22.2305 22.0488 22.7227 22.3477 22.7227 22.3652C22.7227 22.4473 21.8145 23.9648 21.7676 23.9648C21.7383 23.9648 21.6094 23.8711 21.4863 23.7598C21.1992 23.502 21.041 23.502 20.7305 23.7598C20.25 24.1582 19.9102 24.1523 19.207 23.7305C18.6973 23.4316 18.5449 23.2266 18.5156 22.7988C18.4746 22.1426 18.8438 21.4629 19.4004 21.1816C19.6582 21.0527 19.7637 21.0293 20.1152 21.0469C20.5195 21.0645 20.5488 21.0762 21.627 21.6973ZM17.3496 21.6797C17.6309 21.75 17.8594 21.8379 17.8594 21.8672C17.8594 21.8965 17.8301 22.0371 17.7949 22.1836C17.7422 22.3828 17.707 22.4355 17.6309 22.418C16.9453 22.2012 16.7402 22.1777 15.75 22.1777C14.7598 22.1777 14.5547 22.2012 13.8691 22.418C13.793 22.4355 13.7578 22.3828 13.7051 22.1836C13.6699 22.0371 13.6406 21.8965 13.6406 21.8672C13.6406 21.8203 14.3379 21.627 14.8125 21.5391C14.8945 21.5273 15.3809 21.5215 15.8965 21.5273C16.6465 21.5391 16.9395 21.5742 17.3496 21.6797ZM8.61914 23.6836L9.11719 24.5449L7.41211 26.0918C5.51953 27.7969 5.2793 27.9961 4.78711 28.2422C4.03125 28.6289 2.9707 28.7754 2.47266 28.5645C1.56445 28.1895 1.32422 26.9648 2.02148 26.291C2.23242 26.0977 8.0332 22.7402 8.08594 22.7871C8.10352 22.8047 8.34961 23.209 8.61914 23.6836ZM27.498 25.0898C28.5 25.6699 29.3848 26.209 29.4785 26.2969C29.8418 26.6426 29.9824 27.3281 29.7891 27.7969C29.666 28.0898 29.3438 28.4238 29.0566 28.5527C28.5469 28.7754 27.498 28.6406 26.7129 28.2422C26.2266 27.9961 25.9922 27.8086 24.0938 26.0918L22.377 24.5449L22.793 23.8301C23.0215 23.4375 23.2559 23.0332 23.3203 22.9277L23.4316 22.7402L24.5566 23.3906C25.1777 23.748 26.502 24.5156 27.498 25.0898ZM16.6992 22.9746C17.3672 23.1094 17.748 23.2676 17.8535 23.4492C18.1641 24.0234 18.7852 24.5039 19.5 24.7266C19.7754 24.8145 19.8516 24.873 20.0391 25.1426C20.502 25.8105 20.9648 27.041 20.9648 27.6035V27.7734H19.7109H18.457L18.416 27.5332C18.293 26.8242 17.625 25.998 16.8809 25.6465C16.5 25.4648 16.4531 25.459 15.75 25.459C15.0469 25.459 15 25.4648 14.6191 25.6465C13.875 25.998 13.207 26.8242 13.084 27.5332L13.043 27.7734H11.7891H10.5352V27.6035C10.5352 27.041 10.998 25.8105 11.4609 25.1426C11.6484 24.873 11.7246 24.8145 12 24.7266C12.6621 24.5215 13.2832 24.0762 13.5293 23.6367C13.7461 23.2617 13.7871 23.2324 14.4785 23.0566C15.082 22.8984 16.1426 22.8574 16.6992 22.9746ZM10.582 24.5918C10.6699 24.6445 10.7461 24.6973 10.7578 24.7031C10.7695 24.709 10.6582 24.9375 10.5117 25.207C10.1953 25.793 9.97266 26.4082 9.85547 27C9.75586 27.5332 9.75 28.3125 9.84375 28.4062C9.94922 28.5117 13.5996 28.5059 13.6934 28.4004C13.7285 28.3535 13.7812 28.1426 13.8105 27.9258C13.8809 27.4336 14.0508 27.082 14.3789 26.7539C14.7949 26.3379 15.0938 26.2207 15.75 26.2207C16.4062 26.2207 16.7051 26.3379 17.1211 26.7539C17.4492 27.082 17.6191 27.4336 17.6895 27.9258C17.7188 28.1426 17.7715 28.3535 17.8066 28.4004C17.9004 28.5059 21.5508 28.5117 21.6562 28.4062C21.75 28.3125 21.7441 27.5332 21.6445 27C21.5332 26.4082 21.3047 25.793 20.9941 25.2188C20.8477 24.9492 20.7305 24.7207 20.7305 24.709C20.7305 24.7031 20.8242 24.6445 20.9355 24.5859L21.1406 24.4746L21.3281 24.6445C21.5742 24.8789 21.9902 25.7754 22.1777 26.4668C22.2949 26.918 22.3359 27.2227 22.3594 27.9082C22.3711 28.3828 22.3652 28.8633 22.3477 28.9746L22.3066 29.1797H15.75H9.19336L9.15234 28.9746C9.13477 28.8574 9.12891 28.3652 9.14648 27.873C9.18164 26.8418 9.32227 26.2266 9.7207 25.377C9.93164 24.9199 10.248 24.4922 10.3711 24.4922C10.4004 24.4922 10.4941 24.5391 10.582 24.5918ZM8.60742 26.1445C8.45508 26.5605 8.36133 27.4336 8.37891 28.2891L8.39648 29.1797H7.79883H7.19531V28.2539V27.334L7.91602 26.6777C8.30859 26.3203 8.63672 26.0215 8.64258 26.0215C8.64844 26.0156 8.63672 26.0742 8.60742 26.1445ZM24.3047 28.2539V29.1797H23.707H23.1035L23.1211 28.2891C23.1387 27.4336 23.0449 26.5605 22.8926 26.1445C22.8633 26.0684 23.1328 26.2734 23.5723 26.6719L24.3047 27.334V28.2539Z" fill="#201F1D"/>
<path d="M12.6562 8.625C12.6152 8.66602 12.5859 8.78906 12.5859 8.90625C12.5859 9.1875 12.6738 9.25781 13.0078 9.25781C13.2773 9.25781 13.2891 9.26367 13.2891 9.42188C13.2891 9.63867 13.3887 9.72656 13.6406 9.72656C13.8926 9.72656 13.9922 9.63867 13.9922 9.42188C13.9922 9.26367 14.0039 9.25781 14.2734 9.25781C14.6074 9.25781 14.6953 9.1875 14.6953 8.90625C14.6953 8.78906 14.666 8.66602 14.625 8.625C14.5781 8.57812 14.2734 8.55469 13.6406 8.55469C13.0078 8.55469 12.7031 8.57812 12.6562 8.625Z" fill="#201F1D"/>
<path d="M16.875 8.625C16.7812 8.71875 16.7812 9.09375 16.875 9.1875C16.916 9.22852 17.0742 9.25781 17.2266 9.25781C17.4961 9.25781 17.5078 9.26367 17.5078 9.42188C17.5078 9.63867 17.6074 9.72656 17.8594 9.72656C18.1113 9.72656 18.2109 9.63867 18.2109 9.42188C18.2109 9.26367 18.2227 9.25781 18.4922 9.25781C18.8262 9.25781 18.9141 9.1875 18.9141 8.90625C18.9141 8.78906 18.8848 8.66602 18.8438 8.625C18.7969 8.57812 18.4922 8.55469 17.8594 8.55469C17.2266 8.55469 16.9219 8.57812 16.875 8.625Z" fill="#201F1D"/>
<path d="M15.4746 10.0312C15.375 10.1602 14.9297 11.5605 14.9297 11.748C14.9297 12.0059 15.4688 12.5391 15.7324 12.5391C16.1367 12.5391 16.2363 12.123 15.9141 11.7949L15.7266 11.6016L15.9141 11.0273C16.1133 10.418 16.1426 10.1426 16.0312 10.0312C15.9375 9.9375 15.5449 9.94336 15.4746 10.0312Z" fill="#201F1D"/>
<path d="M14.5605 13.1718C14.3144 13.4471 14.5195 13.8163 15.0468 14.0565C15.7968 14.3964 17.039 14.0155 17.039 13.4471C17.039 13.2303 16.8867 13.0663 16.6816 13.0663C16.6054 13.0663 16.4238 13.1483 16.2831 13.2421C16.0898 13.3768 15.9609 13.4178 15.7499 13.4178C15.539 13.4178 15.4101 13.3768 15.2167 13.2421C14.9238 13.0428 14.6953 13.0194 14.5605 13.1718Z" fill="#201F1D"/>
</g>
<defs>
<clipPath id="clip0_96_13523">
<rect width="30" height="30" fill="white" transform="translate(0.75)"/>
</clipPath>
</defs>
</svg>
