<svg width="31" height="30" viewBox="0 0 31 30" fill="none" xmlns="http://www.w3.org/2000/svg">
<path d="M17.125 17.9883L18.2969 16.6406L20.2305 15.9961L21.6953 17.3438L23.8047 22.9102V24.9023L21.6953 26.25L18.2969 26.6602L18.0039 23.7305L17.125 17.9883Z" fill="#FF9307"/>
<path d="M0.894531 12.9492L3.82422 8.61328L5.99219 11.0156L6.8125 13.7109L6.34375 15.8789L3.82422 16.7578L1.48047 15.8789L0.894531 12.9492Z" fill="#FF9307"/>
<g clip-path="url(#clip0_96_13487)">
<path d="M1.73251 0.158203C1.40439 0.269531 0.935637 0.697266 0.789153 1.00781C0.7247 1.14844 0.578216 1.59961 0.455169 2.01562C0.267669 2.66602 0.238372 2.83008 0.261809 3.19336C0.302825 3.85547 0.654387 4.38867 1.22861 4.6582C1.33407 4.71094 3.12704 5.25 5.21298 5.86523C7.30478 6.48047 9.07431 7.02539 9.15048 7.07227C9.38486 7.22461 12.3204 9.68555 12.3204 9.72656C12.3204 9.96094 15.8067 27.832 15.9063 28.0898C16.3224 29.2207 17.4767 30 18.7364 30C18.9942 30 19.3517 29.959 19.5274 29.9121C19.7032 29.8711 20.9571 29.3379 22.3048 28.7402L24.7657 27.6562L24.9122 27.7969C25.2169 28.0781 25.5567 28.207 26.0313 28.207C26.4591 28.2129 26.5177 28.1895 27.9532 27.5977C29.5997 26.9238 29.8634 26.7539 30.1095 26.2207C30.2149 25.998 30.2501 25.8223 30.2501 25.5V25.0723L27.9063 19.3535L25.5626 13.6289L25.797 13.3477C26.1661 12.9141 26.295 12.5859 26.2892 12.0703C26.2892 11.5078 26.1368 11.1387 25.7208 10.7402C25.5509 10.5762 24.2677 9.44531 22.8673 8.23242C21.0802 6.68555 20.2247 5.97656 19.9962 5.87109C19.7325 5.74805 19.5919 5.71875 19.2345 5.71875C18.5255 5.72461 18.2501 5.90039 17.3888 6.87305L17.0372 7.27148L16.2462 6.60352C14.588 5.20898 11.5763 2.7832 11.3536 2.66016C11.2247 2.58398 9.23251 1.96875 6.92978 1.29492C2.40634 -0.0410156 2.33017 -0.0585938 1.73251 0.158203ZM6.5372 2.28516C8.73447 2.92969 10.6212 3.49805 10.7267 3.54492C10.8321 3.5918 11.6173 4.20117 12.4727 4.89844L14.0255 6.16406L13.6739 6.55078C13.4806 6.76758 13.0645 7.21875 12.7481 7.55273L12.1739 8.16211L11.002 7.18359C10.3575 6.64453 9.73642 6.15234 9.62509 6.09375C9.51376 6.03516 7.74423 5.49609 5.69931 4.89844C3.65439 4.29492 1.87314 3.76172 1.75009 3.70898C1.49228 3.5918 1.30478 3.33398 1.30478 3.08203C1.30478 2.98828 1.39853 2.58984 1.51572 2.18555C1.70322 1.57031 1.76181 1.43555 1.93173 1.28906C2.07236 1.16602 2.18954 1.11328 2.33603 1.11328C2.45322 1.11328 4.33993 1.64062 6.5372 2.28516ZM19.7032 6.94922C19.8145 7.02539 21.0685 8.09766 22.4864 9.33398C24.1505 10.7812 25.1056 11.6484 25.1759 11.7832C25.3399 12.082 25.2462 12.3398 24.8009 12.8613C24.6075 13.084 24.4376 13.3418 24.42 13.4297C24.3907 13.5469 24.9532 14.9648 26.7872 19.4531C28.3282 23.209 29.1954 25.3945 29.1954 25.5234C29.1954 25.8867 28.9962 26.0156 27.5841 26.5898C26.8751 26.877 26.2364 27.1289 26.1661 27.1523C25.961 27.2168 25.6446 27.0469 25.4747 26.7773C25.3106 26.5195 25.088 26.3965 24.877 26.4551C24.8067 26.4727 23.5118 27.0352 22.006 27.7031L19.2638 28.916H18.7657C18.3497 28.916 18.2149 28.8926 17.9337 28.7578C17.5352 28.5703 17.1368 28.1895 16.961 27.8203C16.8614 27.627 16.3399 25.0078 15.0743 18.4219C14.1075 13.4004 13.2989 9.24023 13.2813 9.18164C13.2638 9.12305 13.1934 9.0293 13.129 8.96484L13.0059 8.85352L13.6798 8.13281C14.0489 7.73438 14.4708 7.2832 14.6114 7.13086L14.8692 6.84961L15.8595 7.66992C16.3985 8.12695 16.9083 8.51367 16.9845 8.53125C17.2657 8.60156 17.4122 8.49609 18.0392 7.77539C18.379 7.38281 18.7306 7.00195 18.8126 6.93164C19.0821 6.70312 19.3634 6.70898 19.7032 6.94922Z" fill="#201F1D"/>
<path d="M14.5645 9.36328C14.3828 9.39258 14.1953 9.65039 14.1953 9.86719C14.1953 9.9668 14.2598 10.3008 14.3418 10.6055C14.5059 11.2383 14.6055 11.3672 14.9688 11.3672C15.2383 11.3672 15.4844 11.1504 15.4844 10.9043C15.4785 10.6055 15.1387 9.43359 15.0566 9.43359C15.0508 9.43359 14.9629 9.41016 14.8691 9.38672C14.7695 9.36328 14.6348 9.35156 14.5645 9.36328Z" fill="#201F1D"/>
<path d="M15.2497 12.0293C15.1677 12.0703 15.0681 12.1816 15.0212 12.2754C14.945 12.4277 14.9685 12.5742 15.3083 14.0273C15.5134 14.9004 15.7126 15.6855 15.7536 15.7676C15.8474 15.9492 15.9411 15.9961 16.2458 15.9961C16.5153 15.9961 16.7146 15.791 16.7146 15.5098C16.7146 15.416 16.5564 14.6484 16.3571 13.8047C15.9763 12.1699 15.9235 12.0469 15.572 11.9824C15.4782 11.9648 15.3317 11.9824 15.2497 12.0293Z" fill="#201F1D"/>
<path d="M18.8709 15.8203C18.5896 15.8789 18.2146 15.9961 18.033 16.0723C17.6052 16.2715 17.1599 16.7285 16.9373 17.1973C16.6209 17.877 16.6267 17.9707 17.3005 22.4121C17.6228 24.5742 17.9216 26.4316 17.9568 26.543C18.1091 27.0293 18.5017 27.3047 19.0291 27.3047C19.3572 27.3047 19.5447 27.2285 21.9002 26.1914C23.2888 25.5762 24.4548 25.0312 24.4959 24.9727C24.5369 24.9199 24.5838 24.8145 24.6072 24.7383C24.6423 24.6035 22.2693 17.4316 22.0349 16.9688C21.8826 16.6641 21.449 16.207 21.1443 16.0312C20.5642 15.6914 19.8201 15.6211 18.8709 15.8203ZM20.2947 16.8223C20.5701 16.916 20.8513 17.1387 21.0213 17.3906C21.1326 17.5664 23.3943 24.1582 23.3943 24.3164C23.3943 24.3574 22.281 24.8672 22.2576 24.832C22.2459 24.8203 21.8123 23.5488 21.2908 22.002C20.7634 20.4551 20.2654 19.0605 20.1834 18.9023C19.9724 18.5098 19.492 18 18.9002 17.5371C18.6306 17.3262 18.4138 17.1387 18.4138 17.1094C18.4138 17.0508 18.865 16.8984 19.2634 16.8223C19.6795 16.7461 20.0662 16.7461 20.2947 16.8223ZM18.3259 18.4629C18.824 18.8672 19.1345 19.1953 19.281 19.4941C19.3455 19.6172 19.8201 20.9707 20.3357 22.5059L21.2791 25.2949L20.1951 25.7754C19.1287 26.2383 18.9412 26.3027 18.9412 26.1973C18.9412 26.168 18.6775 24.3984 18.3552 22.2656C18.033 20.1387 17.7693 18.3164 17.7693 18.2168C17.7693 18.0059 17.7693 18.0059 18.3259 18.4629Z" fill="#201F1D"/>
<path d="M3.3965 8.0507C3.10939 8.15617 3.00392 8.25578 2.57618 8.81242C1.75001 9.8964 0.865248 11.455 0.478529 12.5097C0.296888 13.0077 0.285169 13.0839 0.285169 13.828C0.27931 14.5077 0.296888 14.6659 0.408216 14.9648C0.976576 16.4706 2.36525 17.3671 3.97072 17.2616C4.93751 17.203 5.64064 16.8866 6.29103 16.2304C7.23439 15.2753 7.50978 13.9628 7.05275 12.6093C6.60158 11.2616 4.89064 8.47843 4.29884 8.12687C4.05861 7.98625 3.66603 7.95109 3.3965 8.0507ZM4.58595 10.2011C5.51173 11.5956 6.12697 12.9023 6.209 13.6523C6.24415 14.0155 6.12697 14.5605 5.92775 14.953C5.74611 15.3046 5.22462 15.8027 4.84962 15.9726C3.584 16.5527 2.13087 16.0605 1.53322 14.8476C1.36915 14.5194 1.334 14.373 1.31642 13.9511C1.29298 13.5175 1.31642 13.3827 1.44533 12.9843C1.75001 12.0761 2.54103 10.6581 3.3379 9.58585L3.71876 9.07609L3.86525 9.21085C3.94728 9.28703 4.26954 9.73234 4.58595 10.2011Z" fill="#201F1D"/>
</g>
<defs>
<clipPath id="clip0_96_13487">
<rect width="30" height="30" fill="white" transform="translate(0.25)"/>
</clipPath>
</defs>
</svg>
