<svg width="30" height="30" viewBox="0 0 30 30" fill="none" xmlns="http://www.w3.org/2000/svg">
<path d="M1.13672 11.9395L3.13524 11.0647H4.32187L6.25794 11.9395L5.07131 13.689L4.32187 15.0011H1.76126V13.689L1.13672 11.9395Z" fill="#FF9307" stroke="#201F1D"/>
<path d="M24.1201 12.0332L26.1186 11.1584H27.3053L29.2413 12.0332L28.0547 13.7827L27.3053 15.0948H24.7447V13.7827L24.1201 12.0332Z" fill="#FF9307" stroke="#201F1D"/>
<ellipse cx="15.0056" cy="27.2476" rx="1.65503" ry="1.65578" fill="#FF9307"/>
<path d="M12.0033 0.255055C11.1789 1.14855 10.9603 2.58565 11.46 3.76657L11.5599 4.004H10.0922C8.47468 4.004 8.34352 4.02899 7.95006 4.39764C7.48791 4.83501 7.35675 5.62854 7.65653 6.20963L7.80017 6.50329L7.65653 6.79696C7.54411 7.01565 7.50664 7.1906 7.50664 7.50301C7.50664 7.81542 7.54411 7.99037 7.65653 8.20906L7.80017 8.50273L7.65653 8.7964C7.45043 9.20253 7.45043 9.80236 7.65653 10.2085L7.80017 10.5022L7.65029 10.8083C7.36924 11.3769 7.46917 12.1017 7.9001 12.5578C8.32479 13.0077 8.26233 13.0015 11.5037 13.0015C14.6451 13.0015 14.7513 12.9952 15.5007 12.6516C15.6881 12.5641 16.0566 12.3579 16.3189 12.1829C16.806 11.8643 17.2932 11.6581 17.7428 11.5894L17.9989 11.5456V11.9018C17.9989 12.1704 18.0301 12.2829 18.1238 12.3766C18.2425 12.4954 18.3299 12.5016 19.9974 12.5016C21.6649 12.5016 21.7524 12.4954 21.871 12.3766C21.9897 12.2579 21.9959 12.1704 21.9959 11.002C21.9959 9.8336 21.9897 9.74613 21.871 9.62741C21.7898 9.54618 21.6649 9.50245 21.4963 9.50245C21.3277 9.50245 21.2028 9.54618 21.1216 9.62741C21.0092 9.73988 20.9967 9.8336 20.9967 10.6271V11.5019H19.9974H18.9982V7.75294V4.004H19.9974H20.9967V6.1284C20.9967 8.17157 21.0029 8.25905 21.1216 8.37776C21.2028 8.45899 21.3277 8.50273 21.4963 8.50273C21.6649 8.50273 21.7898 8.45899 21.871 8.37776C21.9897 8.25905 21.9959 8.17157 21.9959 5.7535C21.9959 3.33544 21.9897 3.24796 21.871 3.12924C21.7524 3.01053 21.6649 3.00428 19.9974 3.00428C18.3299 3.00428 18.2425 3.01053 18.1238 3.12924C17.9989 3.25421 17.9989 3.33544 17.9989 6.87819V10.5022H17.824C17.543 10.5022 16.7311 10.7271 16.3813 10.9021C16.2065 10.9958 15.8505 11.2082 15.5882 11.3769C14.6951 11.9643 14.6326 11.9705 11.5412 11.9705L8.86814 11.9643L8.71825 11.7956C8.53088 11.5769 8.53088 11.4269 8.71825 11.2145C8.85565 11.052 8.90561 11.0395 9.51141 11.002C10.3795 10.952 10.5044 10.8771 10.5044 10.4022C10.5044 10.0086 10.3608 9.93982 9.53639 9.93982C8.89936 9.93982 8.80568 9.92733 8.69327 9.81486C8.55587 9.6774 8.53088 9.43996 8.63081 9.25252C8.72449 9.07757 9.03676 9.00259 9.66755 9.00259C10.367 9.00259 10.5044 8.92136 10.5044 8.50273C10.5044 8.0841 10.367 8.00287 9.6613 8.00287C8.96182 8.00287 8.65579 7.9029 8.59334 7.66547C8.47468 7.1781 8.76196 7.00315 9.6613 7.00315C10.367 7.00315 10.5044 6.92193 10.5044 6.50329C10.5044 6.08466 10.367 6.00343 9.6613 6.00343C8.76196 6.00343 8.47468 5.82848 8.59334 5.34112C8.67453 5.03496 8.88063 5.00372 10.9104 5.00372C12.6716 5.00372 12.759 4.99747 12.8777 4.87875C13.0838 4.67256 13.0401 4.36015 12.7215 3.8228C12.3593 3.20422 12.2531 2.88556 12.2531 2.43569C12.2531 2.09829 12.3905 1.54219 12.4967 1.42348C12.5217 1.39848 13.2024 2.12953 14.0081 3.04802C14.8137 3.96651 15.532 4.78503 15.6069 4.86001C15.7256 4.98497 15.8068 5.00372 16.2502 5.00372C16.856 5.00372 16.9996 4.90374 16.9996 4.50386C16.9996 4.17895 16.831 4.004 16.5125 4.004C16.2814 4.004 16.2439 3.96651 14.6888 2.17951C12.5966 -0.213562 12.8152 0.005126 12.4967 0.005126C12.2719 0.005126 12.2032 0.0363674 12.0033 0.255055Z" fill="#201F1D"/>
<path d="M3.1789 9.5151C3.12269 9.55884 2.89161 9.97747 2.66054 10.4398C2.4357 10.9022 2.24209 11.2896 2.23585 11.3021C2.22336 11.3083 1.78618 11.3771 1.26157 11.4521C0.149889 11.6083 0 11.6895 0 12.0894C0 12.3143 0.0499631 12.383 0.71822 13.0578L1.43644 13.7826L1.2928 14.5949C1.09919 15.6446 1.09919 15.8196 1.2803 15.9883C1.53012 16.2195 1.77369 16.1695 2.68552 15.6946L3.50991 15.2635L4.34679 15.6946C5.29609 16.1882 5.53966 16.232 5.752 15.9633C5.91438 15.7571 5.91438 15.6009 5.72702 14.5949L5.58338 13.7826L6.29535 13.0641C6.9761 12.3768 7.00733 12.3331 7.00733 12.0831C7.00733 11.6957 6.86368 11.6083 5.93936 11.477C5.51468 11.4208 5.0775 11.3521 4.97133 11.3333C4.79021 11.3083 4.7465 11.2459 4.38426 10.4586C4.16567 9.99621 3.92835 9.57758 3.85965 9.52759C3.70352 9.42137 3.32255 9.41513 3.1789 9.5151ZM3.76597 11.6395C3.88463 11.8832 4.02828 12.1331 4.09697 12.1956C4.17192 12.2643 4.40924 12.3331 4.76523 12.383L5.32107 12.458L4.90888 12.8891L4.49043 13.3203L4.53415 13.8014C4.55289 14.0638 4.59036 14.3637 4.61534 14.4575L4.65281 14.6387L4.14694 14.3825C3.8659 14.2388 3.57861 14.1263 3.50991 14.1263C3.44121 14.1263 3.15392 14.2388 2.87288 14.3825L2.367 14.6387L2.40447 14.4575C2.42946 14.3637 2.46693 14.0638 2.48566 13.8014L2.52938 13.3203L2.11094 12.8891L1.69875 12.458L2.25459 12.383C2.61057 12.3331 2.8479 12.2643 2.92284 12.1956C2.99154 12.1331 3.13519 11.8832 3.25385 11.6395C3.37251 11.3896 3.49117 11.1896 3.50991 11.1896C3.52864 11.1896 3.64731 11.3896 3.76597 11.6395Z" fill="#201F1D"/>
<path d="M26.1615 9.5151C26.1053 9.55884 25.8742 9.97747 25.6432 10.4398C25.4183 10.9022 25.2247 11.2896 25.2185 11.3021C25.206 11.3083 24.7751 11.3771 24.2504 11.4521C23.1263 11.6083 22.9951 11.677 22.9951 12.0831C22.9951 12.3331 23.0263 12.3768 23.7071 13.0641L24.4191 13.7826L24.2754 14.5949C24.0818 15.6446 24.0818 15.8196 24.2629 15.9883C24.5127 16.2195 24.7563 16.1695 25.6681 15.6946L26.4925 15.2635L27.3294 15.6946C28.2787 16.1882 28.5223 16.232 28.7346 15.9633C28.897 15.7571 28.897 15.6009 28.7096 14.5949L28.566 13.7826L29.278 13.0641C29.9587 12.3768 29.99 12.3331 29.99 12.0831C29.99 11.6957 29.8463 11.6083 28.922 11.477C28.4973 11.4208 28.0601 11.3521 27.954 11.3333C27.7728 11.3083 27.7291 11.2459 27.3669 10.4586C27.1483 9.99621 26.911 9.57758 26.8423 9.52759C26.6861 9.42137 26.3052 9.41513 26.1615 9.5151ZM26.7486 11.6395C26.8673 11.8832 27.0109 12.1331 27.0796 12.1956C27.1545 12.2643 27.3919 12.3331 27.7479 12.383L28.3037 12.458L27.8915 12.8891L27.4731 13.3203L27.5168 13.8014C27.5355 14.0638 27.573 14.3637 27.598 14.4575L27.6354 14.6387L27.1296 14.3825C26.8485 14.2388 26.5612 14.1263 26.4925 14.1263C26.4238 14.1263 26.1365 14.2388 25.8555 14.3825L25.3496 14.6387L25.3871 14.4575C25.4121 14.3637 25.4496 14.0638 25.4683 13.8014L25.512 13.3203L25.0936 12.8891L24.6814 12.458L25.2372 12.383C25.5932 12.3331 25.8305 12.2643 25.9055 12.1956C25.9742 12.1331 26.1178 11.8832 26.2365 11.6395C26.3551 11.3896 26.4738 11.1896 26.4925 11.1896C26.5113 11.1896 26.6299 11.3896 26.7486 11.6395Z" fill="#201F1D"/>
<path d="M13.0531 14.5948C8.70008 15.1884 4.90288 17.569 2.49216 21.1992C0.974531 23.4861 0.118912 26.0916 0.0314769 28.7221C-0.0184862 30.0655 -0.0871854 29.9968 1.26182 29.9968C2.17989 29.9968 2.27357 29.9843 2.38599 29.8718C2.55461 29.7031 2.55461 29.2907 2.38599 29.122C2.27982 29.0158 2.17989 28.997 1.66777 28.997H1.07446V28.6659C1.07446 27.7037 1.51163 25.6855 1.98628 24.4983C2.21112 23.9172 2.67328 22.9362 2.72324 22.9362C2.76071 22.9362 4.65306 24.0547 4.70927 24.1109C4.7405 24.1422 4.66556 24.3796 4.54689 24.642C3.87864 26.1041 3.5164 27.6787 3.51016 29.1033C3.51016 29.8655 3.5851 29.9968 4.00979 29.9968C4.47195 29.9968 4.5344 29.8468 4.59686 28.6034C4.61559 28.2722 4.70303 27.6662 4.79671 27.26C5.39627 24.567 7.02631 22.2177 9.31837 20.7306C14.171 17.594 20.6225 18.9686 23.7577 23.811C24.7008 25.2606 25.3253 27.0788 25.4065 28.6034C25.4565 29.5281 25.4939 29.7468 25.6251 29.878C25.7375 29.9905 25.8499 29.9968 27.7423 29.9968C30.2529 29.9968 30.0218 30.128 29.9719 28.7221C29.8969 26.6914 29.3723 24.692 28.398 22.755C27.6798 21.3117 26.9241 20.2495 25.775 19.0686C24.045 17.2878 22.1714 16.0882 19.8606 15.2822C19.1174 15.0197 18.8239 15.001 18.6365 15.2072C18.4804 15.3696 18.4491 15.7258 18.5803 15.8945C18.6178 15.9507 19.005 16.1194 19.4359 16.2694C19.8668 16.4193 20.5351 16.688 20.9161 16.8692L21.6093 17.2004L21.016 18.2126C20.6912 18.7624 20.4102 19.231 20.4039 19.2435C20.3914 19.2498 20.0479 19.1186 19.642 18.9499C18.4179 18.425 17.1876 18.1126 16.0322 18.0251L15.5013 17.9814V16.763V15.5446L16.0509 15.5821C16.3507 15.6071 16.7379 15.6446 16.919 15.6633C17.2063 15.7008 17.2563 15.6883 17.4061 15.5383C17.5373 15.4071 17.5685 15.3259 17.5498 15.1135C17.5248 14.7511 17.3499 14.6448 16.6567 14.5636C15.8823 14.4761 13.7901 14.4949 13.0531 14.5948ZM14.502 16.7755V17.9814L13.9712 18.0251C12.8408 18.1064 11.573 18.4313 10.4613 18.9124C10.1115 19.0623 9.81175 19.1873 9.79302 19.1873C9.75555 19.1873 8.63138 17.2004 8.63138 17.1316C8.63138 17.0692 9.58068 16.6255 10.2552 16.3756C11.3981 15.957 13.178 15.5821 14.1148 15.5696L14.502 15.5633V16.7755ZM8.23167 18.6687C8.53769 19.206 8.79376 19.6809 8.8 19.7122C8.80625 19.7496 8.56892 19.9496 8.26914 20.1558C7.42602 20.7369 6.0208 22.174 5.43998 23.0612L5.34006 23.2112L4.30332 22.5988C3.36651 22.049 3.26659 21.974 3.32904 21.8678C3.36027 21.7991 3.60384 21.4617 3.87239 21.1118C4.43448 20.362 5.3463 19.3997 6.00207 18.8499C6.58913 18.3625 7.51345 17.694 7.60713 17.6877C7.63836 17.6877 7.9194 18.1314 8.23167 18.6687ZM23.4642 18.4313C24.1199 18.9311 24.8881 19.6497 25.4377 20.287C25.9561 20.8806 26.8055 22.024 26.8055 22.1302C26.8055 22.1802 24.8569 23.3111 24.7695 23.3111C24.7382 23.3049 24.5571 23.0737 24.3698 22.7925C23.8264 21.9865 22.3213 20.5182 21.4407 19.9371L21.297 19.8434L21.9153 18.8062L22.5274 17.7627L22.8084 17.9564C22.9645 18.0626 23.2581 18.2751 23.4642 18.4313ZM27.736 23.8485C28.4168 25.4043 28.9289 27.4912 28.9289 28.7284V28.997H27.7173H26.5119L26.4682 28.4659C26.387 27.3413 26.031 25.9479 25.5501 24.8607C25.4127 24.5483 25.3128 24.2859 25.3253 24.2734C25.369 24.2234 27.3363 23.1237 27.3738 23.1237C27.3988 23.1237 27.5611 23.4486 27.736 23.8485Z" fill="#201F1D"/>
<path d="M17.8552 20.6494C17.7241 20.6994 17.5554 20.7868 17.4867 20.8556C17.418 20.9181 16.6811 21.8241 15.8629 22.8738C14.4702 24.642 14.3453 24.7857 14.0768 24.8857C13.4148 25.1356 12.784 25.8229 12.5841 26.4915C12.428 27.0288 12.4904 27.8723 12.7215 28.3472C12.9526 28.8221 13.4335 29.2969 13.9081 29.5344C14.2579 29.7031 14.3328 29.7156 15.0011 29.7156C15.6693 29.7156 15.7443 29.7031 16.094 29.5344C16.5749 29.2969 17.0496 28.8221 17.2869 28.341C17.4555 27.9973 17.468 27.9098 17.4805 27.2163L17.4867 26.4665L18.3986 24.2046C19.0543 22.5801 19.3104 21.8678 19.3104 21.6866C19.3104 21.4054 19.148 21.0368 18.9482 20.8556C18.8045 20.7244 18.4048 20.5682 18.2175 20.5682C18.1488 20.5682 17.9864 20.6056 17.8552 20.6494ZM17.5242 23.5048C17.1245 24.517 16.7873 25.3481 16.7748 25.3606C16.7685 25.3731 16.6124 25.2856 16.425 25.1606C16.2439 25.0419 16.0128 24.9232 15.9192 24.8982C15.813 24.8732 15.7568 24.8232 15.7755 24.7795C15.8192 24.6608 18.205 21.6241 18.2299 21.6491C18.2424 21.6616 17.9239 22.4989 17.5242 23.5048ZM15.5507 25.9104C16.0815 26.1291 16.4375 26.6602 16.4375 27.2475C16.4375 28.5159 14.9261 29.1595 14.0081 28.291C13.0775 27.4037 13.702 25.8167 14.9886 25.8104C15.1697 25.8104 15.4195 25.8542 15.5507 25.9104Z" fill="#201F1D"/>
<path d="M14.6269 26.8726C14.5457 26.9538 14.502 27.0788 14.502 27.2475C14.502 27.5786 14.6706 27.7473 15.0016 27.7473C15.3326 27.7473 15.5012 27.5786 15.5012 27.2475C15.5012 26.9163 15.3326 26.7476 15.0016 26.7476C14.833 26.7476 14.7081 26.7913 14.6269 26.8726Z" fill="#201F1D"/>
<path d="M13.7837 21.0431C13.3527 21.0993 12.2785 21.3992 11.7789 21.5992C10.0989 22.274 8.59375 23.5674 7.66943 25.1294C7.24474 25.8355 6.81381 26.9164 6.77634 27.3663C6.74511 27.6787 6.7576 27.7474 6.87626 27.8662C7.02615 28.0161 7.41961 28.0474 7.58824 27.9161C7.64445 27.8787 7.79434 27.5475 7.913 27.1914C8.34393 25.9542 8.84356 25.1544 9.74914 24.2422C11.0919 22.8926 12.8656 22.1053 14.658 22.0553C15.3825 22.0366 15.5636 21.9178 15.5636 21.4805C15.5636 21.343 15.5136 21.2243 15.42 21.1368C15.2888 21.0118 15.2139 20.9994 14.6205 21.0056C14.2646 21.0118 13.8898 21.0306 13.7837 21.0431Z" fill="#201F1D"/>
<path d="M19.9104 23.0675C19.7855 23.1674 19.748 23.2487 19.748 23.4486C19.748 23.6798 19.7918 23.7485 20.3039 24.2796C21.1845 25.2044 21.7965 26.2166 22.1275 27.3163C22.2899 27.8599 22.4148 27.9973 22.7333 27.9973C23.0456 27.9973 23.2455 27.7974 23.2455 27.485C23.2455 27.0163 22.6397 25.573 22.1026 24.7795C21.7216 24.2171 21.0658 23.4548 20.7223 23.1799C20.3788 22.905 20.1602 22.8738 19.9104 23.0675Z" fill="#201F1D"/>
</svg>
