<svg width="163" height="60" viewBox="0 0 163 60" fill="none" xmlns="http://www.w3.org/2000/svg">
<rect width="162" height="59" transform="translate(0.25 0.321777)" fill="#2F2F2F"/>
<path d="M48.1088 36.6375C47.7165 37.5519 47.2318 38.4239 46.6623 39.2399C45.9016 40.3265 45.2768 41.0773 44.798 41.4952C44.0543 42.1781 43.2553 42.5294 42.401 42.5492C41.789 42.5492 41.0495 42.375 40.1882 42.0208C39.324 41.6681 38.5307 41.4952 37.8039 41.4952C37.0432 41.4952 36.2272 41.6681 35.3531 42.0208C34.4804 42.375 33.7749 42.5606 33.2352 42.5776C32.4178 42.613 31.6003 42.2531 30.7858 41.4952C30.2658 41.0419 29.6156 40.2627 28.835 39.1606C27.9992 37.9861 27.3121 36.6191 26.7738 35.065C26.1972 33.3834 25.9082 31.7571 25.9082 30.1817C25.9082 28.3783 26.2978 26.8214 27.0783 25.5181C27.6687 24.4945 28.5128 23.6402 29.5292 23.0375C30.5314 22.4363 31.6755 22.1127 32.8442 22.0996C33.4958 22.0996 34.3501 22.3008 35.4083 22.6975C36.4666 23.0941 37.1466 23.2953 37.4427 23.2953C37.6665 23.2953 38.4188 23.0587 39.6994 22.5898C40.9078 22.1549 41.9278 21.975 42.7637 22.0458C45.0303 22.2286 46.7318 23.1211 47.8637 24.7304C45.8378 25.9586 44.8363 27.6771 44.8561 29.8828C44.8731 31.6012 45.4978 33.0306 46.7218 34.1654C47.263 34.6832 47.8944 35.0976 48.5848 35.388C48.4346 35.8229 48.2759 36.238 48.1088 36.6375V36.6375ZM42.9138 16.1936C42.9138 17.5394 42.4208 18.7974 41.4419 19.9605C40.2576 21.3431 38.8268 22.1436 37.2755 22.0175C37.2552 21.8482 37.2453 21.6779 37.2458 21.5075C37.2458 20.2141 37.8068 18.8314 38.8083 17.6995C39.307 17.1271 39.9417 16.6497 40.7109 16.2701C41.4788 15.8961 42.2041 15.6892 42.8869 15.6538C42.9053 15.8351 42.9138 16.0151 42.9138 16.1936V16.1936Z" fill="white"/>
<path d="M59.852 17.7018C59.81 20.3478 62.022 22.5178 64.724 22.4758C66.586 22.4758 68.21 21.5098 69.036 20.0398V17.4358H64.71V18.7518H67.552V19.7458C66.978 20.6278 66.012 21.1458 64.794 21.1458C62.806 21.1458 61.392 19.6618 61.392 17.6878C61.392 15.7418 62.764 14.2858 64.71 14.2858C65.858 14.2858 66.782 14.7758 67.468 15.7418L68.546 14.8598C67.664 13.6278 66.334 12.9278 64.724 12.9278C62.05 12.8858 59.796 15.0558 59.852 17.7018ZM76.9473 19.3678C77.0173 19.0458 77.0593 18.7378 77.0593 18.4438C77.0593 16.6518 75.7013 15.2938 73.8813 15.2938C71.9353 15.2518 70.2833 16.9178 70.3253 18.8918C70.3253 20.9218 71.9213 22.4758 74.0213 22.4758C75.0713 22.4758 75.9813 22.1118 76.7653 21.3698L76.0653 20.3618C75.4493 20.9078 74.7773 21.1738 74.0633 21.1738C72.8873 21.1738 72.0053 20.4878 71.8233 19.3678H76.9473ZM71.8513 18.2198C72.0753 17.1978 72.8593 16.5398 73.8253 16.5398C74.7913 16.5398 75.5753 17.1698 75.5893 18.2198H71.8513ZM82.8317 21.0758C82.4257 21.1178 82.1317 21.1458 81.9217 21.1458C81.0257 21.1458 80.5637 20.8378 80.5637 19.9558V16.7218H82.6077V15.4478H80.5637V13.6418H79.0797V15.4478H77.9597V16.7218H79.0797V20.0818C79.0797 21.6918 80.0317 22.4758 81.6137 22.4758C81.9637 22.4758 82.3697 22.4198 82.8317 22.3218V21.0758ZM88.2456 22.3218H89.7156V15.4478H88.2456V22.3218ZM87.9796 12.8858C87.9796 13.4318 88.4276 13.8518 88.9876 13.8518C89.5336 13.8518 89.9816 13.4318 89.9816 12.8858C89.9816 12.3398 89.5336 11.9058 88.9876 11.9058C88.4276 11.9058 87.9796 12.3398 87.9796 12.8858ZM95.9293 21.0758C95.5233 21.1178 95.2293 21.1458 95.0193 21.1458C94.1233 21.1458 93.6613 20.8378 93.6613 19.9558V16.7218H95.7053V15.4478H93.6613V13.6418H92.1773V15.4478H91.0573V16.7218H92.1773V20.0818C92.1773 21.6918 93.1293 22.4758 94.7113 22.4758C95.0613 22.4758 95.4673 22.4198 95.9293 22.3218V21.0758ZM100.909 18.8778C100.867 20.8238 102.561 22.5178 104.535 22.4758C106.537 22.5178 108.231 20.8238 108.189 18.8778C108.231 16.9318 106.537 15.2518 104.535 15.2938C102.561 15.2658 100.867 16.9038 100.909 18.8778ZM106.677 18.8918C106.677 20.1378 105.753 21.1178 104.535 21.1178C103.331 21.1178 102.407 20.1658 102.407 18.8918C102.407 17.6178 103.331 16.6378 104.549 16.6378C105.739 16.6378 106.677 17.6178 106.677 18.8918ZM115.881 18.0238C115.881 16.3858 114.915 15.2938 113.305 15.2938C112.451 15.2938 111.765 15.5738 111.247 16.1198V15.4478H109.875V22.3218H111.345V18.2198C111.345 17.2818 112.003 16.6238 112.913 16.6238C113.809 16.6238 114.411 17.2678 114.411 18.2198V22.3218H115.881V18.0238Z" fill="white"/>
<path d="M66.78 44.3218H68.955L64.545 34.2418H63.87L59.445 44.3218H61.62L62.175 43.0318H66.225L66.78 44.3218ZM65.52 41.3668H62.88L64.2 38.0218L65.52 41.3668ZM78.017 40.6018C78.017 38.3818 76.487 36.7318 74.417 36.7318C73.397 36.7318 72.527 37.1218 72.032 37.8268V36.8968H70.172V47.0218H72.197V43.6018C72.737 44.1868 73.517 44.5018 74.417 44.5018C76.487 44.5018 78.017 42.8218 78.017 40.6018ZM75.962 40.6168C75.962 41.8318 75.122 42.6568 74.042 42.6568C73.007 42.6568 72.167 41.9218 72.167 40.6018C72.167 39.2668 73.022 38.5618 74.042 38.5618C75.137 38.5618 75.962 39.3718 75.962 40.6168ZM87.4506 40.6018C87.4506 38.3818 85.9206 36.7318 83.8506 36.7318C82.8306 36.7318 81.9606 37.1218 81.4656 37.8268V36.8968H79.6056V47.0218H81.6306V43.6018C82.1706 44.1868 82.9506 44.5018 83.8506 44.5018C85.9206 44.5018 87.4506 42.8218 87.4506 40.6018ZM85.3956 40.6168C85.3956 41.8318 84.5556 42.6568 83.4756 42.6568C82.4406 42.6568 81.6006 41.9218 81.6006 40.6018C81.6006 39.2668 82.4556 38.5618 83.4756 38.5618C84.5706 38.5618 85.3956 39.3718 85.3956 40.6168ZM92.6883 42.3118C93.4533 43.6468 94.8333 44.5018 96.5133 44.5018C98.4933 44.5018 99.9783 43.3468 99.9783 41.5318C99.9783 40.1968 99.1983 39.3718 97.5333 38.6368L96.4083 38.1418C95.5683 37.7668 95.2533 37.5268 95.2533 37.0018C95.2533 36.3868 95.7783 36.0418 96.4833 36.0418C97.2333 36.0418 97.8633 36.4168 98.3733 37.1818L99.7533 36.1168C99.1383 34.9768 97.9983 34.2418 96.4833 34.2418C94.6083 34.2418 93.1983 35.3518 93.1983 37.0468C93.1983 38.3668 94.0833 39.2218 95.5983 39.8968L96.6633 40.3768C97.6083 40.8118 97.9233 41.0218 97.9233 41.6068C97.9233 42.2818 97.3983 42.7018 96.5133 42.7018C95.4333 42.7018 94.7283 42.1468 94.0833 41.2618L92.6883 42.3118ZM106.319 42.6268C105.794 42.6718 105.479 42.6868 105.359 42.6868C104.399 42.6868 103.979 42.3718 103.979 41.5318V38.6068H106.079V36.8968H103.979V35.0218H101.954V36.8968H100.784V38.6068H101.954V41.7118C101.954 43.5718 103.049 44.5018 104.924 44.5018C105.374 44.5018 105.839 44.4418 106.319 44.3218V42.6268ZM107.223 40.6018C107.178 42.7168 109.008 44.5318 111.183 44.4868C113.358 44.5318 115.233 42.7168 115.188 40.6018C115.233 38.4868 113.373 36.7018 111.198 36.7318C109.023 36.6868 107.178 38.4868 107.223 40.6018ZM113.118 40.6168C113.118 41.7718 112.293 42.6268 111.198 42.6268C110.073 42.6268 109.278 41.7718 109.278 40.6168C109.278 39.4318 110.073 38.5768 111.198 38.5768C112.293 38.5768 113.118 39.4618 113.118 40.6168ZM121.329 36.8968C121.134 36.8368 120.924 36.8068 120.669 36.8068C119.844 36.8068 119.124 37.1668 118.629 37.7818V36.8968H116.769V44.3218H118.794V40.6168C118.794 39.3418 119.574 38.6818 120.789 38.6818H121.329V36.8968ZM129.263 41.2918C129.353 40.9168 129.398 40.5418 129.398 40.1818C129.398 38.2468 127.958 36.7318 125.903 36.7318C123.758 36.6868 121.973 38.4718 122.018 40.6168C121.973 42.7618 123.788 44.5468 126.083 44.5018C127.178 44.5018 128.168 44.1268 129.053 43.3918L128.213 42.0118C127.568 42.5068 126.878 42.7618 126.143 42.7618C125.063 42.7618 124.298 42.2368 124.058 41.2918H129.263ZM124.058 39.8668C124.283 38.9518 124.973 38.3668 125.828 38.3668C126.713 38.3668 127.418 38.9518 127.433 39.8668H124.058Z" fill="white"/>
</svg>
