<svg width="45" height="45" viewBox="0 0 45 45" fill="none" xmlns="http://www.w3.org/2000/svg">
<path d="M38.0793 33.2025C35.4487 36.0544 31.4681 37.5 26.2499 37.5L24.3749 37.5L24.3749 32.2144L25.8824 31.9125C28.4512 31.3987 30.2381 30.3881 31.1943 28.905C31.6933 28.106 31.9762 27.1912 32.0156 26.25L26.2499 26.25C25.7526 26.25 25.2757 26.0525 24.9241 25.7008C24.5725 25.3492 24.3749 24.8723 24.3749 24.375L24.3749 11.25C24.3749 9.18187 26.0568 7.5 28.1249 7.5L39.3749 7.5C39.8722 7.5 40.3491 7.69754 40.7008 8.04917C41.0524 8.4008 41.2499 8.87772 41.2499 9.375L41.2499 18.75L41.2443 24.2231C41.2612 24.4312 41.6174 29.3625 38.0793 33.2025ZM7.49993 7.5L18.7499 7.5C19.2472 7.5 19.7241 7.69754 20.0758 8.04917C20.4274 8.4008 20.6249 8.87772 20.6249 9.375L20.6249 18.75L20.6193 24.2231C20.6362 24.4312 20.9924 29.3625 17.4543 33.2025C14.8237 36.0544 10.8431 37.5 5.62493 37.5L3.74993 37.5L3.74993 32.2144L5.25743 31.9125C7.82618 31.3987 9.61305 30.3881 10.5693 28.905C11.0683 28.106 11.3512 27.1912 11.3906 26.25L5.62493 26.25C5.12765 26.25 4.65073 26.0525 4.2991 25.7008C3.94747 25.3492 3.74993 24.8723 3.74993 24.375L3.74993 11.25C3.74993 9.18187 5.4318 7.5 7.49993 7.5Z" fill="#127384"/>
</svg>
