<svg width="13" height="14" viewBox="0 0 13 14" fill="none" xmlns="http://www.w3.org/2000/svg">
<path d="M2.50619 0.333252C1.21952 0.333252 0.172852 1.37992 0.172852 2.66659C0.172852 3.71992 0.879518 4.60192 1.83952 4.89125V9.66459C1.83885 9.78392 1.85752 10.8519 2.62218 11.6186C3.09419 12.0933 3.72618 12.3333 4.49952 12.3333V13.6666L7.16618 11.6666L4.49952 9.66659V10.9999C3.28418 10.9999 3.17685 9.97725 3.17285 9.66659V4.89125C4.13285 4.60192 4.83952 3.71992 4.83952 2.66659C4.83952 1.37992 3.79219 0.333252 2.50619 0.333252ZM2.50619 3.66659C1.95485 3.66659 1.50619 3.21792 1.50619 2.66659C1.50619 2.11525 1.95485 1.66659 2.50619 1.66659C3.05752 1.66659 3.50619 2.11525 3.50619 2.66659C3.50619 3.21792 3.05752 3.66659 2.50619 3.66659ZM11.1729 9.10859V4.33125C11.1695 3.26059 10.4549 1.66659 8.49952 1.66659V0.333252L5.83285 2.33325L8.49952 4.33325V2.99992C9.71885 2.99992 9.83352 4.02592 9.83952 4.33325V9.10859C8.87952 9.39792 8.17285 10.2799 8.17285 11.3333C8.17285 12.6199 9.21952 13.6666 10.5062 13.6666C11.7929 13.6666 12.8395 12.6199 12.8395 11.3333C12.8395 10.2799 12.1329 9.39792 11.1729 9.10859ZM10.5062 12.3333C9.95485 12.3333 9.50619 11.8846 9.50619 11.3333C9.50619 10.7819 9.95485 10.3333 10.5062 10.3333C11.0575 10.3333 11.5062 10.7819 11.5062 11.3333C11.5062 11.8846 11.0575 12.3333 10.5062 12.3333Z" fill="#828282"/>
</svg>
