<svg width="166" height="60" viewBox="0 0 166 60" fill="none" xmlns="http://www.w3.org/2000/svg">
<rect width="165" height="59" transform="translate(0.5 0.821777)" fill="#FF9307"/>
<path d="M38.8515 29.7778L43.0406 25.5887L29.51 17.984C28.6133 17.4995 27.7732 17.4315 27.0365 17.9614L38.8515 29.7778ZM43.7546 34.6823L48.1094 32.2329C48.9594 31.7569 49.4255 31.0825 49.4255 30.3345C49.4255 29.5879 48.9594 28.9122 48.1109 28.4362L44.1683 26.2219L39.7299 30.6589L43.7546 34.6823ZM26.3084 18.9913C26.2177 19.2704 26.1667 19.582 26.1667 19.9234V40.7555C26.1667 41.2953 26.2857 41.7599 26.501 42.1297L37.9718 30.6575L26.3084 18.9913ZM38.8515 31.5359L27.4445 42.9443C27.6627 43.0279 27.8979 43.0718 28.1458 43.0718C28.5878 43.0718 29.0482 42.9414 29.5171 42.6808L42.6284 35.3184L38.8515 31.5359Z" fill="white"/>
<path d="M61.602 18.2018C61.56 20.8478 63.772 23.0178 66.474 22.9758C68.336 22.9758 69.96 22.0098 70.786 20.5398V17.9358H66.46V19.2518H69.302V20.2458C68.728 21.1278 67.762 21.6458 66.544 21.6458C64.556 21.6458 63.142 20.1618 63.142 18.1878C63.142 16.2418 64.514 14.7858 66.46 14.7858C67.608 14.7858 68.532 15.2758 69.218 16.2418L70.296 15.3598C69.414 14.1278 68.084 13.4278 66.474 13.4278C63.8 13.3858 61.546 15.5558 61.602 18.2018ZM78.6973 19.8678C78.7673 19.5458 78.8093 19.2378 78.8093 18.9438C78.8093 17.1518 77.4513 15.7938 75.6313 15.7938C73.6853 15.7518 72.0333 17.4178 72.0753 19.3918C72.0753 21.4218 73.6713 22.9758 75.7713 22.9758C76.8213 22.9758 77.7313 22.6118 78.5153 21.8698L77.8153 20.8618C77.1993 21.4078 76.5273 21.6738 75.8133 21.6738C74.6373 21.6738 73.7553 20.9878 73.5733 19.8678H78.6973ZM73.6013 18.7198C73.8253 17.6978 74.6093 17.0398 75.5753 17.0398C76.5413 17.0398 77.3253 17.6698 77.3393 18.7198H73.6013ZM84.5817 21.5758C84.1757 21.6178 83.8817 21.6458 83.6717 21.6458C82.7757 21.6458 82.3137 21.3378 82.3137 20.4558V17.2218H84.3577V15.9478H82.3137V14.1418H80.8297V15.9478H79.7097V17.2218H80.8297V20.5818C80.8297 22.1918 81.7817 22.9758 83.3637 22.9758C83.7137 22.9758 84.1197 22.9198 84.5817 22.8218V21.5758ZM89.9956 22.8218H91.4656V15.9478H89.9956V22.8218ZM89.7296 13.3858C89.7296 13.9318 90.1776 14.3518 90.7376 14.3518C91.2836 14.3518 91.7316 13.9318 91.7316 13.3858C91.7316 12.8398 91.2836 12.4058 90.7376 12.4058C90.1776 12.4058 89.7296 12.8398 89.7296 13.3858ZM97.6793 21.5758C97.2733 21.6178 96.9793 21.6458 96.7693 21.6458C95.8733 21.6458 95.4113 21.3378 95.4113 20.4558V17.2218H97.4553V15.9478H95.4113V14.1418H93.9273V15.9478H92.8073V17.2218H93.9273V20.5818C93.9273 22.1918 94.8793 22.9758 96.4613 22.9758C96.8113 22.9758 97.2173 22.9198 97.6793 22.8218V21.5758ZM102.659 19.3778C102.617 21.3238 104.311 23.0178 106.285 22.9758C108.287 23.0178 109.981 21.3238 109.939 19.3778C109.981 17.4318 108.287 15.7518 106.285 15.7938C104.311 15.7658 102.617 17.4038 102.659 19.3778ZM108.427 19.3918C108.427 20.6378 107.503 21.6178 106.285 21.6178C105.081 21.6178 104.157 20.6658 104.157 19.3918C104.157 18.1178 105.081 17.1378 106.299 17.1378C107.489 17.1378 108.427 18.1178 108.427 19.3918ZM117.631 18.5238C117.631 16.8858 116.665 15.7938 115.055 15.7938C114.201 15.7938 113.515 16.0738 112.997 16.6198V15.9478H111.625V22.8218H113.095V18.7198C113.095 17.7818 113.753 17.1238 114.663 17.1238C115.559 17.1238 116.161 17.7678 116.161 18.7198V22.8218H117.631V18.5238Z" fill="white"/>
<path d="M60.07 39.8718C60.025 42.7068 62.455 45.0618 65.365 45.0018C66.4 45.0018 67.33 44.7618 68.155 44.2668C68.995 43.7718 69.64 43.1118 70.09 42.3168V39.3918H65.335V41.1468H68.065V41.9568C67.51 42.7218 66.595 43.1868 65.455 43.1868C63.49 43.1868 62.155 41.7918 62.155 39.8718C62.155 37.9818 63.445 36.6168 65.335 36.6168C66.475 36.6168 67.39 37.0968 68.095 38.0718L69.535 36.8868C68.575 35.5218 67.105 34.7418 65.365 34.7418C62.44 34.6968 60.01 37.0218 60.07 39.8718ZM71.2911 41.1018C71.2461 43.2168 73.0761 45.0318 75.2511 44.9868C77.4261 45.0318 79.3011 43.2168 79.2561 41.1018C79.3011 38.9868 77.4411 37.2018 75.2661 37.2318C73.0911 37.1868 71.2461 38.9868 71.2911 41.1018ZM77.1861 41.1168C77.1861 42.2718 76.3611 43.1268 75.2661 43.1268C74.1411 43.1268 73.3461 42.2718 73.3461 41.1168C73.3461 39.9318 74.1411 39.0768 75.2661 39.0768C76.3611 39.0768 77.1861 39.9618 77.1861 41.1168ZM80.417 41.1018C80.372 43.2168 82.202 45.0318 84.377 44.9868C86.552 45.0318 88.427 43.2168 88.382 41.1018C88.427 38.9868 86.567 37.2018 84.392 37.2318C82.217 37.1868 80.372 38.9868 80.417 41.1018ZM86.312 41.1168C86.312 42.2718 85.487 43.1268 84.392 43.1268C83.267 43.1268 82.472 42.2718 82.472 41.1168C82.472 39.9318 83.267 39.0768 84.392 39.0768C85.487 39.0768 86.312 39.9618 86.312 41.1168ZM95.558 37.3968V38.3268C95.033 37.6218 94.193 37.2318 93.128 37.2318C91.103 37.2318 89.573 38.7018 89.573 40.9068C89.573 43.0818 91.073 44.5968 93.128 44.5968C94.073 44.5968 94.853 44.2968 95.393 43.7118V44.1168C95.393 45.2718 94.613 45.8718 93.413 45.8718C92.513 45.8718 91.823 45.5268 90.998 44.9118L89.933 46.3218C90.968 47.2368 92.183 47.7018 93.578 47.7018C95.903 47.7018 97.418 46.4118 97.418 43.9968V37.3968H95.558ZM95.423 40.8768C95.423 42.1518 94.568 42.8868 93.548 42.8868C92.468 42.8868 91.628 42.0918 91.628 40.8918C91.628 39.6918 92.453 38.9568 93.548 38.9568C94.583 38.9568 95.423 39.6018 95.423 40.8768ZM99.4259 44.8218H101.451V33.5718H99.4259V44.8218ZM110.279 41.7918C110.369 41.4168 110.414 41.0418 110.414 40.6818C110.414 38.7468 108.974 37.2318 106.919 37.2318C104.774 37.1868 102.989 38.9718 103.034 41.1168C102.989 43.2618 104.804 45.0468 107.099 45.0018C108.194 45.0018 109.184 44.6268 110.069 43.8918L109.229 42.5118C108.584 43.0068 107.894 43.2618 107.159 43.2618C106.079 43.2618 105.314 42.7368 105.074 41.7918H110.279ZM105.074 40.3668C105.299 39.4518 105.989 38.8668 106.844 38.8668C107.729 38.8668 108.434 39.4518 108.449 40.3668H105.074ZM116.333 44.8218H118.358V41.3268H120.053C122.123 41.3268 123.623 40.0068 123.623 38.1168C123.623 36.2118 122.123 34.9218 120.053 34.9218H116.333V44.8218ZM118.358 39.5568V36.7068H120.053C120.968 36.7068 121.553 37.2768 121.553 38.1168C121.553 38.9718 120.998 39.5568 120.053 39.5568H118.358ZM125.105 44.8218H127.13V33.5718H125.105V44.8218ZM135.358 40.4118C135.358 38.3568 134.113 37.2318 132.178 37.2318C130.873 37.2318 129.793 37.7418 128.938 38.7618L129.988 40.0068C130.648 39.3018 131.188 38.9868 131.953 38.9868C132.853 38.9868 133.333 39.4668 133.333 40.2918V40.6218H131.473C129.748 40.6218 128.668 41.4468 128.668 42.7818C128.668 44.0868 129.658 45.0018 131.233 45.0018C132.178 45.0018 132.958 44.6568 133.498 44.1018V44.8218H135.358V40.4118ZM133.333 42.0468C133.333 42.9018 132.658 43.5168 131.773 43.5168C131.128 43.5168 130.708 43.2018 130.708 42.7068C130.708 42.2118 131.083 41.9568 131.743 41.9568H133.333V42.0468ZM142.377 37.3968L140.442 42.2718L138.627 37.3968H136.482L139.332 44.3718L139.107 44.8818C138.762 45.6618 138.282 45.8868 137.562 45.8868C137.442 45.8868 137.157 45.8718 136.692 45.8268V47.5218C137.142 47.6418 137.577 47.7018 137.997 47.7018C139.377 47.7018 140.277 47.0118 140.952 45.4668L144.507 37.3968H142.377Z" fill="white"/>
</svg>
